<?xml version="1.0" encoding="UTF-8"?>
<svg id="Calque_1" data-name="Calque 1" xmlns="http://www.w3.org/2000/svg" viewBox="0 0 549.49 549.49">
  <defs>
    <style>
      .cls-1 {
        fill: #000091;
      }

      .cls-2 {
        fill: #fff;
      }

      .cls-3 {
        fill: #ffe910;
      }

      .cls-4 {
        fill: #e1000f;
      }

      .cls-5 {
        fill: #169b62;
      }
    </style>
  </defs>
  <circle class="cls-2" cx="274.85" cy="277.38" r="270.87"/>
  <path class="cls-5" d="m274.75,549.49C123.25,549.49,0,426.24,0,274.75S123.25,0,274.75,0s274.75,123.25,274.75,274.75-123.25,274.75-274.75,274.75m0-534.39C131.58,15.1,15.1,131.58,15.1,274.75s116.48,259.64,259.64,259.64,259.64-116.47,259.64-259.64S417.92,15.1,274.75,15.1"/>
  <path class="cls-5" d="m274.75,414.62c-77.12,0-139.87-62.74-139.87-139.87s62.74-139.87,139.87-139.87,139.87,62.74,139.87,139.87-62.74,139.87-139.87,139.87m0-274.07c-74,0-134.21,60.2-134.21,134.21s60.2,134.21,134.21,134.21,134.21-60.2,134.21-134.21-60.2-134.21-134.21-134.21"/>
  <rect class="cls-4" x="364.45" y="270.65" width="91.97" height="49.84" transform="translate(-50.75 503.24) rotate(-60)"/>
  <rect class="cls-2" x="321.29" y="245.73" width="91.97" height="49.84" transform="translate(-50.75 453.41) rotate(-60)"/>
  <rect class="cls-1" x="278.13" y="220.82" width="91.97" height="49.84" transform="translate(-50.75 403.57) rotate(-60)"/>
  <path class="cls-1" d="m327.39,200.41l120.65,69.66-40.89,70.82-120.65-69.66,40.89-70.82Zm-1.87-6.96l-45.98,79.65,129.48,74.75,45.98-79.65-129.48-74.75Z"/>
  <rect class="cls-1" x="192.51" y="265.49" width="182.85" height="5.66" transform="translate(-90.42 380.03) rotate(-60)"/>
  <rect class="cls-1" x="107.47" y="224.32" width="149.51" height="91.97" transform="translate(-110.74 127.33) rotate(-30)"/>
  <polygon class="cls-3" points="196 301.5 197.62 298 201.32 298.43 198.51 295.96 200.19 292.58 196.95 294.46 194.17 292.03 194.89 295.65 191.6 297.54 195.27 297.84 196 301.5"/>
  <polygon class="cls-3" points="166.93 249.52 168.54 246.08 172.24 246.46 169.48 243.97 171.12 240.61 167.88 242.48 165.09 240.11 165.82 243.67 162.57 245.55 166.2 245.8 166.93 249.52"/>
  <polygon class="cls-3" points="154.43 290.82 156.03 287.39 159.81 287.71 157.05 285.23 158.78 281.92 155.49 283.81 152.64 281.43 153.35 285.05 150.07 286.95 153.67 287.13 154.43 290.82"/>
  <polygon class="cls-3" points="208.32 259.61 209.92 256.18 213.66 256.52 210.92 253.98 212.59 250.75 209.34 252.63 206.53 250.22 207.21 253.86 203.96 255.73 207.56 255.92 208.32 259.61"/>
  <polygon class="cls-3" points="182.66 245.16 184.31 241.71 188.04 242.05 185.28 239.57 186.95 236.24 183.7 238.12 180.87 235.67 181.56 239.35 178.28 241.25 181.92 241.5 182.66 245.16"/>
  <polygon class="cls-3" points="197.73 249.2 199.38 245.74 203.11 246.09 200.33 243.57 202 240.24 198.75 242.11 195.94 239.71 196.58 243.38 193.33 245.24 197.01 245.48 197.73 249.2"/>
  <polygon class="cls-3" points="211.37 274.52 213 271.13 216.77 271.45 214.01 268.97 215.7 265.58 212.41 267.48 209.6 265.07 210.27 268.71 206.99 270.61 210.65 270.9 211.37 274.52"/>
  <polygon class="cls-3" points="207.14 289.85 208.76 286.36 212.52 286.75 209.74 284.22 211.44 280.88 208.2 282.75 205.35 280.36 206.02 284.01 202.77 285.88 206.42 286.14 207.14 289.85"/>
  <polygon class="cls-3" points="181.02 304.93 182.64 301.44 186.44 301.8 183.62 299.3 185.33 295.96 182.04 297.85 179.23 295.44 179.9 299.08 176.62 300.98 180.26 301.24 181.02 304.93"/>
  <polygon class="cls-3" points="166.3 300.65 167.93 297.24 171.65 297.56 168.9 295.11 170.59 291.72 167.31 293.62 164.51 291.25 165.17 294.85 161.92 296.73 165.58 297.02 166.3 300.65"/>
  <polygon class="cls-3" points="150.48 276.48 152.08 273.04 155.86 273.37 153.08 270.85 154.78 267.5 151.5 269.4 148.65 267.01 149.32 270.66 146.08 272.53 149.72 272.79 150.48 276.48"/>
  <polygon class="cls-3" points="154.26 261.66 155.87 258.22 159.61 258.57 156.85 256.08 158.51 252.76 155.27 254.63 152.39 252.2 153.13 255.86 149.85 257.76 153.49 258.02 154.26 261.66"/>
  <rect class="cls-1" x="262.79" y="176.9" width="5.66" height="182.85" transform="translate(-98.57 168.76) rotate(-30)"/>
  <polygon class="cls-5" points="67.77 175.09 87.4 140.75 97.33 146.42 84.53 168.82 98.5 176.8 109.37 157.78 119.31 163.46 108.44 182.48 133.52 196.82 126.68 208.77 67.77 175.09"/>
  <path class="cls-5" d="m110.73,113.15l15.94-13.27c11.47-9.55,23.44-9.56,31.51.12,5.27,6.33,6.13,13.57,2.81,20.49l35.54,9.5-12.44,10.36-31.48-9.47-5.44,4.52,17.56,21.08-10.58,8.81-43.42-52.13Zm17.9-.02l11.23,13.48,5.96-4.97c4.47-3.72,4.9-8.5,1.37-12.74-3.29-3.95-8.13-4.46-12.6-.74l-5.96,4.97Z"/>
  <path class="cls-5" d="m208.35,55.23l17.45-4.55,41.97,59.2-14.17,3.69-10.73-15.43-26.27,6.84-1.84,18.71-14.17,3.69,7.76-72.15Zm27.43,32.63l-15.44-22.34-2.58,27.03,18.01-4.69Z"/>
  <polygon class="cls-5" points="291.13 44.12 308.4 47.71 328.12 101.92 338.11 53.89 351.59 56.69 337.77 123.14 320.5 119.54 300.78 65.34 290.79 113.37 277.31 110.56 291.13 44.12"/>
  <path class="cls-5" d="m404.44,145.77l3.38,13.26c-10.09,2.79-21.37.82-31.04-6.79-16.83-13.25-18.14-35.24-6.15-50.47,11.99-15.23,33.68-19.12,50.5-5.88,9.67,7.61,14.17,18.18,13.95,28.49l-13.74-.09c.37-6.74-2.09-13.48-8.18-18.28-10.05-7.91-23.38-5.7-31.42,4.5-8.03,10.21-7.05,23.68,3.01,31.59,6.09,4.8,13.22,5.6,19.69,3.66"/>
  <polygon class="cls-5" points="465.43 146.15 484.57 180.75 474.56 186.29 462.08 163.73 448 171.51 458.6 190.68 448.59 196.22 437.99 177.05 422.73 185.49 435.2 208.06 425.19 213.59 406.06 178.99 465.43 146.15"/>
  <path class="cls-5" d="m117.61,326.17l9.24,18.57c6.65,13.36,3.9,25.02-7.39,30.63-7.38,3.67-14.61,2.83-20.58-1.99l-17.45,32.39-7.21-14.5,16.49-28.44-3.15-6.33-24.56,12.22-6.13-12.33,60.75-30.22Zm-4.11,17.42l-15.7,7.81,3.45,6.94c2.59,5.21,7.14,6.73,12.09,4.27,4.6-2.29,6.21-6.88,3.62-12.09l-3.45-6.94Z"/>
  <polygon class="cls-5" points="147.95 379.83 176.4 407.3 168.46 415.53 149.91 397.62 138.73 409.2 154.49 424.41 146.55 432.64 130.79 417.43 118.67 429.98 137.22 447.89 129.28 456.12 100.83 428.65 147.95 379.83"/>
  <polygon class="cls-5" points="188.31 414.65 200.68 420.67 176.47 470.43 199.65 481.71 194.18 492.95 158.62 475.65 188.31 414.65"/>
  <path class="cls-5" d="m252.5,437.1l17.97,1.48,20.01,69.74-14.59-1.2-5.02-18.12-27.05-2.24-7.93,17.04-14.59-1.21,31.19-65.5Zm15.08,39.86l-7.17-26.17-11.38,24.64,18.55,1.53Z"/>
  <polygon class="cls-5" points="301.79 439.1 318.35 433.03 363.71 468.63 346.83 422.59 359.75 417.85 383.11 481.55 366.55 487.62 321.18 452.02 338.07 498.06 325.15 502.8 301.79 439.1"/>
  <path class="cls-5" d="m439.46,408.86l13.57-1.75c1.56,10.35-1.76,21.31-10.48,30-15.18,15.12-37.17,13.77-50.85.03-13.68-13.74-14.94-35.74.24-50.85,8.72-8.68,19.76-11.88,29.97-10.42l-1.74,13.64c-6.64-1.18-13.64.45-19.13,5.92-9.06,9.03-8.48,22.53.69,31.73,9.17,9.2,22.67,9.85,31.73.82,5.49-5.47,7.15-12.46,6-19.11"/>
  <polygon class="cls-5" points="416.33 358.76 432.58 322.71 443.01 327.4 432.42 350.91 447.09 357.52 456.09 337.55 466.51 342.24 457.52 362.22 473.42 369.38 484.01 345.88 494.44 350.58 478.19 386.63 416.33 358.76"/>
</svg>