<?xml version="1.0" encoding="UTF-8"?>
<svg id="Layer_1" data-name="Layer 1" xmlns="http://www.w3.org/2000/svg" viewBox="0 0 868.39 211.06">
  <defs>
    <style>
      .cls-1 {
        fill: #034ea2;
      }

      .cls-2 {
        fill: #fff200;
      }

      .cls-3 {
        fill: #fff;
      }

      .cls-4 {
        fill: #58595b;
        font-family: ArialMT, Arial;
        font-size: 51px;
      }
    </style>
  </defs>
  <rect class="cls-3" width="294.95" height="200.28"/>
  <rect class="cls-1" x="5.67" y="5.49" width="283.6" height="189.07"/>
  <polyline class="cls-2" points="141.43 46.69 147.41 42.32 153.4 46.69 151.12 39.62 157.2 35.26 149.71 35.26 147.41 28.11 145.12 35.27 137.63 35.26 143.71 39.62 141.43 46.69"/>
  <polyline class="cls-2" points="110.46 55.01 116.44 50.64 122.43 55.01 120.15 47.95 126.23 43.58 118.73 43.58 116.44 36.42 114.15 43.59 106.66 43.58 112.73 47.95 110.46 55.01"/>
  <polyline class="cls-2" points="93.79 59.13 91.49 66.3 84 66.29 90.08 70.66 87.8 77.72 93.79 73.35 99.77 77.72 97.49 70.66 103.57 66.29 96.08 66.29 93.79 59.13"/>
  <polyline class="cls-2" points="85.47 104.28 91.45 108.65 89.18 101.59 95.25 97.22 87.77 97.22 85.47 90.06 83.18 97.24 75.69 97.22 81.77 101.59 79.49 108.65 85.47 104.28"/>
  <polyline class="cls-2" points="96.08 128.24 93.78 121.09 91.49 128.25 84 128.24 90.08 132.61 87.8 139.67 93.78 135.3 99.77 139.67 97.49 132.61 103.57 128.24 96.08 128.24"/>
  <polyline class="cls-2" points="118.78 150.94 116.49 143.8 114.2 150.95 106.71 150.94 112.78 155.31 110.51 162.37 116.49 158.01 122.47 162.37 120.2 155.31 126.27 150.94 118.78 150.94"/>
  <polyline class="cls-2" points="149.71 159.17 147.42 152.02 145.13 159.18 137.64 159.17 143.71 163.54 141.44 170.6 147.42 166.23 153.4 170.6 151.12 163.54 157.2 159.17 149.71 159.17"/>
  <polyline class="cls-2" points="180.64 150.94 178.35 143.8 176.05 150.95 168.57 150.94 174.64 155.31 172.37 162.37 178.35 158.01 184.34 162.37 182.05 155.31 188.13 150.94 180.64 150.94"/>
  <polyline class="cls-2" points="203.35 128.24 201.05 121.09 198.76 128.25 191.27 128.24 197.35 132.61 195.07 139.67 201.05 135.3 207.04 139.67 204.76 132.61 210.84 128.24 203.35 128.24"/>
  <polyline class="cls-2" points="219.06 97.13 211.57 97.13 209.27 89.98 206.99 97.14 199.49 97.13 205.57 101.5 203.3 108.56 209.27 104.19 215.26 108.56 212.99 101.5 219.06 97.13"/>
  <polyline class="cls-2" points="195.07 77.62 201.05 73.26 207.04 77.62 204.76 70.56 210.84 66.2 203.35 66.2 201.05 59.05 198.76 66.21 191.27 66.2 197.35 70.56 195.07 77.62"/>
  <polyline class="cls-2" points="178.44 36.43 176.15 43.59 168.66 43.58 174.73 47.95 172.45 55.02 178.45 50.64 184.42 55.02 182.15 47.95 188.23 43.58 180.73 43.58 178.44 36.43"/>
  <g>
    <path class="cls-1" d="m324.38,47.72V5.48h28.95v7.14h-20.43v10h17.63v7.14h-17.63v17.95h-8.53Z"/>
    <path class="cls-1" d="m360.31,12.97v-7.49h8.1v7.49h-8.1Zm0,34.74v-30.59h8.1v30.59h-8.1Z"/>
    <path class="cls-1" d="m404.53,47.72h-8.1v-15.61c0-3.3-.17-5.44-.52-6.41-.35-.97-.91-1.72-1.69-2.26-.78-.54-1.71-.81-2.81-.81-1.4,0-2.66.38-3.77,1.15-1.11.77-1.88,1.79-2.29,3.05s-.62,3.61-.62,7.03v13.86h-8.09v-30.59h7.52v4.49c2.67-3.46,6.03-5.19,10.08-5.19,1.79,0,3.42.32,4.9.96,1.48.64,2.6,1.46,3.36,2.46.76,1,1.29,2.13,1.58,3.4s.45,3.08.45,5.44v19.01Z"/>
    <path class="cls-1" d="m418.79,26.46l-7.35-1.33c.83-2.96,2.25-5.15,4.26-6.57,2.02-1.42,5.01-2.13,8.99-2.13,3.61,0,6.3.43,8.07,1.28,1.77.85,3.01,1.94,3.73,3.25.72,1.32,1.08,3.73,1.08,7.25l-.09,9.45c0,2.69.13,4.67.39,5.95.26,1.28.74,2.65,1.46,4.11h-8.01c-.21-.54-.47-1.33-.78-2.39-.13-.48-.23-.8-.29-.95-1.38,1.34-2.86,2.35-4.44,3.02-1.58.67-3.26,1.01-5.04,1.01-3.15,0-5.63-.85-7.45-2.56-1.81-1.71-2.72-3.87-2.72-6.48,0-1.73.41-3.27,1.24-4.62.83-1.35,1.98-2.39,3.47-3.11,1.49-.72,3.63-1.35,6.44-1.89,3.78-.71,6.41-1.37,7.87-1.99v-.81c0-1.56-.38-2.66-1.15-3.33-.77-.66-2.22-.99-4.35-.99-1.44,0-2.56.28-3.37.85s-1.46,1.56-1.96,2.98Zm10.83,6.57c-1.04.35-2.68.76-4.93,1.24-2.25.48-3.72.95-4.41,1.41-1.06.75-1.58,1.7-1.58,2.85s.42,2.11,1.27,2.94c.84.83,1.92,1.24,3.23,1.24,1.46,0,2.85-.48,4.18-1.44.98-.73,1.62-1.62,1.93-2.68.21-.69.32-2.01.32-3.95v-1.61Z"/>
    <path class="cls-1" d="m473.38,47.72h-8.1v-15.61c0-3.3-.17-5.44-.52-6.41-.35-.97-.91-1.72-1.69-2.26-.78-.54-1.71-.81-2.81-.81-1.4,0-2.66.38-3.77,1.15-1.11.77-1.88,1.79-2.29,3.05s-.62,3.61-.62,7.03v13.86h-8.09v-30.59h7.52v4.49c2.67-3.46,6.03-5.19,10.08-5.19,1.79,0,3.42.32,4.9.96,1.48.64,2.6,1.46,3.36,2.46.76,1,1.29,2.13,1.58,3.4s.45,3.08.45,5.44v19.01Z"/>
    <path class="cls-1" d="m508.27,26.17l-7.98,1.44c-.27-1.59-.88-2.79-1.83-3.6-.95-.81-2.19-1.21-3.7-1.21-2.02,0-3.62.7-4.83,2.09-1.2,1.39-1.8,3.72-1.8,6.99,0,3.63.61,6.19,1.83,7.69s2.86,2.25,4.91,2.25c1.54,0,2.79-.44,3.77-1.31.98-.87,1.67-2.38,2.07-4.51l7.95,1.35c-.83,3.65-2.41,6.41-4.75,8.27-2.34,1.86-5.48,2.79-9.42,2.79-4.47,0-8.04-1.41-10.7-4.23s-3.99-6.73-3.99-11.73,1.33-8.98,4-11.8c2.67-2.81,6.28-4.22,10.83-4.22,3.73,0,6.69.8,8.89,2.41,2.2,1.6,3.78,4.05,4.74,7.33Z"/>
    <path class="cls-1" d="m532.12,37.98l8.07,1.35c-1.04,2.96-2.67,5.21-4.91,6.76-2.24,1.55-5.04,2.32-8.4,2.32-5.32,0-9.26-1.74-11.81-5.21-2.02-2.78-3.02-6.3-3.02-10.54,0-5.07,1.32-9.04,3.97-11.91,2.65-2.87,6-4.31,10.05-4.31,4.55,0,8.14,1.5,10.77,4.51,2.63,3.01,3.89,7.61,3.77,13.81h-20.28c.06,2.4.71,4.27,1.96,5.6,1.25,1.33,2.8,2,4.67,2,1.27,0,2.33-.35,3.2-1.04s1.52-1.81,1.96-3.34Zm.46-8.18c-.06-2.34-.66-4.12-1.82-5.34s-2.55-1.83-4.21-1.83c-1.77,0-3.23.64-4.38,1.93-1.15,1.29-1.72,3.03-1.7,5.24h12.1Zm-10.34-16.42l3.98-8.61h9.07l-7.92,8.61h-5.13Z"/>
    <path class="cls-1" d="m563.38,17.12h7.55v4.49c.98-1.54,2.3-2.78,3.97-3.75,1.67-.96,3.52-1.44,5.56-1.44,3.55,0,6.57,1.39,9.05,4.18,2.48,2.79,3.72,6.66,3.72,11.64s-1.25,9.08-3.74,11.91c-2.5,2.83-5.52,4.25-9.08,4.25-1.69,0-3.22-.34-4.59-1.01-1.37-.67-2.82-1.82-4.34-3.46v15.41h-8.1V17.12Zm8.01,14.78c0,3.44.68,5.98,2.04,7.62,1.36,1.64,3.03,2.46,4.98,2.46s3.45-.75,4.7-2.26c1.25-1.51,1.87-3.98,1.87-7.42,0-3.21-.64-5.59-1.93-7.14-1.29-1.56-2.88-2.33-4.78-2.33s-3.62.76-4.93,2.29c-1.31,1.53-1.96,3.79-1.96,6.78Z"/>
    <path class="cls-1" d="m605.7,26.46l-7.35-1.33c.83-2.96,2.25-5.15,4.26-6.57,2.02-1.42,5.01-2.13,8.99-2.13,3.61,0,6.3.43,8.07,1.28,1.77.85,3.01,1.94,3.73,3.25.72,1.32,1.08,3.73,1.08,7.25l-.09,9.45c0,2.69.13,4.67.39,5.95.26,1.28.74,2.65,1.46,4.11h-8.01c-.21-.54-.47-1.33-.78-2.39-.13-.48-.23-.8-.29-.95-1.38,1.34-2.86,2.35-4.44,3.02-1.58.67-3.26,1.01-5.04,1.01-3.15,0-5.63-.85-7.45-2.56-1.81-1.71-2.72-3.87-2.72-6.48,0-1.73.41-3.27,1.24-4.62.83-1.35,1.98-2.39,3.47-3.11,1.49-.72,3.63-1.35,6.44-1.89,3.78-.71,6.41-1.37,7.87-1.99v-.81c0-1.56-.38-2.66-1.15-3.33-.77-.66-2.22-.99-4.35-.99-1.44,0-2.56.28-3.37.85s-1.46,1.56-1.96,2.98Zm10.83,6.57c-1.04.35-2.68.76-4.93,1.24-2.25.48-3.72.95-4.41,1.41-1.06.75-1.58,1.7-1.58,2.85s.42,2.11,1.27,2.94c.84.83,1.92,1.24,3.23,1.24,1.46,0,2.85-.48,4.18-1.44.98-.73,1.62-1.62,1.93-2.68.21-.69.32-2.01.32-3.95v-1.61Z"/>
    <path class="cls-1" d="m640.21,47.72h-8.1v-30.59h7.52v4.35c1.29-2.05,2.44-3.41,3.47-4.06,1.03-.65,2.19-.98,3.5-.98,1.84,0,3.62.51,5.33,1.53l-2.51,7.06c-1.36-.88-2.63-1.33-3.8-1.33s-2.09.31-2.88.94c-.79.62-1.41,1.75-1.86,3.38-.45,1.63-.68,5.05-.68,10.26v9.45Z"/>
    <path class="cls-1" d="m324.27,118.52v-42.23h8.1v42.23h-8.1Z"/>
    <path class="cls-1" d="m340.46,76.4h8.1v5.79c0,2.34-.2,4.19-.61,5.55-.4,1.35-1.17,2.57-2.29,3.64-1.12,1.08-2.55,1.92-4.28,2.54l-1.58-3.34c1.63-.54,2.79-1.28,3.49-2.22.69-.94,1.06-2.23,1.09-3.86h-3.92v-8.1Z"/>
    <path class="cls-1" d="m357.05,76.28h8.53v22.87c0,3.63.11,5.98.32,7.06.36,1.73,1.23,3.12,2.61,4.16,1.37,1.05,3.25,1.57,5.63,1.57s4.24-.49,5.47-1.48c1.23-.99,1.97-2.2,2.22-3.64.25-1.44.38-3.83.38-7.17v-23.36h8.53v22.18c0,5.07-.23,8.65-.69,10.75-.46,2.09-1.31,3.86-2.55,5.3-1.24,1.44-2.9,2.59-4.97,3.44-2.07.85-4.78,1.28-8.12,1.28-4.03,0-7.09-.47-9.18-1.4-2.08-.93-3.73-2.14-4.94-3.63-1.21-1.49-2.01-3.05-2.39-4.68-.56-2.42-.84-5.99-.84-10.72v-22.53Z"/>
    <path class="cls-1" d="m427.49,118.52h-8.1v-15.61c0-3.3-.17-5.44-.52-6.41-.35-.97-.91-1.72-1.69-2.26-.78-.54-1.71-.81-2.81-.81-1.4,0-2.66.38-3.77,1.15-1.11.77-1.88,1.79-2.29,3.05s-.62,3.61-.62,7.03v13.86h-8.09v-30.59h7.52v4.49c2.67-3.46,6.03-5.19,10.08-5.19,1.79,0,3.42.32,4.9.96,1.48.64,2.6,1.46,3.36,2.46.76,1,1.29,2.13,1.58,3.4s.45,3.08.45,5.44v19.01Z"/>
    <path class="cls-1" d="m435.7,83.77v-7.49h8.1v7.49h-8.1Zm0,34.74v-30.59h8.1v30.59h-8.1Z"/>
    <path class="cls-1" d="m450.22,102.79c0-2.69.66-5.29,1.99-7.81,1.33-2.52,3.2-4.44,5.63-5.76,2.43-1.33,5.14-1.99,8.14-1.99,4.63,0,8.42,1.5,11.38,4.51,2.96,3.01,4.44,6.8,4.44,11.39s-1.49,8.46-4.48,11.51c-2.99,3.04-6.75,4.57-11.28,4.57-2.8,0-5.48-.63-8.02-1.9-2.54-1.27-4.48-3.13-5.81-5.57-1.32-2.45-1.99-5.43-1.99-8.95Zm8.3.43c0,3.03.72,5.36,2.16,6.97,1.44,1.61,3.22,2.42,5.33,2.42s3.88-.81,5.32-2.42c1.43-1.61,2.15-3.96,2.15-7.03s-.72-5.3-2.15-6.91c-1.43-1.61-3.2-2.42-5.32-2.42s-3.89.81-5.33,2.42c-1.44,1.61-2.16,3.94-2.16,6.97Z"/>
    <path class="cls-1" d="m515.96,118.52h-8.1v-15.61c0-3.3-.17-5.44-.52-6.41-.35-.97-.91-1.72-1.69-2.26-.78-.54-1.71-.81-2.81-.81-1.4,0-2.66.38-3.77,1.15-1.11.77-1.88,1.79-2.29,3.05s-.62,3.61-.62,7.03v13.86h-8.09v-30.59h7.52v4.49c2.67-3.46,6.03-5.19,10.08-5.19,1.79,0,3.42.32,4.9.96,1.48.64,2.6,1.46,3.36,2.46.76,1,1.29,2.13,1.58,3.4s.45,3.08.45,5.44v19.01Z"/>
    <path class="cls-1" d="m558.28,108.78l8.07,1.35c-1.04,2.96-2.67,5.21-4.91,6.76s-5.04,2.32-8.4,2.32c-5.32,0-9.26-1.74-11.81-5.21-2.02-2.78-3.02-6.3-3.02-10.54,0-5.07,1.32-9.04,3.97-11.91,2.65-2.87,6-4.31,10.05-4.31,4.55,0,8.14,1.5,10.77,4.51,2.63,3.01,3.89,7.61,3.77,13.81h-20.28c.06,2.4.71,4.27,1.96,5.6,1.25,1.33,2.8,2,4.67,2,1.27,0,2.33-.35,3.2-1.04s1.52-1.81,1.96-3.34Zm.46-8.18c-.06-2.34-.66-4.12-1.82-5.34s-2.55-1.83-4.21-1.83c-1.77,0-3.23.64-4.38,1.93-1.15,1.29-1.72,3.03-1.7,5.24h12.1Z"/>
    <path class="cls-1" d="m593.51,118.52v-4.58c-1.11,1.63-2.58,2.92-4.39,3.86-1.81.94-3.73,1.41-5.75,1.41s-3.9-.45-5.53-1.35c-1.63-.9-2.81-2.17-3.54-3.8-.73-1.63-1.09-3.89-1.09-6.77v-19.36h8.09v14.06c0,4.3.15,6.94.45,7.91s.84,1.74,1.63,2.3c.79.57,1.79.85,3,.85,1.38,0,2.62-.38,3.72-1.14,1.1-.76,1.84-1.7,2.25-2.82.4-1.12.6-3.88.6-8.25v-12.91h8.09v30.59h-7.52Z"/>
    <path class="cls-1" d="m617.17,118.52h-8.1v-30.59h7.52v4.35c1.29-2.05,2.44-3.41,3.47-4.06,1.03-.65,2.19-.98,3.5-.98,1.84,0,3.62.51,5.33,1.53l-2.51,7.06c-1.36-.88-2.63-1.33-3.8-1.33s-2.09.31-2.88.94c-.79.62-1.41,1.75-1.86,3.38-.45,1.63-.68,5.05-.68,10.26v9.45Z"/>
    <path class="cls-1" d="m630.5,102.79c0-2.69.66-5.29,1.99-7.81,1.33-2.52,3.2-4.44,5.63-5.76,2.43-1.33,5.14-1.99,8.14-1.99,4.63,0,8.42,1.5,11.38,4.51,2.96,3.01,4.44,6.8,4.44,11.39s-1.49,8.46-4.48,11.51c-2.99,3.04-6.75,4.57-11.28,4.57-2.8,0-5.48-.63-8.02-1.9-2.54-1.27-4.48-3.13-5.81-5.57-1.32-2.45-1.99-5.43-1.99-8.95Zm8.3.43c0,3.03.72,5.36,2.16,6.97,1.44,1.61,3.22,2.42,5.33,2.42s3.88-.81,5.32-2.42c1.43-1.61,2.15-3.96,2.15-7.03s-.72-5.3-2.15-6.91c-1.43-1.61-3.2-2.42-5.32-2.42s-3.89.81-5.33,2.42c-1.44,1.61-2.16,3.94-2.16,6.97Z"/>
    <path class="cls-1" d="m668.19,87.92h7.55v4.49c.98-1.54,2.3-2.78,3.97-3.75,1.67-.96,3.52-1.44,5.56-1.44,3.55,0,6.57,1.39,9.05,4.18,2.48,2.79,3.72,6.66,3.72,11.64s-1.25,9.08-3.74,11.91c-2.5,2.83-5.52,4.25-9.08,4.25-1.69,0-3.22-.34-4.59-1.01-1.37-.67-2.82-1.82-4.34-3.46v15.41h-8.1v-42.23Zm8.01,14.78c0,3.44.68,5.98,2.04,7.62,1.36,1.64,3.03,2.46,4.98,2.46s3.45-.75,4.7-2.26c1.25-1.51,1.87-3.98,1.87-7.42,0-3.21-.64-5.59-1.93-7.14-1.29-1.56-2.88-2.33-4.78-2.33s-3.62.76-4.93,2.29c-1.31,1.53-1.96,3.79-1.96,6.78Z"/>
    <path class="cls-1" d="m722.17,108.78l8.07,1.35c-1.04,2.96-2.67,5.21-4.91,6.76s-5.04,2.32-8.4,2.32c-5.32,0-9.26-1.74-11.81-5.21-2.02-2.78-3.02-6.3-3.02-10.54,0-5.07,1.32-9.04,3.97-11.91,2.65-2.87,6-4.31,10.05-4.31,4.55,0,8.14,1.5,10.77,4.51,2.63,3.01,3.89,7.61,3.77,13.81h-20.28c.06,2.4.71,4.27,1.96,5.6,1.25,1.33,2.8,2,4.67,2,1.27,0,2.33-.35,3.2-1.04s1.52-1.81,1.96-3.34Zm.46-8.18c-.06-2.34-.66-4.12-1.82-5.34s-2.55-1.83-4.21-1.83c-1.77,0-3.23.64-4.38,1.93-1.15,1.29-1.72,3.03-1.7,5.24h12.1Zm-10.34-16.42l3.98-8.61h9.07l-7.92,8.61h-5.13Z"/>
    <path class="cls-1" d="m754.99,108.78l8.07,1.35c-1.04,2.96-2.67,5.21-4.91,6.76s-5.04,2.32-8.4,2.32c-5.32,0-9.26-1.74-11.81-5.21-2.02-2.78-3.02-6.3-3.02-10.54,0-5.07,1.32-9.04,3.97-11.91,2.65-2.87,6-4.31,10.05-4.31,4.55,0,8.14,1.5,10.77,4.51,2.63,3.01,3.89,7.61,3.77,13.81h-20.28c.06,2.4.71,4.27,1.96,5.6,1.25,1.33,2.8,2,4.67,2,1.27,0,2.33-.35,3.2-1.04s1.52-1.81,1.96-3.34Zm.46-8.18c-.06-2.34-.66-4.12-1.82-5.34s-2.55-1.83-4.21-1.83c-1.77,0-3.23.64-4.38,1.93-1.15,1.29-1.72,3.03-1.7,5.24h12.1Z"/>
    <path class="cls-1" d="m797.91,118.52h-8.1v-15.61c0-3.3-.17-5.44-.52-6.41-.35-.97-.91-1.72-1.69-2.26-.78-.54-1.71-.81-2.81-.81-1.4,0-2.66.38-3.77,1.15-1.11.77-1.88,1.79-2.29,3.05s-.62,3.61-.62,7.03v13.86h-8.09v-30.59h7.52v4.49c2.67-3.46,6.03-5.19,10.08-5.19,1.79,0,3.42.32,4.9.96,1.48.64,2.6,1.46,3.36,2.46.76,1,1.29,2.13,1.58,3.4s.45,3.08.45,5.44v19.01Z"/>
    <path class="cls-1" d="m833.95,118.52h-8.1v-15.61c0-3.3-.17-5.44-.52-6.41-.35-.97-.91-1.72-1.69-2.26-.78-.54-1.71-.81-2.81-.81-1.4,0-2.66.38-3.77,1.15-1.11.77-1.88,1.79-2.29,3.05s-.62,3.61-.62,7.03v13.86h-8.09v-30.59h7.52v4.49c2.67-3.46,6.03-5.19,10.08-5.19,1.79,0,3.42.32,4.9.96,1.48.64,2.6,1.46,3.36,2.46.76,1,1.29,2.13,1.58,3.4s.45,3.08.45,5.44v19.01Z"/>
    <path class="cls-1" d="m859.88,108.78l8.07,1.35c-1.04,2.96-2.67,5.21-4.91,6.76s-5.04,2.32-8.4,2.32c-5.32,0-9.26-1.74-11.81-5.21-2.02-2.78-3.02-6.3-3.02-10.54,0-5.07,1.32-9.04,3.97-11.91,2.65-2.87,6-4.31,10.05-4.31,4.55,0,8.14,1.5,10.77,4.51,2.63,3.01,3.89,7.61,3.77,13.81h-20.28c.06,2.4.71,4.27,1.96,5.6,1.25,1.33,2.8,2,4.67,2,1.27,0,2.33-.35,3.2-1.04s1.52-1.81,1.96-3.34Zm.46-8.18c-.06-2.34-.66-4.12-1.82-5.34s-2.55-1.83-4.21-1.83c-1.77,0-3.23.64-4.38,1.93-1.15,1.29-1.72,3.03-1.7,5.24h12.1Z"/>
  </g>
  <text class="cls-4" transform="translate(320.45 194.5)"><tspan x="0" y="0">NextGenerationEU</tspan></text>
</svg>