<?xml version="1.0" encoding="UTF-8"?>
<svg id="Calque_1" data-name="Calque 1" xmlns="http://www.w3.org/2000/svg" viewBox="0 0 559.2 423.85">
  <defs>
    <style>
      .cls-1 {
        fill: none;
      }

      .cls-2 {
        fill: #f5c500;
      }

      .cls-3 {
        fill: #1d1d1b;
      }
    </style>
  </defs>
  <path class="cls-3" d="m83.69,142.3c-16.19,0-28.86,12.67-28.86,28.85s12.68,28.77,28.86,28.77,28.86-12.64,28.86-28.77-12.68-28.85-28.86-28.85Zm0,44.24c-8.47,0-14.15-6.18-14.15-15.39s5.69-15.46,14.15-15.46,14.15,6.21,14.15,15.46-5.69,15.39-14.15,15.39Z"/>
  <path class="cls-3" d="m150.5,199.93c15.48,0,23.32-7.31,23.32-21.72v-35.66c0-.09,0-.18,0-.25h-13.83c-.08,0-.13,0-.16,0,0,.06,0,.16,0,.24v37.41c0,5.71-4.74,8.31-9.15,8.31s-9.14-2.6-9.14-8.31v-37.33c0-.12,0-.25,0-.33-.07,0-.17,0-.25,0h-14.17v35.07c0,14.55,8.31,22.56,23.4,22.56Z"/>
  <path class="cls-3" d="m214.06,182.89c.07.1,6.32,9.96,9.22,15.5.77,1.54,1.03,1.54,1.5,1.54h15.22c.15,0,.4-.02.47-.14.05-.09.14-.46-.59-1.67-2.75-4.46-5.52-9.18-7.74-12.97-1.81-3.08-3.38-5.75-4.37-7.32l-.2-.32.34-.16c5.1-2.43,7.81-7.86,7.81-15.69,0-9.63-6.18-19.35-19.96-19.35h-26.8c-.12,0-.21,0-.21.44v56.75c0,.18,0,.34,0,.44h.34s14.11,0,14.11,0c.25,0,.31-.02.33-.03,0,0,.02-.1.02-.41v-16.58l10.41-.18.1.16Zm-10.51-10.91v-17.54h8.85c4.79,0,7.64,3.12,7.64,8.33s-2.88,8.77-7.53,8.94l-8.95.27Z"/>
  <path class="cls-3" d="m32.95,170.51l-1.75-.18,1.69-.48c6.5-1.83,10.07-6.3,10.07-12.57,0-9.38-6.21-14.98-16.6-14.98H1.4c-.69,0-.69.11-.69.52v56.24c0,.2,0,.74.07.83.03.02.15.03.36.03h27.36c9.78,0,16.09-6.08,16.09-15.48,0-6.17-4.08-13.15-11.64-13.95Zm-17.53-16.84h6.72c3.77,0,5.84,2.08,5.84,5.84s-2.18,5.84-5.84,5.84h-6.72v-11.68Zm7.59,34.9h-7.59v-13.31h7.59c3.63,0,6.26,2.82,6.26,6.7,0,4.14-2.34,6.61-6.26,6.61Z"/>
  <path class="cls-3" d="m343.22,142.3c-16.18,0-28.87,12.67-28.87,28.85s12.68,28.77,28.87,28.77,28.86-12.64,28.86-28.77-12.67-28.85-28.86-28.85Zm0,44.24c-8.47,0-14.16-6.18-14.16-15.39s5.69-15.46,14.16-15.46,14.14,6.21,14.14,15.46-5.68,15.39-14.14,15.39Z"/>
  <path class="cls-3" d="m415.35,312.8s.13.03.47.03h14.18s.08,0,.1,0c0-.1,0-.27,0-.43v-56.75c0-.17,0-.34,0-.44-.03,0-.06,0-.11,0h-.33s-13.85,0-13.85,0c-.34,0-.45.02-.49.04,0,.03-.02.17-.02.4v20.62h-20.2v-20.62c0-.31-.02-.4-.03-.43-.02,0-.08-.01-.32-.01h-14.33s-.08,0-.11,0c-.01.1-.01.27-.01.44v56.75c0,.16,0,.34.01.43.03,0,.06,0,.1,0h.33s14.01,0,14.01,0c.24,0,.32-.02.34-.03,0,0,.02-.09.02-.4v-23.04h20.2v23.04c0,.29.02.38.03.4Z"/>
  <path class="cls-3" d="m88.64,312.82c.39,0,.43,0,.43-.87v-19.29l20.59.17c.7,0,.81-.13.87-.65.22-3.49.22-7.05,0-11.53,0-.46-.13-.71-.77-.71l-20.68.26v-12.34l23.26.17c.22,0,.3-.01.32-.03,0,0,0-.13,0-.28l.03-.26c.35-3.49.23-8.28,0-11.61l-.03-.23c0-.11-.03-.25-.04-.3,0,0-.06,0-.28,0h-37.66c-.21,0-.28.01-.29.02-.06.09-.06.59-.06.76v55.84c0,.62.04.81.07.88,0,0,0,0,0,0,.04,0,14.25,0,14.25,0Z"/>
  <path class="cls-3" d="m154.08,295.79c.07.1,6.33,9.96,9.22,15.51.76,1.54,1.03,1.54,1.51,1.54h15.22c.15,0,.4-.02.47-.14.05-.08.15-.46-.58-1.67-2.73-4.41-5.47-9.08-7.68-12.83-1.85-3.14-3.44-5.86-4.46-7.45l-.2-.32.34-.16c5.12-2.43,7.82-7.85,7.82-15.69,0-9.63-6.17-19.35-19.96-19.35h-26.79c-.12,0-.22,0-.22.44v56.75c0,.17,0,.34,0,.44h14.45c.24,0,.31-.02.33-.03,0,0,.02-.11.02-.41v-16.58l10.4-.19.1.16Zm-10.5-10.91v-17.54h8.85c4.79,0,7.65,3.12,7.65,8.33s-2.89,8.76-7.55,8.93l-8.95.27Z"/>
  <path class="cls-3" d="m244.33,312.15c-1.75-3.72-23.2-46.7-28.44-56.94-.02,0-.06,0-.16,0-.07,0-.15,0-.23,0-.1,0-.21,0-.32,0-.24,0-.59,0-.73.04-6.36,11.91-19.52,38.47-28.2,56.9-.19.51-.15.64-.14.65,0,0,.06.03.26.03h13.78c.93,0,.98-.15,1.19-.69.33-.8,2.3-5.74,2.92-7.16l.08-.2h20.54l.08.21c.55,1.37,1.94,4.84,3.07,7.37.18.42.36.47.68.47h15.51-.01c.2,0,.26-.03.26-.03,0-.01.05-.14-.14-.65Zm-36.13-17.5l.21-.47,5.95-13.29,6.42,13.76h-12.58Z"/>
  <path class="cls-3" d="m340.83,312.83c13.64,0,22.22-9.06,25.43-16.81.05-.16.06-.29.01-.37-.05-.1-.24-.19-.51-.24l-12.36-3.38c-.08-.02-.15-.03-.21-.03-.12,0-.15.02-.32.31l-.08.15c-2.14,4.55-6.33,7.07-11.79,7.07-7,0-14.07-4.73-14.07-15.3,0-9.21,5.68-15.64,13.81-15.64,5.71,0,9.86,2.59,12.31,7.68.04.11.11.26.14.3.02-.01.07-.02.19-.06l12.25-4.77c.12-.06.4-.2.05-1.03-2.05-4.66-8.63-15.5-25.26-15.5s-28.45,12.44-28.45,28.94,12.41,28.69,28.86,28.69Z"/>
  <path class="cls-3" d="m28.86,423.85c13.65,0,22.23-9.06,25.43-16.81.05-.16.06-.29.02-.37-.06-.1-.24-.19-.5-.24l-12.36-3.38c-.08-.02-.15-.03-.22-.03-.11,0-.14.02-.3.3l-.09.16c-2.13,4.55-6.33,7.07-11.8,7.07-7,0-14.06-4.73-14.06-15.3,0-9.2,5.69-15.64,13.83-15.64,5.7,0,9.84,2.58,12.31,7.67.04.11.1.26.14.3.01-.01.07-.02.19-.06l12.24-4.77c.13-.07.39-.2.05-1.04-2.05-4.66-8.63-15.5-25.27-15.5S0,378.66,0,395.16s12.41,28.69,28.86,28.69Z"/>
  <path class="cls-3" d="m93.45,366.22c-16.18,0-28.86,12.67-28.86,28.86s12.68,28.77,28.86,28.77,28.86-12.64,28.86-28.77-12.68-28.86-28.86-28.86Zm0,44.24c-8.46,0-14.15-6.18-14.15-15.38s5.68-15.47,14.15-15.47,14.15,6.21,14.15,15.47-5.69,15.38-14.15,15.38Z"/>
  <path class="cls-3" d="m173.56,398.31l.52,25.2c0,.32,0,.34.33.34h13.67c.22,0,.27-.04.27-.04.03-.05.01-.25,0-.39,0-.12-.02-.27-.02-.41-.61-21.2-1.11-35.06-2.26-56.41,0-.23-.11-.37-.15-.39.01.01-.02,0-.05,0-.13,0-.29.07-.4.18-8.01,7.74-21.96,22.39-25.38,26.47l-.25.3-.26-.29c-3.87-4.38-18.56-19.13-25.56-26.05-.19-.19-.28-.23-.37-.23-.06.04-.18.17-.24.63-.93,20.73-1.54,41.29-1.68,56.38v.18c.1-.01.24-.03.42-.03h12.57q.59,0,.59-.83l.6-24.69.56.56c.1.1,9.77,9.84,13,13.16.08.08.28.3.36.32.02,0,.18-.08.43-.32,3.3-3.32,12.64-12.98,12.73-13.07l.56-.58Z"/>
  <path class="cls-3" d="m243.64,378.09s0-.07,0-.25v-11.1c0-.36-.03-.46-.05-.49,0,0-.05-.03-.3-.03h-45.5c-.26,0-.32.03-.33.04-.01.04-.01.28-.01.48v11.35s.12.01.27.01l15.46-.18v45.49c0,.17,0,.34.01.43.03,0,.07,0,.14,0h.37s14.19,0,14.19,0c.3,0,.39-.02.42-.04,0-.01.02-.1.02-.4v-45.49l15.04.18c.18,0,.24-.01.26-.02Z"/>
  <path class="cls-3" d="m243.9,89.74h-15.05c-.68,0-1.02-.17-1.78-1.7-2.89-5.53-9.1-15.3-9.1-15.3l-9.77.17v16.06c0,.68-.08.77-.67.77h-13.94c-.68,0-.68.08-.68-.77v-56.09c0-.86.42-.77.68-.77h26.35c13.09,0,20.06,9.01,20.06,19.46,0,7.82-2.72,13.34-7.9,15.81,2.2,3.49,7.04,12.07,11.97,20.06,1.03,1.7.77,2.3-.16,2.3Zm-27.29-44.96h-8.42v16.66l8.51-.25c4.59-.17,7.13-3.57,7.13-8.5,0-4.5-2.29-7.9-7.22-7.9Z"/>
  <path class="cls-3" d="m364.53,89.74c-.32,0-.56-.17-.8-.25l-9.02-5.28c-3.34,2.92-6.83,5.53-14.88,5.53-17.39,0-28.45-11.71-28.45-28.78s12.69-28.85,28.85-28.85c13.09,0,20.49,6.58,24.38,14.95.33.73.41,1.3-.15,1.46l-11.95,4.55c-.57.24-.98-.17-1.22-.66-1.8-3.65-5.53-6.33-10.89-6.33-8.86,0-13.82,6.09-13.82,14.95s5.28,14.79,13.58,14.79c6.99,0,10.65-4.55,11.63-10.32.08-.49.32-.82.65-.82h12.19c.49,0,.66.17.66.57v24.14s0,.33-.74.33Z"/>
  <path class="cls-3" d="m396.51,89.74h-14.11c-.77,0-.77.08-.77-.77v-56.09c0-.86,0-.77.77-.77h14.11c.77,0,.86.08.86.77v56.09c0,.68-.09.77-.86.77Z"/>
  <path class="cls-3" d="m440.83,89.74c-16.22,0-28.5-12.85-28.5-28.78s12.28-28.85,28.5-28.85,28.51,12.92,28.51,28.85-12.29,28.78-28.51,28.78Zm0-43.73c-8.67,0-13.48,6.58-13.48,14.95s4.82,14.87,13.48,14.87,13.49-6.5,13.49-14.87-4.98-14.95-13.49-14.95Z"/>
  <path class="cls-3" d="m530.44,89.71c-.16.08-.4,0-.73-.24-12.16-9.1-31.17-26.58-31.17-26.58v26.04q0,.73-.72.73h-12.17c-.57,0-.8-.49-.8-.81-.4-20.53-.32-34.73,0-56,0-.41.09-.57.24-.65.16-.16.41-.08.65.08,11.52,8.21,31.26,26.5,31.26,26.5v-25.56c0-.89,0-.97.64-.97h12.25c.8,0,.8.16.8.97.32,15.71.24,38.69,0,55.44,0,.56,0,.97-.24,1.04Z"/>
  <path class="cls-3" d="m300.3,312.8c-.16.08-.41,0-.73-.24-12.17-9.1-31.17-26.58-31.17-26.58v26.05q0,.73-.72.73h-12.17c-.57,0-.8-.49-.8-.81-.4-20.54-.32-34.74,0-56,0-.4.08-.57.24-.65.17-.16.41-.08.65.08,11.52,8.22,31.26,26.5,31.26,26.5v-25.56c0-.89,0-.97.64-.97h12.25c.8,0,.8.16.8.97.32,15.7.24,38.69,0,55.44,0,.56,0,.96-.24,1.04Z"/>
  <path class="cls-3" d="m438.07,199.93c-.32,0-.56-.17-.81-.25l-9.02-5.28c-3.33,2.92-6.82,5.53-14.87,5.53-17.39,0-28.45-11.7-28.45-28.77s12.69-28.85,28.85-28.85c13.1,0,20.49,6.58,24.39,14.96.33.73.41,1.3-.16,1.46l-11.95,4.55c-.57.24-.98-.17-1.22-.65-1.79-3.65-5.53-6.34-10.89-6.34-8.86,0-13.82,6.1-13.82,14.96s5.28,14.79,13.58,14.79c6.99,0,10.65-4.55,11.62-10.32.08-.49.33-.81.65-.81h12.19c.49,0,.65.16.65.57v24.14s0,.33-.74.33Z"/>
  <path class="cls-3" d="m303.8,199.93c-.32,0-.56-.17-.81-.25l-9.02-5.28c-3.34,2.92-6.83,5.53-14.88,5.53-17.39,0-28.45-11.7-28.45-28.77s12.69-28.85,28.85-28.85c13.1,0,20.5,6.58,24.39,14.96.33.73.41,1.3-.16,1.46l-11.94,4.55c-.58.24-.98-.17-1.22-.65-1.79-3.65-5.53-6.34-10.89-6.34-8.87,0-13.82,6.1-13.82,14.96s5.27,14.79,13.58,14.79c6.99,0,10.65-4.55,11.63-10.32.08-.49.32-.81.64-.81h12.19c.49,0,.65.16.65.57v24.14s0,.33-.73.33Z"/>
  <path class="cls-3" d="m297.85,423.85h-40.52c-.85,0-.93-.17-.93-1.19v-55.59c0-.77-.09-.85.76-.85h40.62c.85,0,.94.09.94,1.11v10.37c0,.76-.26,1.18-.94,1.18l-26.51-.25v9.6h23.1c.76,0,.86.17.86,1.19v10.37c0,1.02-.09,1.19-.86,1.19h-23.1v9.86l26.58-.25q.94,0,.94,1.1v10.96c0,1.02-.09,1.19-.94,1.19Z"/>
  <path class="cls-3" d="m297.85,89.74h-40.52c-.85,0-.93-.17-.93-1.2v-55.58c0-.77-.09-.85.76-.85h40.62c.85,0,.94.09.94,1.11v10.37c0,.76-.26,1.18-.94,1.18l-26.51-.25v9.6h23.1c.76,0,.86.17.86,1.19v10.37c0,1.02-.09,1.19-.86,1.19h-23.1v9.86l26.58-.25q.94,0,.94,1.1v10.96c0,1.02-.09,1.2-.94,1.2Z"/>
  <path class="cls-3" d="m501.82,199.9c-.16.08-.4,0-.73-.24-12.16-9.1-31.17-26.58-31.17-26.58v26.04q0,.73-.72.73h-12.17c-.57,0-.8-.49-.8-.81-.4-20.54-.32-34.74,0-56,0-.41.09-.57.24-.65.16-.16.41-.07.65.09,11.52,8.22,31.26,26.5,31.26,26.5v-25.56c0-.89,0-.97.64-.97h12.25c.8,0,.8.16.8.97.32,15.71.24,38.69,0,55.44,0,.56,0,.96-.24,1.04Z"/>
  <path class="cls-3" d="m486.77,312.83h-40.53c-.85,0-.93-.17-.93-1.19v-55.58c0-.77-.08-.85.76-.85h40.62c.86,0,.94.09.94,1.11v10.37c0,.76-.26,1.18-.94,1.18l-26.51-.25v9.6h23.1c.77,0,.86.17.86,1.19v10.37c0,1.02-.09,1.18-.86,1.18h-23.1v9.86l26.59-.25q.94,0,.94,1.1v10.96c0,1.02-.09,1.19-.94,1.19Z"/>
  <path class="cls-3" d="m558.26,199.93h-40.52c-.85,0-.93-.17-.93-1.19v-55.58c0-.77-.09-.85.76-.85h40.62c.86,0,.94.08.94,1.11v10.37c0,.76-.26,1.18-.94,1.18l-26.51-.25v9.6h23.09c.77,0,.86.17.86,1.19v10.37c0,1.02-.09,1.19-.86,1.19h-23.09v9.86l26.58-.25q.94,0,.94,1.11v10.96c0,1.02-.09,1.19-.94,1.19Z"/>
  <rect class="cls-2" x="254.36" y="333.48" width="46.38" height="12.17"/>
  <rect class="cls-2" x="254.36" y="221.74" width="46.38" height="12.17"/>
  <rect class="cls-2" x="254.36" y="110.09" width="46.38" height="12.17"/>
  <rect class="cls-2" x="254.36" width="46.38" height="12.17"/>
  <rect class="cls-1" x="131.58" y="366.22" width="4.62" height=".4"/>
</svg>