<?xml version="1.0" encoding="UTF-8"?>
<svg id="Calque_1" data-name="Calque 1" xmlns="http://www.w3.org/2000/svg" viewBox="0 0 610.49 610.49">
  <defs>
    <style>
      .cls-1 {
        fill: #fff;
      }

      .cls-2 {
        fill: #231f20;
      }
    </style>
  </defs>
  <g id="surface1">
    <path class="cls-2" d="m610.49,610.49V0H0v610.49h610.49"/>
    <path class="cls-1" d="m144.74,114.09s27.09,4.81,48.98-22.13c21.89-26.92,9.98-48.47,9.98-48.47,0,0-23.36-2.1-44.89,23.04-21.51,25.14-14.07,47.56-14.07,47.56"/>
    <path class="cls-1" d="m117.25,140s3.86,27.24-23.8,48.18c-27.66,20.96-48.79,8.31-48.79,8.31,0,0-1.31-23.42,24.57-44.09,25.88-20.62,48.03-12.4,48.03-12.4"/>
    <path class="cls-1" d="m111.93,112.44s5.55-24.5-19.37-48.75c-24.93-24.29-47.65-19.61-47.65-19.61,0,0-5.64,25.37,18.72,50.21s48.3,18.14,48.3,18.14"/>
    <path class="cls-1" d="m510.55,241.71c30.73,8.71,58.92,23.46,58.92,23.46,0,0-23.4,30.22-59.24,45.68-35.88,15.45-47.44,6.19-47.44,6.19,0,0,18.46,9.77,33.66,37.2,15.18,27.45,13.8,45.53,13.8,45.53-76.13-19.48-148.54-52.06-212.84-97.39-62.27-43.9-115.41-99.41-157.99-162.44,60.87,45.08,127.41,61.06,196.99,65.47,110.98,7.04,168.14-52.78,168.14-52.78,0,0,4.66,12.51-8.05,45.53-12.74,33.06-29.61,42.31-29.61,42.31,0,0,12.95-7.46,43.66,1.25"/>
    <path class="cls-1" d="m86.92,439.25s.11,2.44.11,3.03c0,.53-.19.61-.7.95-1.12.78-4.09,1.4-5.3,1.4-4.51,0-7.74-2.18-10.43-7.21l-8.16-15.45c-.87-1.74-1.82-2.35-3.56-2.52-3.82-.36-5.55-.53-6.34-.53-1.21,0-1.38.78-1.38,1.93v21.87c0,.59,0,1.04-.78,1.04-.53,0-3.48-.17-3.9-.25-.45.08-3.48.25-4.09.25-.53,0-.53-.08-.53-.36,0-.42.45-1.29.45-1.91v-55.47c0-1.12.34-1.48.95-1.57,4.18-.68,13.1-1.29,19.44-1.29,10.43,0,18.16,5.47,18.16,17.8,0,7.27-4.01,13.27-9.14,15.54-.87.34-1.21.7-1.21,1.21,0,.34.17.78.53,1.38,2.08,3.92,5.55,9.73,7.63,13.29,1.74,2.86,3.22,3.56,4.77,3.56,1.76,0,2.61-.78,3.22-.78.42,0,.53.36.53.78,0,.45-.28,3.31-.28,3.31Zm-26.13-48.79c-3.2,0-6.76.25-8.5.53-1.04.17-1.48.25-1.48,1.29,0,1.29.36,2.78.36,5.81v9.73c0,2.35.34,3.48,2.78,4.07,1.46.36,3.65.61,6.34.61,6.76,0,11.11-3.65,11.11-10.77s-3.65-11.28-10.6-11.28"/>
    <path class="cls-1" d="m141.18,419.71c-.51,1.74-1.12,2.18-2.69,2.18h-20.39c-2.27,0-3.14.25-3.14,1.82,0,7.72,4.96,13.18,12.51,13.18,4.68,0,10.07-2.16,12.34-4.77.42-.42.78-.61,1.12-.61.42,0,.61.25.61.87,0,.87-.36,3.65-.36,3.65,0,0,.11,2.61.11,3.39,0,.53-.11.87-.61,1.31-3.14,2.42-9.39,3.9-14.41,3.9-13.54,0-20.33-8.41-20.33-22.57,0-13.12,7.04-22.32,19.71-22.32,9.3,0,16.41,4.79,16.41,14.67,0,1.4-.42,3.84-.87,5.3Zm-16.07-13.97c-5.72,0-9.71,4.6-9.71,9.98,0,1.04.25,1.48.95,1.48.78,0,1.82-.78,2.61-.78h12.84c1.38,0,2.16-.45,2.16-3.05,0-4.77-4.07-7.63-8.86-7.63Zm9.73-21.2l-4.35,8.35c-1.99,3.9-1.55,4.07-2.86,4.07h-4.43c-.68,0-.76-.17-.76-.51,0-.45.59-.7,1.12-2.69l2.42-9.05c.45-1.46.36-1.99.97-1.99.51,0,1.04.11,1.82.11h5.19c.61,0,1.23,0,1.23.59,0,.36-.08.7-.36,1.12"/>
    <path class="cls-1" d="m192.24,405.04c0,1.74,1.48,5.13,1.48,8.5,0,8.77-6.08,13.9-13.82,13.9-1.55,0-1.99,1.21-1.99,3.56,0,4.94,11.3,8.58,11.3,17.7,0,7.12-5.57,11.3-13.57,11.3-1.74,0-2.95-.08-4.15-.45-.7-.17-.78-.34-.87-.87-.08-.87-.45-2.95-.45-2.95,0,0-.68-2.95-.68-3.31,0-.42.17-.59.59-.59.53,0,3.05.95,5.04.95,3.12,0,5.21-1.31,5.21-4.09,0-6.15-10.96-8.58-10.96-17.19,0-1.99,1.31-3.12,1.31-3.98v-.53c0-.87-.08-1.12-1.57-2.16-3.56-2.52-5.02-6.51-5.02-10.85,0-8.33,5.47-13.8,14.5-13.8,3.12,0,12.93.51,14.67.51.45,0,.7.45.7.7,0,.87-1.74,1.46-1.74,3.65Zm-13.29.45c-4.26,0-7.04,3.2-7.04,8.33,0,4.43,2.1,8.33,6.87,8.33s7.21-3.73,7.21-8.44c0-6.15-2.78-8.22-7.04-8.22"/>
    <path class="cls-1" d="m226.09,443.77c-.87,0-3.98-.25-3.98-.25,0,0-2.8.25-3.65.25-.7,0-.87-.25-.87-.95,0-.53.08-1.31.08-2.27v-32.64c0-2.16-.28-4.6-.28-5.81s.28-1.4,1.14-1.4c.51,0,3.37.28,3.37.28,0,0,2.69-.28,3.39-.28.78,0,.95.17.95.95,0,.61-.17,1.65-.17,2.69v32.05c0,3.65.61,5.64.61,6.59,0,.53-.19.78-.61.78Zm-1.57-50.95h-5.38c-.76,0-1.04-.53-1.04-1.31,0-.7.17-1.65.17-2.61,0-.7-.17-1.46-.17-2.08,0-.78.17-1.21.95-1.21h5.38c.7,0,.95.42.95,1.12,0,.78-.25,1.63-.25,2.25,0,.87.25,1.91.25,2.69,0,.7-.17,1.14-.87,1.14"/>
    <path class="cls-1" d="m268.99,444.64c-14.16,0-20.16-8.77-20.16-22.74,0-7.57,3.56-14.16,7.04-17.21,4.51,0,6-4.94,14.07-4.94,11.45,0,18.65,7.46,18.65,23.1,0,14.67-8.05,21.79-19.61,21.79Zm-.36-38.13c-6.85,0-10.68,6.27-10.68,15.64,0,10.07,4.09,15.62,10.77,15.62s10.85-4.85,10.85-14.92c0-11.02-3.98-16.34-10.94-16.34"/>
    <path class="cls-1" d="m347.82,443.77c-.61,0-3.39-.25-3.39-.25,0,0-2.69.25-3.22.25-.95,0-1.04-.17-1.04-1.21,0-.7.08-1.82.08-2.52v-17.89c0-10.07-2.78-15.11-9.81-15.11-7.97,0-10.32,6.34-10.32,15.11v18.14c0,.51.08,2.08.08,2.52,0,.7-.17.95-1.12.95-.61,0-3.31-.25-3.31-.25,0,0-2.16.25-2.95.25-.87,0-1.21,0-1.21-.87,0-.7.08-1.65.08-2.44v-20.05c0-5.21,1.12-7.55,2.08-9.28.34-.61.53-1.12.53-1.57,0-.7-.53-1.38-1.4-2.16l-3.65-3.31c-.53-.42-.78-.87-.78-1.29,0-.36.17-.61.53-.78l2.95-1.91c.45-.28.53-.36.95-.36.34,0,.7.28.95.45l4.18,2.95c.59.42,1.12.53,1.55.53.61,0,1.31-.45,2.01-.87,3.48-2.18,6.51-3.05,11.11-3.05,8.44,0,15.98,5.74,15.98,20.67v17.8c0,1.99.17,3.37.17,4.35s-.17,1.21-1.04,1.21"/>
    <path class="cls-1" d="m33.19,575.05c-10.28,0-18.23-2.73-23.44-9.24-1.42-1.82-1.57-2.08-3.65-2.08H1.29c-1.04,0-1.29-.4-1.29-2.1v-77.47c.06-.19.15-.28.38-.28.38,0,1.42.4,1.82.4,1.95,0,17.83-1.44,29.82-1.44,17.7,0,27.47,7.67,27.47,22.28,0,7.29-3.52,14.05-8.86,17.19-1.17.64-1.7,1.17-1.7,2.08,0,.78.66,1.29,1.82,1.7,8.48,2.61,13.82,11.06,13.82,21.36,0,17.95-12.38,27.6-31.39,27.6Zm-3.52-79.44c-4.68,0-9.24.25-10.68.53-1.29.25-1.55.78-1.55,2.86v18.1c0,1.44.13,2.08,1.95,2.08h9.75c6.91,0,12.25-2.99,12.25-12.38,0-7.67-5.34-11.19-11.72-11.19Zm-.78,36.58h-9.24c-.91,0-1.04-1.17-1.7-1.17-.38,0-.51.66-.51,3.26v11.34c0,9.37,4.03,16,13.93,16,8.58,0,13.54-5.72,13.54-15.09,0-11.21-7.29-14.35-16.02-14.35"/>
    <path class="cls-1" d="m146.1,565.41s.25,4.43.25,5.21c0,1.04-.38,1.57-1.29,1.95-3.65,1.57-5.87,2.48-9.9,2.48-8.48,0-13.82-3.65-18.23-12.38l-10.81-21.49c-1.06-2.08-1.97-2.71-4.18-2.86-6.63-.51-5.21-.38-6-.38-1.7,0-1.95.91-1.95,2.61v31.24c0,1.31-.13,1.95-1.42,1.95-1.19,0-7.69-.51-7.95-.51-.4,0-7.04.51-8.2.51-.78,0-.91-.25-.91-.64,0-.91.78-2.35.78-3.26v-82.43c0-1.7.64-2.23,1.55-2.33,7.44-1.31,20.98-2.23,31.77-2.23,16.55,0,28.27,7.95,28.27,26.71,0,10.81-5.74,19.92-13.67,23.7-1.19.51-1.57,1.04-1.57,1.57,0,.38.25.91.66,1.67,2.61,5.09,6.25,11.47,8.84,16.15,2.61,4.56,5.47,6.13,7.95,6.13,3.14,0,4.3-1.44,5.6-1.44.66,0,.91.4.91,1.19,0,.91-.51,6.89-.51,6.89Zm-40.76-68.89c-3.77,0-7.69.4-10.03.78-1.19.13-1.82.4-1.82,2.08,0,1.97.51,4.83.51,8.48v11.85c0,3.12.4,4.43,3.39,5.19,1.82.53,4.3.78,7.29.78,8.46,0,14.33-4.94,14.33-14.46s-4.56-14.71-13.67-14.71"/>
    <path class="cls-1" d="m222.17,566.57c-1.04,0-4.81-.25-5.09-.25-1.42,0-1.95.25-3.5,1.44-7.29,5.47-17.06,7.29-26.18,7.29-20.33,0-32.43-10.56-32.43-29.04,0-13.54,7.55-19.29,7.55-23.7,0-3.52-2.33-7.82-2.33-13.95,0-17.32,14.18-26.03,30.61-26.03,8.31,0,16.79,1.02,22.64,4.28,1.31.78,1.57,1.04,1.57,2.23,0,.91-1.7,6.51-1.7,6.51,0,0-.13,7.93-1.04,7.93,0,0-1.17-.25-2.08-1.02-3.39-2.73-9.9-4.71-16.28-4.71-9.39,0-15.77,3.65-15.77,12.25,0,5.72,2.1,8.2,7.69,8.2h20.45c1.82,0,1.95.25,1.95,1.95,0,.91-.28,5.72-.28,5.72,0,0,.4,5.21.4,6.51,0,1.57-.66,1.57-2.08,1.57h-24.1c-5.47,0-7.82,4.05-7.82,9.11,0,9.77,5.34,16.28,17.59,16.28,11.19,0,16.79-7.04,16.79-13.14,0-1.19.13-1.57,1.19-1.57.91,0,5.19.13,5.19.13,0,0,6-.25,6.91-.25,1.17,0,1.44.13,1.44,1.57,0,1.95-.28,8.86-.28,8.86,0,0,.4,8.33.4,10.41,0,.91-.4,1.42-1.44,1.42"/>
    <path class="cls-1" d="m294.13,499.26c-1.42,0-4.03-.25-8.08-.25h-11.32c-3.39,0-3.77,1.17-3.77,3.39v50c0,5.34,1.7,6.51,3.77,6.51s4.03-1.82,5.21-1.82c.64,0,1.04.13,1.04,1.31v5.85s.78,5.21.78,6c0,1.04-.28,1.29-1.31,1.95-2.99,1.82-9.62,2.86-12.51,2.86-10.28,0-15.37-5.34-15.37-16.41v-51.84c0-1.8,1.44-5.19,1.44-6.51,0-.76-.78-1.42-2.48-1.42-1.29,0-9.62.13-9.88.13-1.97,0-10.7.53-11.74.53-1.29,0-1.55-.53-1.55-1.44,0-1.04.25-7.04.25-7.04,0,0-.4-4.43-.4-5.47,0-1.57.4-1.82,2.08-1.82h56.53c5.74,0,6.66-1.57,8.08-1.57.25,0,.78.15.78.78,0,1.44-.28,6.78-.28,6.78,0,0,.4,6.89.4,7.95,0,1.29-.4,1.55-1.7,1.55"/>
    <path class="cls-1" d="m378.76,572.7c-2.48,1.31-7.02,2.35-10.41,2.35-6.78,0-11.85-2.99-14.33-11.32l-3.92-12.91c-.38-1.42-.38-5.6-3.5-5.6-1.19,0-4.56,1.82-6.38,1.82l-13.57.13c-2.99,0-3.9.28-4.81,3.39l-4.81,16.53c-1.44,5.09-.78,7.42-3.01,7.42-1.29,0-7.27-.91-7.27-.91h-9.01c-1.17,0-1.29-.38-1.29-1.29,0-1.17,1.17-3.52,2.2-6.76l21.77-70.86c2.86-9.24,1.29-10.94,7.02-10.94,1.19,0,7.82.4,7.82.4,0,0,7.82-.4,8.46-.4,3.92,0,4.43.13,7.29,9.37l18.1,57.31c1.82,5.72,3.54,7.67,6.13,7.67,1.57,0,3.01-.91,3.65-.91s.91.4.91,1.44c0,1.29-.38,5.47-.38,5.47,0,0,.66,5.34.66,6.51,0,1.29-.15,1.44-1.31,2.08Zm-33.47-42.58l-5.85-19.39c-2.73-9.11-3.65-9.64-5.21-9.64-1.31,0,.13,2.1-2.08,9.64l-5.62,19.65c-.13.4-.25.81-.25,1.06,0,.91.66,1.29,2.08,1.29h15.37c1.44,0,1.82-.25,1.82-.91,0-.38,0-.91-.25-1.7"/>
    <path class="cls-1" d="m454.58,535.59v20.58s.28,6.91.28,9.9c0,1.7-.53,1.7-1.44,1.7-1.19,0-7.16-.38-8.86-.38-1.57,0-2.73.38-3.52,1.02-4.94,4.18-13.01,6.66-21.87,6.66-21.22,0-33.59-12.51-33.59-45.85s15.37-46.86,34.89-46.86c7.95,0,16.28,2.08,20.96,6.23.81.78,1.72,1.19,2.88,1.19,1.67,0,5.72-.13,6.63-.13.53,0,.91.64.91,1.17,0,1.17-.13,10.15-.13,10.15,0,0,.25,9.9.25,10.94,0,1.31-.13,1.57-1.29,1.57-.91,0-5.87-.25-5.87-.25l-5.85.64c-.78,0-1.29-.13-1.29-1.04,0-10.03-6.91-15.09-14.2-15.09-15.11,0-17.97,16-17.97,30.71,0,27.62,8.84,31.01,17.72,31.01,9.88,0,14.56-4.56,14.56-10.96v-2.84c0-2.23-.76-3.39-2.86-3.39h-6.51c-1.29,0-2.46.51-2.99.51,0,0-.91-.38-.91-.78,0-1.55.38-6.51.38-6.51,0,0-.13-4.15-.13-5.47,0-.64.28-1.17,1.95-1.17h27.34c1.57,0,2.1.53,2.1,1.17,0,.91-1.57,3.39-1.57,5.6"/>
    <path class="cls-1" d="m549.79,572.19c-2.48,1.42-7.29,2.86-11.06,2.86-10.05,0-16.02-5.47-16.02-18.76v-29.42c0-18.89-3.26-28.4-16.81-28.4s-16.38,11.98-16.38,28.25v39.85c0,1.19.11,3.92.11,4.83,0,1.95-.25,2.33-1.67,2.33-.66,0-7.44-.51-7.44-.51,0,0-7.02.51-8.18.51-.91,0-1.31-.64-1.31-1.95,0-1.42.13-3.39.13-4.94v-42.58c0-7.42,1.19-14.07,3.65-18.89.51-1.04,1.42-3.26,1.42-4.43,0-1.42-.76-2.61-2.46-4.18l-5.62-5.07c-.38-.25-1.67-1.82-1.82-2.08-.25-.53-.51-1.06-.51-1.44,0-.53.25-.91.91-1.29l5.34-3.39c.28-.15,2.73-1.7,3.01-1.82.51-.28.91-.28,1.42-.28.78,0,1.44.28,2.2.78l6.13,4.71c1.04.76,2.23,1.29,3.24,1.29,1.31,0,3.79-.91,4.83-1.44,4.96-2.46,9.77-4.41,15.64-4.41,19.25,0,32.56,10,32.56,41.27v29.31c0,4.15,1.42,5.98,3.62,5.98,2.61,0,4.05-1.82,5.21-1.82.78,0,1.06.25,1.06,1.44s-.4,6.13-.4,6.13c0,0,.51,4.28.51,5.6,0,1.04-.25,1.29-1.29,1.95"/>
    <path class="cls-1" d="m595.51,559.16c-12.23,0-17.57-6.51-17.57-16.28,0-5.07,2.35-9.11,7.82-9.11h24.74v-15.71c-.21-.02-.38-.04-.66-.04h-20.43c-5.62,0-7.69-2.48-7.69-8.2,0-8.61,6.38-12.25,15.75-12.25,4.73,0,9.47,1.08,13.04,2.73v-16.11c-4.92-1.31-10.53-1.84-16.15-1.84-16.41,0-30.61,8.71-30.61,26.03,0,6.13,2.35,10.43,2.35,13.95,0,4.41-7.55,10.15-7.55,23.7,0,18.48,12.1,29.04,32.41,29.04,6.57,0,13.46-.97,19.54-3.54v-19.54c-2.46,3.96-7.42,7.19-14.99,7.19"/>
  </g>
</svg>