<?xml version="1.0" encoding="UTF-8"?>
<svg id="Calque_1" data-name="Calque 1" xmlns="http://www.w3.org/2000/svg" xmlns:xlink="http://www.w3.org/1999/xlink" viewBox="0 0 626.08 209.49">
  <defs>
    <style>
      .cls-1 {
        mask: url(#mask);
      }

      .cls-2 {
        fill: #010101;
      }

      .cls-3 {
        fill: #fff;
      }

      .cls-4 {
        fill: #ffd544;
      }

      .cls-5 {
        fill: #262f81;
      }
    </style>
    <mask id="mask" x="423.88" y="46.79" width="209.85" height="153.24" maskUnits="userSpaceOnUse">
      <g>
        <g>
          <rect class="cls-3" x="424.97" y="47.88" width="207.68" height="151.07"/>
          <path class="cls-2" d="m631.56,48.96v148.9h-205.51V48.96h205.51m2.17-2.17h-209.85v153.24h209.85V46.79h0Z"/>
        </g>
        <rect class="cls-2" x="445.03" y="61.95" width="7.16" height="112.36"/>
      </g>
    </mask>
  </defs>
  <g>
    <rect class="cls-5" width="626.08" height="209.49"/>
    <g>
      <path class="cls-3" d="m124.4,28.79h6.37v29.4s19.06,0,19.06,0v5.6h-25.43s0-35,0-35Z"/>
      <path class="cls-3" d="m170.68,63.8v-3.25c-1.86,2.15-4.71,3.8-8.86,3.8-5.18,0-9.74-2.85-9.74-8.15v-.1c0-5.7,4.71-8.5,11.08-8.5,3.31,0,5.44.45,7.56,1.1v-.65c0-3.65-2.38-5.65-6.73-5.65-3.06,0-5.33.65-7.82,1.65l-1.71-4.85c3-1.3,5.96-2.2,10.41-2.2,8.08,0,12.01,4.1,12.01,11.15v15.65h-6.21Zm.16-11.2c-1.61-.6-3.83-1.05-6.27-1.05-3.94,0-6.27,1.55-6.27,4.25v.1c0,2.5,2.33,3.9,5.28,3.9,4.14,0,7.25-2.25,7.25-5.55v-1.65Z"/>
      <path class="cls-3" d="m220.24,63.8l-8.91-12.2h-7.98v12.2h-6.37V28.8h16.16c8.34,0,13.47,4.25,13.47,11.1,0,5.8-3.57,9.3-8.65,10.65l9.79,13.25h-7.51Zm-7.61-29.4h-9.27v11.75h9.32c4.56,0,7.46-2.3,7.46-5.9,0-3.85-2.8-5.85-7.51-5.85Z"/>
      <path class="cls-3" d="m243.56,59.45c3.06,0,5.23-1.1,7.41-3.15l3.68,3.15c-2.59,3-6.16,4.95-11.19,4.95-7.92,0-14.03-5.55-14.03-13.75,0-7.6,5.54-13.8,13.36-13.8,8.7,0,13.1,6.6,13.1,14.25,0,.55-.05,1.05-.1,1.65h-20.09c.73,4.3,3.83,6.7,7.87,6.7Zm6.11-10.7c-.41-3.9-2.8-6.95-6.94-6.95-3.83,0-6.53,2.85-7.1,6.95h14.03Zm-9.79-14.7l5.49-8.2,5.7,2.45-6.32,5.75h-4.87Z"/>
      <path class="cls-3" d="m271.84,71.9c-4.51,0-8.7-1.1-12.22-3.15l2.33-4.55c2.9,1.75,6.01,2.8,9.74,2.8,5.59,0,8.65-2.8,8.65-8.1v-2.05c-2.28,2.85-5.13,4.85-9.63,4.85-6.42,0-12.43-4.55-12.43-12.4s6.06-12.45,12.43-12.45c4.61,0,7.46,2.05,9.58,4.5v-3.95h6.27v21c0,9.35-5.28,13.5-14.71,13.5Zm.52-29.95c-4.35,0-7.77,2.9-7.77,7.3s3.47,7.35,7.77,7.35,8.03-2.95,8.03-7.3c0-4.45-3.68-7.35-8.03-7.35Z"/>
      <path class="cls-3" d="m291.95,33.35v-5.75h6.73v5.75h-6.73Zm.26,30.45v-26.4h6.27v26.4h-6.27Z"/>
      <path class="cls-3" d="m316.97,64.4c-8.34,0-14.5-6.15-14.5-13.7,0-7.6,6.21-13.85,14.6-13.85,8.39,0,14.55,6.15,14.55,13.75s-6.21,13.8-14.66,13.8Zm0-22.25c-5.02,0-8.23,3.8-8.23,8.45,0,4.7,3.47,8.55,8.34,8.55s8.29-3.8,8.29-8.45c0-4.7-3.47-8.55-8.39-8.55Z"/>
      <path class="cls-3" d="m341.81,63.81h-6.27v-26.4h6.27v4.1c1.76-2.5,4.3-4.65,8.54-4.65,6.16,0,9.74,4,9.74,10.15v16.8h-6.27v-15c0-4.1-2.12-6.45-5.85-6.45s-6.16,2.45-6.16,6.55v14.9Z"/>
    </g>
    <g>
      <path class="cls-3" d="m72.88,162.14c-29.78,0-50.27-20.9-50.27-49.17v-.27c0-27.18,21.17-49.45,50.13-49.45,17.21,0,27.59,4.64,37.56,13.11l-13.25,15.98c-7.38-6.15-13.93-9.7-25-9.7-15.3,0-27.45,13.52-27.45,29.78v.27c0,17.48,12.02,30.32,28.96,30.32,7.65,0,14.48-1.91,19.81-5.74v-13.66h-21.17v-18.17h41.52v41.52c-9.83,8.33-23.36,15.16-40.84,15.16Z"/>
      <path class="cls-3" d="m167.43,107.64c-13.8,0-22.26,8.33-22.26,25.82v27.04h-20.76v-73.21h20.76v14.75c4.23-10.11,11.06-16.66,23.36-16.12v21.72h-1.09Z"/>
      <path class="cls-3" d="m213.95,160.5v-7.92c-5.05,5.6-12.02,9.29-22.13,9.29-13.8,0-25.13-7.92-25.13-22.4v-.27c0-15.98,12.16-23.36,29.5-23.36,7.38,0,12.7,1.23,17.89,3v-1.23c0-8.61-5.33-13.39-15.71-13.39-7.92,0-13.52,1.5-20.22,3.96l-5.19-15.84c8.06-3.55,15.98-5.87,28.41-5.87,22.67,0,32.65,11.75,32.65,31.55v42.48h-20.08Zm.41-29.5c-3.55-1.64-8.2-2.73-13.25-2.73-8.88,0-14.34,3.55-14.34,10.11v.27c0,5.6,4.64,8.88,11.34,8.88,9.7,0,16.25-5.33,16.25-12.84v-3.69Z"/>
      <path class="cls-3" d="m291.37,160.5v-40.84c0-9.83-4.64-14.89-12.57-14.89s-12.98,5.05-12.98,14.89v40.84h-20.76v-73.21h20.76v10.38c4.78-6.15,10.93-11.75,21.45-11.75,15.71,0,24.86,10.38,24.86,27.18v47.4h-20.76Z"/>
      <path class="cls-3" d="m375.78,160.5v-10.52c-5.05,6.83-12.02,11.88-22.81,11.88-17.07,0-33.33-13.39-33.33-37.84v-.27c0-24.45,15.98-37.84,33.33-37.84,11.06,0,17.89,5.05,22.81,10.93v-36.06h20.76v99.71h-20.76Zm.27-36.74c0-12.16-8.06-20.22-17.76-20.22s-17.89,7.92-17.89,20.22v.27c0,12.16,8.2,20.22,17.89,20.22s17.76-8.06,17.76-20.22v-.27Z"/>
    </g>
    <g class="cls-1">
      <g>
        <path class="cls-3" d="m527.2,161.87c-10.25,0-21.72-3.42-31.42-11.06l8.88-13.66c7.92,5.74,16.25,8.74,23.08,8.74,6.01,0,8.74-2.18,8.74-5.46v-.27c0-4.51-7.1-6.01-15.16-8.47-10.25-3-21.86-7.78-21.86-21.99v-.27c0-14.89,12.02-23.22,26.77-23.22,9.29,0,19.4,3.14,27.32,8.47l-7.92,14.34c-7.24-4.23-14.48-6.83-19.81-6.83s-7.65,2.18-7.65,5.05v.27c0,4.1,6.97,6.01,14.89,8.74,10.25,3.42,22.13,8.33,22.13,21.72v.27c0,16.25-12.16,23.63-28,23.63Z"/>
        <path class="cls-3" d="m587.35,161.73c-12.7,0-21.31-5.05-21.31-21.99v-34.69h-8.74v-17.76h8.74v-18.71h20.76v18.71h17.21v17.76h-17.21v31.28c0,4.78,2.05,7.1,6.69,7.1,3.82,0,7.24-.96,10.24-2.6v16.66c-4.37,2.59-9.42,4.23-16.39,4.23Z"/>
      </g>
    </g>
    <path class="cls-4" d="m113.72,177.74s442.03-8.38,441.48,1.05c-.64,10.89-441.48-1.05-441.48-1.05Z"/>
  </g>
  <g>
    <path class="cls-3" d="m450.43,61.03h37.41s-.06,20.78-.06,20.78h-37.41s.06-20.78.06-20.78Z"/>
    <path class="cls-3" d="m442.7,61.07v99.72s-20.78-.09-20.78-.09V60.98s20.78.09,20.78.09Z"/>
    <path class="cls-3" d="m450.33,99.52h37.41s-.06,20.78-.06,20.78h-37.41s.06-20.78.06-20.78Z"/>
    <path class="cls-3" d="m450.22,140.06h37.41s-.06,20.78-.06,20.78h-37.41s.06-20.78.06-20.78Z"/>
  </g>
</svg>