<?xml version="1.0" encoding="UTF-8"?>
<svg id="Logo_Région_HDF" data-name="Logo Région HDF" xmlns="http://www.w3.org/2000/svg" viewBox="0 0 1275.6 284.01">
  <defs>
    <style>
      .cls-1 {
        fill: #fff;
      }

      .cls-2 {
        fill: #0f4496;
      }

      .cls-3 {
        fill: #95c11f;
      }
    </style>
  </defs>
  <rect class="cls-2" x="283.55" width="992.05" height="283.9"/>
  <g>
    <rect class="cls-1" x="1.5" y="1.64" width="281.03" height="280.88"/>
    <path class="cls-2" d="m281.03,3.14v277.88H3V3.14h278.03m3-3H0v283.88h284.03V.14h0Z"/>
  </g>
  <g>
    <path class="cls-3" d="m184.09,26.89c-12.73,0-24.37,5.17-32.74,13.73,3.15,2.83,6.76,6.02,10.03,8.79,5.9-5.77,13.93-9.24,22.71-9.24,17.94,0,32.54,14.59,32.54,32.54,0,8.81-3.31,16.78-9.55,23.03l-61.08,61.19-50.52-50.61c-4.7,1.61-9.53,2.92-14.96,3.82l60.78,60.88c1.25,1.25,3.35,2.78,4.7,2.78s3.45-1.54,4.7-2.78l65.78-65.89c8.79-8.8,13.44-20.01,13.44-32.42,0-25.26-20.55-45.82-45.81-45.82Z"/>
    <path class="cls-2" d="m249.51,100.42c-6.19-1.04-12.06-2.3-17.72-3.75-3.33,5.56-5.18,7.98-8.43,11.49,4.61,1.33,9.34,2.52,14.23,3.54-.67,1.04-1.32,2.08-1.97,3.1-22.03,34.58-36.79,57.77-14.89,102.1-4.5,5.05-11.32,9.96-20.02,14.4-12.5-4.92-23.77-7.41-33.54-7.41-19.33,0-29.94,9.7-34.17,20.33-32.79-2.97-53.09-19.62-60.48-26.86,14.92-24.26,18.73-46.93,11.33-67.43-7.94-22.01-27.56-34.1-39.27-39.3-.19-1.91-.45-5.86-.77-8.06,6.3,1.13,12.56,1.7,18.72,1.7h0c28.02,0,55.19-12.01,79.24-34.86-2.96-2.29-6.29-5.19-10.02-8.78-21.42,20.14-44.64,30.35-69.21,30.36h0c-8.21,0-16.69-1.17-25.18-3.48-2.22-.6-5.89-1.51-7.61.11-1.66,1.56-1.09,5.35-.64,7.61,1.32,6.61,2.38,16.97,2.48,20.09.14,4.57.52,4.89,4.73,6.36,4.95,1.74,27.04,10.59,35.04,32.76,6.34,17.58,2.03,37.75-12.74,60.01-2.45,3.69-2.34,4.35.33,7.81,1.06,1.37,27,33.15,78.61,35.6,6.15.29,5.82-.33,6.82-5.4,1.92-9.69,10.15-15.26,22.79-15.26,8.74,0,19.21,2.62,31.25,7.53,2.56,1.05,2.93,1.05,5.42-.14,14.03-6.68,24.18-14.48,30.17-23.08,2.16-3.1,2.12-3.72.43-6.91-21.19-40.02-9.93-57.63,12.37-92.64,2.32-3.64,4.73-7.45,7.23-11.44,2.74-4.37,3.18-8.76-4.55-10.06Z"/>
    <path class="cls-2" d="m76.82,82.39c-.96-3.1-1.47-6.35-1.47-9.68,0-17.94,14.59-32.54,32.53-32.54,7.41,0,14.3,2.45,19.82,6.72,11.32,9.17,16.18,14.72,24.97,22.2,13.88,11.81,28.37,21.37,42.77,28.38,2.53-2.66,5.9-6.35,9.39-10.26-15.28-6.96-31.85-18.21-45.39-29.81-7.44-6.38-16.68-14.85-19.51-17.46,0,0,0,0,0,0-8.31-8.15-19.66-13.05-32.05-13.05-25.26,0-45.81,20.56-45.81,45.82,0,3.72.45,7.37,1.3,10.89,4.36.02,9.06-.41,13.44-1.21Z"/>
  </g>
  <g>
    <path class="cls-3" d="m370.65,114.7h-18.46c-9.92-17.46-14.52-22.88-18.47-22.88h-6.62v22.88h-14.79V50.65h35.74c13.14,0,17.54,8.18,17.54,18.74,0,9.19-3.85,17.18-15.98,17.83,4.32,1.56,9.09,7.35,21.03,27.47Zm-43.55-35.01h16.45c3.21,0,5.61-2.3,5.61-8s-2.12-8.45-5.43-8.45h-16.63v16.45Z"/>
    <path class="cls-3" d="m415.37,113.42c-4.68,1.56-11.66,2.57-16.99,2.57-13.23,0-23.06-5.79-23.06-25.08s8.64-24.53,22.14-24.53c15.62,0,22.42,4.77,21.13,28.95h-28.75c.18,7.53,3.58,8.91,10.37,8.91,3.41,0,9.56-.64,13.05-1.56l2.11,10.75Zm-26.27-50.91l11.3-11.85h14.43l-13.78,11.85h-11.95Zm.82,22.43h16.35c-.18-6.53-2.29-7.91-7.8-7.91-5.88,0-7.72,1.93-8.55,7.91Z"/>
    <path class="cls-3" d="m445.32,115.71c-12.12,0-18.93-5.14-18.93-24.16s7.17-25.18,23.15-25.18c7.35,0,16.17,1.38,21.31,3.31v41.26c0,18.84-11.12,22.51-26,22.51-6.07,0-12.86-1.2-17.18-2.75l2.48-11.03c4.87,1.29,9.56,2.12,14.42,2.12,7.62,0,12.13-1.93,12.13-8.73-2.76,1.37-6.8,2.66-11.39,2.66Zm11.39-36.84c-2.2-.92-5.06-1.28-7.17-1.28-6.71,0-8.91,1.65-8.91,13.69,0,9.92,1.93,12.59,8.54,12.59,4.13,0,7.54-1.28,7.54-3.31v-21.68Z"/>
    <path class="cls-3" d="m498.04,53.96c0,6.35-2.02,7.45-8,7.45s-7.99-1.1-7.99-7.45c0-5.78,1.93-6.7,7.99-6.7s8,.92,8,6.7Zm-.92,60.74h-14.15v-47.04h14.15v47.04Z"/>
    <path class="cls-3" d="m507.22,90.9c0-19.2,7.81-24.53,22.78-24.53s22.97,5.33,22.97,24.53-7.63,25.08-22.97,25.08-22.78-5.79-22.78-25.08Zm14.24.27c0,11.86,1.93,13.79,8.54,13.79s8.64-1.93,8.64-13.79-1.93-13.78-8.64-13.78-8.54,1.47-8.54,13.78Z"/>
    <path class="cls-3" d="m577.4,114.7h-14.15v-44.11c6.07-2.2,15.44-4.23,23.89-4.23,12.96,0,19.39,5.42,19.39,22.33v26h-14.16v-24.9c0-8.54-1.37-10.84-8.27-10.84-2.29,0-4.41.28-6.7.83v34.92Z"/>
  </g>
  <g>
    <path class="cls-1" d="m332.24,241.37h-19.59v-84.22h19.59v30.69h31.89v-30.69h19.59v84.22h-19.59v-35.53h-31.89v35.53Z"/>
    <path class="cls-1" d="m455.53,238.22c-8.4,3.03-20.45,4.84-29.58,4.84-20.56,0-26.64-4.35-26.64-20.54,0-17.4,9.49-20.18,24.33-20.18,4.63,0,9.38.6,14.12,1.57,0-8.58-1.95-11-14.12-11-7.18,0-14.11,1.33-19.35,2.9l-2.92-14.75c7.18-1.8,17.52-3.26,26.78-3.26,18.62,0,27.38,5.68,27.38,24.05v36.37Zm-28.11-8.94c3.53,0,7.42-.6,10.34-1.69v-11.72c-2.79-.72-6.32-.85-10.1-.85-6.7,0-9.13.73-9.13,6.89s1.58,7.37,8.89,7.37Z"/>
    <path class="cls-1" d="m509.08,179.5h18.5v58.12c-7.92,2.78-20.45,5.55-31.51,5.55-17.29,0-25.57-7.25-25.57-29.36v-34.31h18.51v32.87c0,11.11,1.95,14.26,11.07,14.26,3.04,0,5.72-.49,9-1.21v-45.91Z"/>
    <path class="cls-1" d="m565.44,195.44v23.09c0,6.29,1.83,8.81,8.4,8.81,3.89,0,7.07-.72,9.98-1.69l3.04,14.26c-4.63,1.93-12.05,3.14-18.74,3.14-13.75,0-21.42-4.11-21.42-22.59v-25.02h-10.1v-15.94h10.1v-9.18l18.74-7.49v16.68h19.47v15.94h-19.47Z"/>
    <path class="cls-1" d="m637.38,194.96c-4.87-1.32-12.05-2.65-18.38-2.65-5.84,0-8.76.48-8.76,5.32,0,3.26,1.71,4.11,11.31,5.31,14.48,1.82,20.93,6.17,20.93,18.85,0,16.8-12.16,21.27-27.87,21.27-6.7,0-16.43-1.33-22.15-3.39l3.65-14.01c4.63,1.32,11.56,2.54,17.65,2.54,7.3,0,10.71-.61,10.71-5.45,0-3.38-2.07-4.71-12.41-5.68-13.02-1.2-19.96-4.95-19.96-18.13,0-16.79,12.04-21.14,27.62-21.14,6.7,0,15.46,1.33,21.3,3.4l-3.65,13.76Z"/>
    <path class="cls-1" d="m649.8,198.11h32v17.75h-32v-17.75Z"/>
    <path class="cls-1" d="m749.59,238.7c-6.82,2.54-18.5,4.35-28.24,4.35-21.17,0-30.66-7.49-30.66-32.88s10.95-32.38,26.41-32.38c6.09,0,10.23,1.21,13.76,2.67v-26.35h18.74v84.58Zm-18.74-41.08c0-2.67-4.26-4.71-9.74-4.71-8.76,0-11.56,3.86-11.56,17.03,0,14.99,2.93,17.53,11.8,17.53,3.17,0,7.19-.49,9.5-1.46v-28.39Z"/>
    <path class="cls-1" d="m816.3,239.67c-6.2,2.06-15.45,3.39-22.51,3.39-17.53,0-30.55-7.62-30.55-32.99s11.44-32.26,29.33-32.26c20.69,0,29.7,6.29,27.99,38.07h-38.1c.25,9.91,4.75,11.72,13.76,11.72,4.5,0,12.65-.85,17.28-2.06l2.8,14.14Zm-33.71-37.45h21.66c-.24-8.58-3.04-10.4-10.34-10.4-7.79,0-10.22,2.54-11.32,10.4Z"/>
    <path class="cls-1" d="m828.6,198.11h32.01v17.75h-32.01v-17.75Z"/>
    <path class="cls-1" d="m935.7,157.14v17.03h-42.23v19.59h31.27v16.67h-31.27v30.94h-19.59v-84.22h61.82Z"/>
    <path class="cls-1" d="m943.74,179.5h18.75v4.84c2.06-3.64,6.08-6.53,15.09-6.53,1.83,0,4.02.12,6.21.37v17.27c-2.44-.72-5.72-.96-8.76-.96-6.7,0-12.54,2.17-12.54,6.28v40.6h-18.75v-61.87Z"/>
    <path class="cls-1" d="m1045.85,238.22c-8.4,3.03-20.45,4.84-29.58,4.84-20.57,0-26.65-4.35-26.65-20.54,0-17.4,9.49-20.18,24.34-20.18,4.62,0,9.38.6,14.12,1.57,0-8.58-1.95-11-14.12-11-7.18,0-14.11,1.33-19.35,2.9l-2.92-14.75c7.19-1.8,17.53-3.26,26.78-3.26,18.62,0,27.38,5.68,27.38,24.05v36.37Zm-28.11-8.94c3.53,0,7.43-.6,10.34-1.69v-11.72c-2.8-.72-6.33-.85-10.1-.85-6.69,0-9.13.73-9.13,6.89s1.59,7.37,8.89,7.37Z"/>
    <path class="cls-1" d="m1080.06,241.37h-18.74v-58.01c8.03-2.89,20.45-5.56,31.64-5.56,17.16,0,25.68,7.13,25.68,29.36v34.21h-18.74v-32.75c0-11.24-1.83-14.26-10.95-14.26-3.04,0-5.85.36-8.89,1.08v45.93Z"/>
    <path class="cls-1" d="m1182.17,239.91c-4.98,2.06-13.39,3.14-19.6,3.14-18.61,0-31.04-7.62-31.04-32.99s12.54-32.26,31.04-32.26c6.45,0,14.73.97,19.6,2.67l-3.9,15.7c-3.52-1.33-9-2.53-14.11-2.53-9.12,0-13.74,1.57-13.74,16.79s4.62,16.67,13.74,16.67c5.35,0,10.59-1.33,14.11-2.78l3.9,15.59Z"/>
    <path class="cls-1" d="m1242.06,239.67c-6.2,2.06-15.46,3.39-22.52,3.39-17.53,0-30.55-7.62-30.55-32.99s11.44-32.26,29.33-32.26c20.68,0,29.69,6.29,27.99,38.07h-38.09c.24,9.91,4.75,11.72,13.75,11.72,4.51,0,12.66-.85,17.28-2.06l2.8,14.14Zm-33.71-37.45h21.66c-.24-8.58-3.04-10.4-10.34-10.4-7.79,0-10.23,2.54-11.32,10.4Z"/>
  </g>
</svg>