<?xml version="1.0" encoding="UTF-8"?>
<svg id="Calque_1" data-name="Calque 1" xmlns="http://www.w3.org/2000/svg" viewBox="0 0 359.14 86.12">
  <defs>
    <style>
      .cls-1 {
        fill: #fff;
      }

      .cls-2 {
        fill: #ffdc00;
      }

      .cls-3 {
        fill: #d20a28;
      }

      .cls-4 {
        fill: #720918;
      }
    </style>
  </defs>
  <rect class="cls-1" width="359.14" height="86.12"/>
  <g>
    <path d="m119.88,25.83c0-1.89-.68-6.27-6.8-6.27h-.03l-7.5.02.05,19.33h1.61s-.02-6.45-.02-6.45h5.2c.52-.01,1.04-.04,1.52-.08l4.81,6.5h2.01s-5.13-6.86-5.13-6.86c2.81-.85,4.29-2.98,4.28-6.19Zm-12.69,5.1l-.03-9.79h5.84s.02-.01.03-.01c1.79,0,3.15.48,4.04,1.43.75.8,1.15,1.95,1.15,3.31.01,4.17-3.18,5.05-5.85,5.06h-5.17Z"/>
    <polygon points="127.6 37.3 127.58 30.24 137.26 30.21 137.26 28.68 127.58 28.71 127.56 21.09 138.89 21.06 138.88 19.5 125.94 19.53 125.99 38.86 139.49 38.83 139.48 37.27 127.6 37.3"/>
    <polygon points="138.2 14.13 136.18 13.95 131.44 18.74 133.25 18.74 138.2 14.13"/>
    <path d="m153.69,29.49v1.53s7.56-.02,7.56-.02v4.17c-1.88,1.39-4.21,2.13-6.75,2.14h-.02c-4.69,0-8.5-3.65-8.52-8.15,0-2.17.88-4.21,2.48-5.76,1.61-1.55,3.74-2.4,6.01-2.41h.03c2.54,0,4.84.82,6.47,2.31l.23.21,1.09-1.18-.23-.21c-1.95-1.8-4.56-2.74-7.56-2.74h-.04c-2.7,0-5.24,1.03-7.16,2.88-1.92,1.85-2.98,4.31-2.97,6.91.01,5.37,4.57,9.73,10.15,9.73h.03c3.07,0,6.08-1.04,8.26-2.82l.12-.1-.02-6.51-9.17.02Z"/>
    <rect x="169.23" y="19.42" width="1.61" height="19.33" transform="translate(-.07 .44) rotate(-.15)"/>
    <path d="m187.11,19.29h-.03c-2.71,0-5.26,1.03-7.17,2.88-1.92,1.85-2.97,4.3-2.96,6.91.01,5.37,4.57,9.73,10.15,9.73h.03c5.59-.01,10.12-4.4,10.1-9.79,0-2.6-1.07-5.05-2.98-6.89-1.91-1.83-4.45-2.84-7.14-2.84Zm0,1.59c4.67,0,8.48,3.65,8.49,8.15.01,4.49-3.79,8.16-8.47,8.17h-.02c-4.69,0-8.5-3.64-8.52-8.12,0-2.17.88-4.22,2.48-5.77,1.61-1.56,3.75-2.42,6.01-2.42h.02Z"/>
    <polygon points="219.28 19.29 217.67 19.29 217.71 35.54 204.45 19.33 203.32 19.33 203.37 38.66 204.98 38.66 204.94 22.41 218.13 38.51 218.23 38.62 219.33 38.62 219.28 19.29"/>
  </g>
  <g>
    <polygon points="123.92 46.17 123.97 65.42 108.26 46.21 105.57 46.22 105.64 72.62 109.39 72.62 109.34 53.37 125.08 72.57 127.73 72.57 127.67 46.16 123.92 46.17"/>
    <path d="m147.62,46.01h-.04c-3.68,0-7.15,1.4-9.75,3.92-2.62,2.53-4.05,5.88-4.04,9.44.02,7.33,6.22,13.28,13.83,13.28h.04c3.68,0,7.14-1.4,9.74-3.92,2.6-2.52,4.03-5.88,4.02-9.44-.02-7.33-6.2-13.28-13.79-13.28Zm0,22.89c-2.67,0-5.19-1-7.09-2.81-1.9-1.8-2.95-4.2-2.95-6.74-.01-5.3,4.48-9.62,10.02-9.63h.03c5.51,0,10,4.29,10.01,9.58,0,2.55-1.02,4.95-2.89,6.76-1.89,1.83-4.41,2.83-7.1,2.84h-.03Z"/>
    <path d="m187.51,54.89c0-2.49-.76-4.61-2.19-6.14-1.67-1.8-4.14-2.71-7.35-2.71h-.04l-10.44.03.07,26.4h3.75s-.02-8.25-.02-8.25h5.81c.52-.02,1.04-.03,1.54-.07l6.12,8.27h4.67s-6.89-9.22-6.89-9.22c3.23-1.41,4.97-4.3,4.96-8.32Zm-16.23,5.68l-.03-10.83,6.62-.02h.03c2.05,0,3.58.52,4.54,1.56,1.02,1.1,1.24,2.59,1.24,3.66,0,1.95-.56,3.35-1.71,4.27-1.11.89-2.77,1.34-4.93,1.35h-5.77Z"/>
    <polygon points="216.47 45.93 206.46 62.39 196.37 45.99 193.57 45.99 193.64 72.4 197.39 72.39 197.35 54.59 206.48 69.48 215.51 54.55 215.55 72.34 219.3 72.33 219.23 45.93 216.47 45.93"/>
    <path d="m235.42,45.89l-11.84,26.43h4.1s3.03-6.94,3.03-6.94l12.05-.03,3.1,6.91h4.06s-11.94-26.38-11.94-26.38h-2.56Zm-3.14,15.91l4.41-10.07,4.51,10.05-8.92.02Z"/>
    <polygon points="272.49 45.79 272.54 65.03 256.83 45.83 254.14 45.84 254.21 72.24 257.96 72.23 257.91 52.98 273.65 72.19 276.31 72.18 276.24 45.78 272.49 45.79"/>
    <path d="m292.22,45.74h-.04l-8.61.02.07,26.4,9.39-.02h.08c6.97-.47,12.41-6.28,12.39-13.22-.02-7.28-5.98-13.18-13.29-13.18Zm-4.83,22.73l-.05-19.04h4.86s.02-.01.03-.01c2.53,0,4.91.98,6.7,2.77,1.8,1.8,2.8,4.19,2.8,6.74.01,4.88-3.87,9.06-8.86,9.53h-5.48Z"/>
    <rect x="311.63" y="45.68" width="3.75" height="26.4" transform="translate(-.15 .81) rotate(-.15)"/>
    <polygon points="341.72 68.33 326.52 68.37 326.5 61.03 338.88 61 338.87 57.35 326.49 57.38 326.47 49.33 340.96 49.29 340.95 45.61 322.72 45.66 322.78 72.06 341.73 72.01 341.72 68.33"/>
  </g>
  <g>
    <path class="cls-3" d="m95.55,73.58c-24.91-2.49-49.81-4.98-74.72-7.47-5.4-15.65-3.41-34.08,6.17-50.27,20.79-2.08,41.59-4.16,62.38-6.24-7.45,19.99-5.45,43.45,6.17,63.98Z"/>
    <g>
      <path class="cls-4" d="m72.91,28.74c2.48.15,4.71-.77,5.68-2.35.68-1.1.66-2.37-.05-3.58-.83-1.43-2.34-2.42-4.35-2.88-1.8-.41-3.9-.21-5.88.29-.86.22-1.79.49-2.87.86-1.75.6-3.67,1.29-6.1,1.79-1.06.22-2.03-.05-2.39-.23-.06-.03-.22-.27-.19-.38.03-.13.38-.38,1.5-.39,4.92-.04,6.29-2.58,6.43-2.87.07-.14.03-.31-.1-.4-.13-.09-.29-.13-.41-.02-1.02.64-2.84.91-3.19.78-.2-.1-.34-.24-.5-.42-.32-.35-.65-.78-1.66-.89-.14-.02-.39,0-.41.08-.03.08.09.39.19.49.53.51.5.84.44.91-.03.03-.04.46-.33-.06-.6-.99-1.63-.9-2.17-.72-.13.04-.16.04-.16.18,0,.11.09.33.17.39-.58-.11-1.24.2-1.5.47-.09.1,0,.31.07.42.04.06.09.1.15.13-.75.56-1.16,1.26-1.02,2.03.33,1.86,2.26,2.75,5.29,2.42,1.81-.19,3.47-.77,5.4-1.44,1.13-.39,2.41-.84,3.89-1.27,2.37-.68,4.75-.55,6.37.37.81.46,1.34,1.08,1.53,1.79.12.45-.01.97-.35,1.39-.36.44-1.26,1.37-3.33,1.28-1.87-.08-2.9-.26-4.32-.5-1.09-.19-2.45-.42-4.59-.67-1.83-.22-3.46-.13-4.77-.07-.38.02-.74.04-1.07.05-1.41.04-1.88.05-2.81-.09-1.91-.29-3.18-.95-3.26-1.2,0-.16.5-.41,1.03-.51.15-.03.26-.16.26-.31,0-.15-.11-.29-.26-.32-.26-.05-1-.29-1.04-.7-.05-.52-.13-1.06-.33-1.54,0-.01.01-.02.02-.03.32-.59.22-1.15.13-1.44-.04-.14-.16-.47-.36-.57-.22-.11-.98-.06-1.54.39-.83-.35-1.62-.38-1.84-.38-.01,0-.02,0-.03,0h-.02s-.02,0-.02,0c-.01,0-.02,0-.03,0-.23,0-1.07.04-1.93.42-.55-.47-1.35-.54-1.57-.42-.2.1-.32.43-.36.57-.09.28-.19.85.13,1.44.03.06.06.11.09.16-.14.38-.1.85-.15,1.45-.03.3-.8.59-1.14.67-.12.03-.29.06-.31.2-.03.17.14.39.31.43.58.13,1.04.42,1.02.52-.08.45-.91.81-1.18.91-.14.05-.25.13-.23.28s.2.33.35.34c.35.03,1.03.2,1.1.48.02.09-.09.37-.26.56-1.61.04-4.18-.99-4.36-1.06-.81-.4-2.14-1.12-2.39-1.3-.41-.31-1.75-1.52-2.16-2.15-.16-.35-.3-.59-.45-.75-.32-.36-.73-.55-1.23-.57-.1-.14-.19-.27-.24-.33-.33-.43-1.08-.53-2.31-.28-.05-.05-.1-.09-.16-.13-.7-.51-1.79.31-1.9.41-.11.09-.08.24-.02.37.06.13.19.21.34.19.21-.03.47-.02.55.01.05.05.29.44.33.48-.21.11-.42.2-.46.23-.11.08-.09.24-.05.37.04.13.17.22.31.22.32,0,.7.04.78.1.02.02.39.42.4.42,0,.01.02.02.03.03l.13.14c-.22.11-.45.2-.5.23-.11.08-.09.26-.05.39.04.13.18.22.31.22.32,0,.7.04.78.1.01,0,.21.35.22.37.15.36.33.63.54.84.32.31.69.42,1.04.52.35.1.68.2,1,.48.04.03.1.09.19.16.09.07.2.17.34.28.2.16.27.29.27.34,0,.06-.1.08-.21.17-.11.09-.1.31-.04.44.06.13.21.21.35.18.8-.16,1.34,0,1.4.17.04.11-.15.31-.5.55-.13.09-.14.3-.06.45.07.14.25.21.4.15.91-.34,1.66-.25,1.76-.04.05.12-.16.42-.69.77-.14.09-.14.31-.06.46.08.15.27.2.42.13,0,0,.03-.02.04-.02.96-.45,1.78-.37,1.92-.11.11.21-.25.69-.9,1.1-.08.05-.04.13-.06.22s.01.18.07.26c.1.12.26.15.39.08l.06-.03c.86-.44,1.63-.45,1.99-.27.1.05.35.24.35.24,0,0,.12-.08-.2.19-4.45,3.83-5.55,5-6.95,5.48-.07-.02-.13-.03-.19-.05-.2-.05-.4-.11-.71-.13-.25-.02-.6.05-.94.47-.18-.02-.36-.03-.46-.04-.55-.04-1.06.22-1.46,1.1-.2.44-.18,1.04-.18,1.11,0,.12.08.22.18.28.08.04.27.09.75.08.16,0,.3-.13.31-.29,0-.08.04-.21.11-.36-.02.16-.02.29,0,.38.02.15.15.26.3.27.29.02.7,0,.85-.02.09-.01.17-.06.22-.13.05-.08.04-.14.05-.25,0-.14.14-.58.41-.99-.13.46-.17.9-.18,1.05-.01.18.12.33.29.34.09,0,2.19.18,3.08-.08.78-.23.93-.48,1.12-.86.03-.07.07-.14.11-.22.14-.25.25-.41.49-.59,0,0,.02-.01.02-.02.42-.39.89-.52,1.06-.46.09.03.14.15.17.24.04.14.18.23.31.23.14,0,.27-.1.3-.24.17-.68.54-1.1.78-1.07.17.02.33.28.4.64.03.16.18.27.34.25.16-.01.29-.14.3-.3.06-.91.45-1.46.71-1.46,0,0,0,0,0,0,.19,0,.44.32.54.89.03.17.19.28.35.26.17-.02.29-.17.28-.33,0,0,0-.03,0-.04-.02-.6.15-1.17.42-1.46.1-.1.2-.16.3-.16.28,0,.65.43.77,1.18.03.17.19.29.36.27.17-.02.29-.18.28-.35v-.07c-.05-.65.1-1.26.4-1.6.13-.15.27-.23.42-.23.33-.02.68.32.9.87.06.14.2.23.35.2.15-.03.26-.15.27-.31.01-.37.65-.84,1.58-.94.11-.01.23-.02.36-.02.73-.03,1.27-.06,1.56-.26.47-.31.8-.68,1.16-1.08.57-.65,1.22-1.38,2.71-2.13.36-.18,1.91-.66,2.84-.87-.31.14-.55.32-.68.55-.62,1.13-.48,2.24.41,3.4l.13.17c.66.86.69.97.52,1.16-.33.31-.71.61-1.01.84-.19.15-.34.27-.43.35-.1.09-.19.19-.28.28-.21.22-.42.54-.55.55-.06-.01-.12-.03-.17-.04-.19-.05-.37-.1-.67-.12-.23-.02-.56.05-.88.42-.12-.01-.23-.02-.3-.03-.54-.04-1,.2-1.41,1.02-.21.42-.19.99-.19,1.05,0,.12.08.23.19.28.06.03.25.09.75.08.15,0,.27-.1.31-.24.03.14.15.24.29.24.27.02.65,0,.8-.01.09-.01.17-.06.23-.13.05-.08.04-.14.05-.25,0-.14.11-.45.31-.79-.09.38-.13.72-.14.85-.01.18.12.33.29.35.05,0,.74.06,1.48.06.52,0,1.07-.03,1.41-.13.84-.24,1.01-.5,1.16-.99,0-.02.01-.04.01-.07.02-.19.09-.36.23-.52.72-.88,1.52-1.21,1.85-1,.04.03.09.06.15.09.12.08.29.06.39-.04.11-.1.13-.26.05-.39-.19-.33-.25-.62-.15-.73.13-.14.57-.15,1.16.09.08.03.16.03.24,0,0,0,.03-.01.04-.02.11-.06.18-.17.18-.3,0-.13-.08-.24-.2-.28-.66-.27-1.1-.69-1.03-1,.07-.3.59-.54,1.28-.57.16,0,.29-.13.3-.29.02-.16-.08-.3-.24-.34-.11-.03-.22-.06-.34-.1,0,0-.02,0-.03,0-1.04-.22-1.65-.64-1.68-.8,0-.11.41-.49,1.36-.72.1-.02.96.44,1.19.6.75.47,1.62.87,2.6,1.18,1.07.34,4.51.63,4.73.66,0,0,0,0,.02,0,.75.44,1.07,1.65.77,2.25-.14.28-.41.81-.65.83-.07-.02-.14-.03-.2-.05-.21-.05-.41-.1-.74-.12-.25-.02-.61.05-.96.44-.14-.02-.26-.03-.33-.03-.56-.04-1.05.21-1.48,1.05-.22.43-.2,1.02-.19,1.09,0,.12.08.23.19.28.06.03.26.09.77.08.14,0,.26-.09.3-.22.04.13.15.22.29.22.3.02.73,0,.89-.01.09-.01.18-.05.23-.13.04-.06.04-.15.05-.26,0-.13.17-.59.48-.99-.14.46-.19.91-.21,1.06,0,.09.02.17.08.24.06.07.14.11.22.11.06,0,.91.06,1.78.06.61,0,1.22-.03,1.58-.13.7-.19,1.18-.93,1.42-2.18.03-.17.05-.35.06-.55,0-.02,0-.03,0-.05-.05-.49-.07-1.1-.07-1.95,0-1.09.42-1.78.81-1.8h.09c.16-.01.29-.14.3-.3.01-.16-.09-.3-.25-.34-.78-.18-1.09-.48-1.08-.6,0-.08.17-.26.59-.39.02,0,.04-.01.05-.02.02-.01.04-.02.07-.04.14-.07.21-.24.16-.39-.05-.15-.2-.24-.36-.21-.67.12-1.24.01-1.38-.27-.1-.2,0-.5.29-.82.02-.02.04-.05.05-.08l.02-.04c.06-.12.03-.27-.06-.37-.1-.1-.28-.12-.42-.08-.08.02-1.36.8-2.24.82-.12,0-.22,0-.31.01-.65-.03-1.19-.18-1.6-.29-1-.27-1.56-.93-2.1-1.58-.19-.23-.37-.44-.57-.63-.09-.09-.17-.17-.26-.24.16.02.32.03.5.05.66.07,1.57.17,3.37.28Zm-24.67-3.8c.23.1.71.26,1.2.17-.04.11-.09.22-.14.32-.06.12-.12.24-.17.36-.22.5-.37.77-.87.77h-.01s-.02,0-.03,0c-.49,0-.64-.29-.87-.79-.05-.11-.11-.23-.16-.33-.05-.09-.1-.21-.14-.32.49.08.96-.08,1.2-.17Z"/>
      <g>
        <g>
          <path class="cls-2" d="m76.53,32.73c.02-.28.33-.52.8-.68.03-.01.05-.03.08-.04-.81.15-1.5,0-1.72-.43-.18-.34-.03-.77.34-1.19.01-.03.02-.04.02-.04,0,0-1.46.73-2.43.75-.13,0-.22,0-.31.01-.58-.03-1.19-.09-1.69-.22-1.46-.39-2.08-1.57-2.81-2.29-.73-.71-1.16-.79-1.16-.79,0,0-.06-.1.83-.03.89.07,1.59.2,4.18.36,4.17.25,7.03-2.55,5.33-5.45-1.68-2.88-6.1-3.55-9.86-2.59-2.25.57-5.1,1.87-9.05,2.69-1.18.24-2.23-.07-2.6-.25-.37-.18-.93-1.24,1.49-1.26,4.71-.04,6-2.39,6.15-2.69-.16.15-1.47.73-3.41.8-.08,0-.16-.03-.21-.05-.65-.37-.71-1.09-2.05-1.25.73.7.7,1.34.37,1.45-.18.06-.4.06-.56-.14-.73-1.03-1.88-.64-1.88-.64,0,0,.87.28.68.69-.04.06-.15.07-.25.08-.07,0-.17,0-.25-.03-.9-.5-1.51.26-1.51.26,0,0,.62-.12.75.14-.95.46-1.67,1.18-1.5,2.12.34,1.94,2.56,2.41,4.94,2.16,2.82-.3,5.23-1.54,9.24-2.7,4.01-1.16,7.69.09,8.3,2.39.32,1.2-.74,3.01-4.01,2.87-3.36-.14-4.08-.61-8.93-1.18-2.34-.28-4.36-.06-5.79-.02-1.44.04-1.91.05-2.87-.1-.96-.15-3.51-.63-3.54-1.31-.02-.59,1.29-.83,1.29-.83,0,0-1.23-.25-1.3-.98-.06-.61-.18-1.2-.36-1.61.03-.05.06-.09.09-.14.41-.76,0-1.52-.1-1.57-.09-.04-.86-.02-1.33.48-.78-.38-1.6-.44-1.93-.44h0s-.02,0-.02,0c0,0-.02,0-.02,0h0c-.34,0-1.22.07-2.02.49-.46-.54-1.27-.57-1.36-.52-.1.05-.51.82-.1,1.57.06.11.12.2.17.27-.18.42-.27.94-.32,1.52-.05.66-1.26.96-1.27.96,0,0,1.37.32,1.26.89-.13.73-1.34,1.15-1.34,1.15,0,0,1.24.11,1.38.73.06.27-.18.51-.49.86-1.74.11-4.64-1.08-4.64-1.08,0,0-2.13-1.05-2.48-1.35-.55-.47-1.75-1.52-2.15-2.15-.13-.29-.27-.54-.4-.69-.33-.36-.74-.48-1.16-.47-.12-.18-.27-.38-.32-.46-.32-.43-1.39-.29-2.17-.13-.06-.08-.14-.15-.23-.22-.51-.38-1.44.39-1.44.39,0,0,.69-.09.83.12l.6-.22s-.38.23-.33.61c.04.06.08.12.13.19.26-.07,1.4-.42,2.23-.16-.39.12-.76.31-1.06.49-.03-.02-.05-.04-.08-.06-.61-.39-1.61.34-1.61.34,0,0,.74-.02.98.17.03.02.05.04.08.07l.48-.39s-.22.33-.17.72c.04.06.07.09.07.09l.16.17s2.31-.67,2.94-.03c-.62-.13-1.31.16-1.78.43-.02-.01-.03-.02-.05-.04-.61-.39-1.61.34-1.61.34,0,0,.74-.02.98.17.03.02.06.05.09.08l.38-.34s-.22.36-.15.77c.11.26.26.53.47.74.54.52,1.31.36,2.03.99.07.06.27.22.51.43.23.18.38.39.39.57.01.18-.09.35-.27.5.87-.17,1.62-.02,1.76.38.1.29-.13.65-.58.95,1-.38,1.96-.32,2.17.13.16.34-.16.82-.76,1.2.01,0,.03-.01.04-.02,1.02-.48,2.07-.47,2.34.03.23.42-.18,1.05-.93,1.53h0s.04-.02.06-.03c.87-.45,1.76-.53,2.28-.27.98-.63,1.86-1.3,2.29-1.83-.23.66-.97,1.7-2.06,2.77-.29.28-2.18,1.82-2.51,2.13-1.61,1.25-3.28,2.64-3.4,2.69-.39.17-.92.56-1.28.55-.31-.07-.5-.15-.89-.18-.31-.02-.56.18-.77.49-.21-.03-.53-.06-.63-.06-.46-.03-.88.5-1.16,1.12-.18.38-.15.96-.15.96,0,0,.14.06.6.05.03-.38.48-1.29,1.22-1.88-.36.66-.52,1.61-.47,1.89.26.02.66,0,.79-.02,0-.55.72-2.07,1.5-2.01.05,0,.11.01.17.02-.68.23-.82,2.01-.82,2.01,0,0,2.12.18,2.96-.06.84-.25.77-.46,1.04-.93.14-.26.28-.47.58-.69.47-.43,1.05-.64,1.38-.52.18.06.3.22.37.45.21-.8.67-1.37,1.13-1.31.33.04.58.39.68.9.06-1,.52-1.78,1.05-1.76.4.01.72.49.85,1.15,0-.01,0-.03,0-.04-.03-1.06.43-1.93,1.03-1.95.51-.01.96.61,1.09,1.45,0-.03,0-.05,0-.08-.08-1.16.42-2.13,1.13-2.17.49-.03.95.41,1.21,1.07.02-.59.83-1.14,1.87-1.25.13-.01.26-.02.38-.02.61-.02,1.17-.06,1.4-.21,1.16-.75,1.43-1.98,3.89-3.23.44-.23,2.38-.81,3.23-.96,1.74-.4,2.71-.5,3.1-.41.02,0,.05.02.07.02.24.07.49.2.74.39,0,0,0,0,0,0,.76.64,1.5,1.77,1.59,1.91.22.39.07.19.84.72.68.42,1.5.82,2.52,1.14,1.08.35,4.44.61,4.7.65.03.01.06.02.08.03.9.51,1.3,1.91.91,2.68-.19.37-.48.81-.92.8-.33-.07-.52-.14-.93-.17-.32-.02-.59.17-.8.46-.18-.03-.39-.05-.49-.06-.48-.03-.92.48-1.23,1.07-.19.37-.16.93-.16.93,0,0,.14.06.64.05.03-.35.37-1.19,1.09-1.76-.36.63-.52,1.51-.48,1.76.28.02.69,0,.83-.01,0-.47.76-1.99,1.59-1.93.05,0,.12.01.18.02-.71.22-.87,1.93-.87,1.93,0,0,2.43.17,3.26-.05.83-.23,1.11-1.5,1.19-1.93.03-.18.05-.34.06-.5-.05-.54-.07-1.21-.07-1.98,0-1.16.46-2.09,1.11-2.12.03,0,.06,0,.09,0-.8-.18-1.35-.55-1.33-.93Zm-27.11-10.99c.57-.05,1.27.1,1.26.12-.04.12-.09.19-.3.39-.31.29-.48.32-.85.36-.57.05-.88-.31-.91-.64,0-.04.23-.18.8-.23Zm-1.44,1.66c.24,0,.86-.08.86-.08.03,0,.06.02.07.05,0,.03,0,.06-.03.08l-.85.47s-.02.01-.04.01c-.01,0-.02,0-.03,0l-.89-.47s-.05-.05-.04-.08c0-.03.04-.05.07-.05,0,0,.63.08.88.08Zm-2.43-1.15c-.21-.2-.25-.27-.3-.39,0-.02.7-.17,1.26-.12.57.05.8.19.8.23-.03.33-.35.69-.91.64-.37-.04-.54-.07-.85-.36Zm2.44,4.37h-.04c-.88-.02-1.02-.76-1.31-1.29-.21-.38-.38-1.06-.26-.97.66.47,1.6-.03,1.6-.03,0,0,.92.5,1.6.03.12-.08-.05.59-.26.97-.3.54-.42,1.3-1.33,1.29Zm3.62,1.34c-.28.32.06,1.06.45,1.65-1.19-.11-2.46.27-2.56.95,0,.03,0,.07,0,.11-.1-.17-.23-.36-.21-.52.06-.6.92-1.06,1.97-.96-.33-.37-.37-1.15-.17-1.48.17-.29.49-.66,1.33-.49-.68-.42-.88-1.03-.81-1.44.05-.3.63-.37.69-.38-.11.09-.19.19-.21.31-.1.47.49,1.29,1.33,1.91-.94-.12-1.51,0-1.8.34Z"/>
          <path class="cls-2" d="m64.79,34.24c-.11-.03-.23-.06-.35-.1-1.03-.21-1.93-.69-1.93-1.11,0-.39.71-.81,1.61-1.03-.11-.18-.1-.18-.23-.37-.69-1.02-1.39-1.5-1.78-1.59-.12-.03-.37-.03-.9.05-1.14.25-2.37.47-2.65.98-.59,1.07-.39,2.05.39,3.05.72.93,1.05,1.29.63,1.75-.54.51-1.24,1.01-1.46,1.21-.39.36-.62.73-1,.73-.29-.07-.46-.14-.83-.17-.29-.02-.52.17-.71.45-.17-.03-.37-.05-.46-.05-.47-.03-.89.46-1.18,1.04-.18.35-.15.89-.15.89,0,0,.14.06.62.05.03-.34.36-1.14,1.04-1.69-.32.61-.46,1.45-.42,1.7.25.02.61,0,.74-.01,0-.41.68-1.92,1.41-1.86.05,0,.1.01.16.02-.64.22-.77,1.86-.77,1.86,0,0,1.99.17,2.78-.06.74-.21.82-.39.95-.78.02-.24.12-.47.3-.69.76-.93,1.73-1.41,2.27-1.07.04.03.09.06.15.09-.27-.46-.32-.87-.1-1.11.26-.28.85-.26,1.52.01,0,0,.01,0,.02,0-.82-.33-1.33-.87-1.22-1.37.1-.48.74-.78,1.58-.82Z"/>
        </g>
        <path class="cls-4" d="m72.91,52.73c2.48.15,4.71-.77,5.68-2.35.68-1.1.66-2.37-.05-3.58-.83-1.43-2.34-2.42-4.35-2.88-1.8-.41-3.9-.21-5.88.29-.86.22-1.79.49-2.87.86-1.75.6-3.67,1.29-6.1,1.79-1.06.22-2.03-.05-2.39-.23-.06-.03-.22-.27-.19-.38.03-.13.38-.38,1.5-.39,4.92-.04,6.29-2.58,6.43-2.87.07-.14.03-.31-.1-.4-.13-.09-.29-.13-.41-.02-1.02.64-2.84.91-3.19.78-.2-.1-.34-.24-.5-.42-.32-.35-.65-.78-1.66-.89-.14-.02-.39,0-.41.08-.03.08.09.39.19.49.53.51.5.84.44.91-.03.03-.04.46-.33-.06-.6-.99-1.63-.9-2.17-.72-.13.04-.16.04-.16.18,0,.11.09.33.17.39-.58-.11-1.24.2-1.5.47-.09.1,0,.31.07.42.04.06.09.1.15.13-.75.56-1.16,1.26-1.02,2.03.33,1.86,2.26,2.75,5.29,2.42,1.81-.19,3.47-.77,5.4-1.44,1.13-.39,2.41-.84,3.89-1.27,2.37-.68,4.75-.55,6.37.37.81.46,1.34,1.08,1.53,1.79.12.45-.01.97-.35,1.39-.36.44-1.26,1.37-3.33,1.28-1.87-.08-2.9-.26-4.32-.5-1.09-.19-2.45-.42-4.59-.67-1.83-.22-3.46-.13-4.77-.07-.38.02-.74.04-1.07.05-1.41.04-1.88.05-2.81-.09-1.91-.29-3.18-.95-3.26-1.2,0-.16.5-.41,1.03-.51.15-.03.26-.16.26-.31,0-.15-.11-.29-.26-.32-.26-.05-1-.29-1.04-.7-.05-.52-.13-1.06-.33-1.54,0-.01.01-.02.02-.03.32-.59.22-1.15.13-1.44-.04-.14-.16-.47-.36-.57-.22-.11-.98-.06-1.54.39-.83-.35-1.62-.38-1.84-.38-.01,0-.02,0-.03,0h-.02s-.02,0-.02,0c-.01,0-.02,0-.03,0-.23,0-1.07.04-1.93.42-.55-.47-1.35-.54-1.57-.42-.2.1-.32.43-.36.57-.09.28-.19.85.13,1.44.03.06.06.11.09.16-.14.38-.1.85-.15,1.45-.03.3-.8.59-1.14.67-.12.03-.29.06-.31.2-.03.17.14.39.31.43.58.13,1.04.42,1.02.52-.08.45-.91.81-1.18.91-.14.05-.25.13-.23.28s.2.33.35.34c.35.03,1.03.2,1.1.48.02.09-.09.37-.26.56-1.61.04-4.18-.99-4.36-1.06-.81-.4-2.14-1.12-2.39-1.3-.41-.31-1.75-1.52-2.16-2.15-.16-.35-.3-.59-.45-.75-.32-.36-.73-.55-1.23-.57-.1-.14-.19-.27-.24-.33-.33-.43-1.08-.53-2.31-.28-.05-.05-.1-.09-.16-.13-.7-.51-1.79.31-1.9.41-.11.09-.08.24-.02.37.06.13.19.21.34.19.21-.03.47-.02.55.01.05.05.29.44.33.48-.21.11-.42.2-.46.23-.11.08-.09.24-.05.37.04.13.17.22.31.22.32,0,.7.04.78.1.02.02.39.42.4.42,0,.01.02.02.03.03l.13.14c-.22.11-.45.2-.5.23-.11.08-.09.26-.05.39.04.13.18.22.31.22.32,0,.7.04.78.1.01,0,.21.35.22.37.15.36.33.63.54.84.32.31.69.42,1.04.52.35.1.68.2,1,.48.04.03.1.09.19.16.09.07.2.17.34.28.2.16.27.29.27.34,0,.06-.1.08-.21.17-.11.09-.1.31-.04.44.06.13.21.21.35.18.8-.16,1.34,0,1.4.17.04.11-.15.31-.5.55-.13.09-.14.3-.06.45.07.14.25.21.4.15.91-.34,1.66-.25,1.76-.04.05.12-.16.42-.69.77-.14.09-.14.31-.06.46.08.15.27.2.42.13,0,0,.03-.02.04-.02.96-.45,1.78-.37,1.92-.11.11.21-.25.69-.9,1.1-.08.05-.04.13-.06.22s.01.18.07.26c.1.12.26.15.39.08l.06-.03c.86-.44,1.63-.45,1.99-.27.1.05.35.24.35.24,0,0,.12-.08-.2.19-4.45,3.83-5.55,5-6.95,5.48-.07-.02-.13-.03-.19-.05-.2-.05-.4-.11-.71-.13-.25-.02-.6.05-.94.47-.18-.02-.36-.03-.46-.04-.55-.04-1.06.22-1.46,1.1-.2.44-.18,1.04-.18,1.11,0,.12.08.22.18.28.08.04.27.09.75.08.16,0,.3-.13.31-.29,0-.08.04-.21.11-.36-.02.16-.02.29,0,.38.02.15.15.26.3.27.29.02.7,0,.85-.02.09-.01.17-.06.22-.13.05-.08.04-.14.05-.25,0-.14.14-.58.41-.99-.13.46-.17.9-.18,1.05-.01.18.12.33.29.34.09,0,2.19.18,3.08-.08.78-.23.93-.48,1.12-.86.03-.07.07-.14.11-.22.14-.25.25-.41.49-.59,0,0,.02-.01.02-.02.42-.39.89-.52,1.06-.46.09.03.14.15.17.24.04.14.18.23.31.23.14,0,.27-.1.3-.24.17-.68.54-1.1.78-1.07.17.02.33.28.4.64.03.16.18.27.34.25.16-.01.29-.14.3-.3.06-.91.45-1.46.71-1.46,0,0,0,0,0,0,.19,0,.44.32.54.89.03.17.19.28.35.26.17-.02.29-.17.28-.33,0,0,0-.03,0-.04-.02-.6.15-1.17.42-1.46.1-.1.2-.16.3-.16.28,0,.65.43.77,1.18.03.17.19.29.36.27.17-.02.29-.18.28-.35v-.07c-.05-.65.1-1.26.4-1.6.13-.15.27-.23.42-.23.33-.02.68.32.9.87.06.14.2.23.35.2.15-.03.26-.15.27-.31.01-.37.65-.84,1.58-.94.11-.01.23-.02.36-.02.73-.03,1.27-.06,1.56-.26.47-.31.8-.68,1.16-1.08.57-.65,1.22-1.38,2.71-2.13.36-.18,1.91-.66,2.84-.87-.31.14-.55.32-.68.55-.62,1.13-.48,2.24.41,3.4l.13.17c.66.86.69.97.52,1.16-.33.31-.71.61-1.01.84-.19.15-.34.27-.43.35-.1.09-.19.19-.28.28-.21.22-.42.54-.55.55-.06-.01-.12-.03-.17-.04-.19-.05-.37-.1-.67-.12-.23-.02-.56.05-.88.42-.12-.01-.23-.02-.3-.03-.54-.04-1,.2-1.41,1.02-.21.42-.19.99-.19,1.05,0,.12.08.23.19.28.06.03.25.09.75.08.15,0,.27-.1.31-.24.03.14.15.24.29.24.27.02.65,0,.8-.01.09-.01.17-.06.23-.13.05-.08.04-.14.05-.25,0-.14.11-.45.31-.79-.09.38-.13.72-.14.85-.01.18.12.33.29.35.05,0,.74.06,1.48.06.52,0,1.07-.03,1.41-.13.84-.24,1.01-.5,1.16-.99,0-.02.01-.04.01-.07.02-.19.09-.36.23-.52.72-.88,1.52-1.21,1.85-1,.04.03.09.06.15.09.12.08.29.06.39-.04.11-.1.13-.26.05-.39-.19-.33-.25-.62-.15-.73.13-.14.57-.15,1.16.09.08.03.16.03.24,0,0,0,.03-.01.04-.02.11-.06.18-.17.18-.3,0-.13-.08-.24-.2-.28-.66-.27-1.1-.69-1.03-1,.07-.3.59-.54,1.28-.57.16,0,.29-.13.3-.29.02-.16-.08-.3-.24-.34-.11-.03-.22-.06-.34-.1,0,0-.02,0-.03,0-1.04-.22-1.65-.64-1.68-.8,0-.11.41-.49,1.36-.72.1-.02.96.44,1.19.6.75.47,1.62.87,2.6,1.18,1.07.34,4.51.63,4.73.66,0,0,0,0,.02,0,.75.44,1.07,1.65.77,2.25-.14.28-.41.81-.65.83-.07-.02-.14-.03-.2-.05-.21-.05-.41-.1-.74-.12-.25-.02-.61.05-.96.44-.14-.02-.26-.03-.33-.03-.56-.04-1.05.21-1.48,1.05-.22.43-.2,1.02-.19,1.09,0,.12.08.23.19.28.06.03.26.09.77.08.14,0,.26-.09.3-.22.04.13.15.22.29.22.3.02.73,0,.89-.01.09-.01.18-.05.23-.13.04-.06.04-.15.05-.26,0-.13.17-.59.48-.99-.14.46-.19.91-.21,1.06,0,.09.02.17.08.24.06.07.14.11.22.11.06,0,.91.06,1.78.06.61,0,1.22-.03,1.58-.13.7-.19,1.18-.93,1.42-2.18.03-.17.05-.35.06-.55,0-.02,0-.03,0-.05-.05-.49-.07-1.1-.07-1.95,0-1.09.42-1.78.81-1.8h.09c.16-.01.29-.14.3-.3.01-.16-.09-.3-.25-.34-.78-.18-1.09-.48-1.08-.6,0-.08.17-.26.59-.39.02,0,.04-.01.05-.02.02-.01.04-.02.07-.04.14-.07.21-.24.16-.39-.05-.15-.2-.24-.36-.21-.67.12-1.24.01-1.38-.27-.1-.2,0-.5.29-.82.02-.02.04-.05.05-.08l.02-.04c.06-.12.03-.27-.06-.37-.1-.1-.28-.12-.42-.08-.08.02-1.36.8-2.24.82-.12,0-.22,0-.31.01-.65-.03-1.19-.18-1.6-.29-1-.27-1.56-.93-2.1-1.58-.19-.23-.37-.44-.57-.63-.09-.09-.17-.17-.26-.24.16.02.32.03.5.05.66.07,1.57.17,3.37.28Zm-24.67-3.8c.23.1.71.26,1.2.17-.04.11-.09.22-.14.32-.06.12-.12.24-.17.36-.22.5-.37.77-.87.77h-.01s-.02,0-.03,0c-.49,0-.64-.29-.87-.79-.05-.11-.11-.23-.16-.33-.05-.09-.1-.21-.14-.32.49.08.96-.08,1.2-.17Z"/>
        <g>
          <path class="cls-2" d="m76.53,56.71c.02-.28.33-.52.8-.68.03-.01.05-.03.08-.04-.81.15-1.5,0-1.72-.43-.18-.34-.03-.77.34-1.19.01-.03.02-.04.02-.04,0,0-1.46.73-2.43.75-.13,0-.22,0-.31.01-.58-.03-1.19-.09-1.69-.22-1.46-.39-2.08-1.57-2.81-2.29-.73-.71-1.16-.79-1.16-.79,0,0-.06-.1.83-.03.89.07,1.59.2,4.18.36,4.17.25,7.03-2.55,5.33-5.45-1.68-2.88-6.1-3.55-9.86-2.59-2.25.57-5.1,1.87-9.05,2.69-1.18.24-2.23-.07-2.6-.25-.37-.18-.93-1.24,1.49-1.26,4.71-.04,6-2.39,6.15-2.69-.16.15-1.47.73-3.41.8-.08,0-.16-.03-.21-.05-.65-.37-.71-1.09-2.05-1.25.73.7.7,1.34.37,1.45-.18.06-.4.06-.56-.14-.73-1.03-1.88-.64-1.88-.64,0,0,.87.28.68.69-.04.06-.15.07-.25.08-.07,0-.17,0-.25-.03-.9-.5-1.51.26-1.51.26,0,0,.62-.12.75.14-.95.46-1.67,1.18-1.5,2.12.34,1.94,2.56,2.41,4.94,2.16,2.82-.3,5.23-1.54,9.24-2.7,4.01-1.16,7.69.09,8.3,2.39.32,1.2-.74,3.01-4.01,2.87-3.36-.14-4.08-.61-8.93-1.18-2.34-.28-4.36-.06-5.79-.02-1.44.04-1.91.05-2.87-.1-.96-.15-3.51-.63-3.54-1.31-.02-.59,1.29-.83,1.29-.83,0,0-1.23-.25-1.3-.98-.06-.61-.18-1.2-.36-1.61.03-.05.06-.09.09-.14.41-.76,0-1.52-.1-1.57-.09-.04-.86-.02-1.33.48-.78-.38-1.6-.44-1.93-.44h0s-.02,0-.02,0c0,0-.02,0-.02,0h0c-.34,0-1.22.07-2.02.49-.46-.54-1.27-.57-1.36-.52-.1.05-.51.82-.1,1.57.06.11.12.2.17.27-.18.42-.27.94-.32,1.52-.05.66-1.26.96-1.27.96,0,0,1.37.32,1.26.89-.13.73-1.34,1.15-1.34,1.15,0,0,1.24.11,1.38.73.06.27-.18.51-.49.86-1.74.11-4.64-1.08-4.64-1.08,0,0-2.13-1.05-2.48-1.35-.55-.47-1.75-1.52-2.15-2.15-.13-.29-.27-.54-.4-.69-.33-.36-.74-.48-1.16-.47-.12-.18-.27-.38-.32-.46-.32-.43-1.39-.29-2.17-.13-.06-.08-.14-.15-.23-.22-.51-.38-1.44.39-1.44.39,0,0,.69-.09.83.12l.6-.22s-.38.23-.33.61c.04.06.08.12.13.19.26-.07,1.4-.42,2.23-.16-.39.12-.76.31-1.06.49-.03-.02-.05-.04-.08-.06-.61-.39-1.61.34-1.61.34,0,0,.74-.02.98.17.03.02.05.04.08.07l.48-.39s-.22.33-.17.72c.04.06.07.09.07.09l.16.17s2.31-.67,2.94-.03c-.62-.13-1.31.16-1.78.43-.02-.01-.03-.02-.05-.04-.61-.39-1.61.34-1.61.34,0,0,.74-.02.98.17.03.02.06.05.09.08l.38-.34s-.22.36-.15.77c.11.26.26.53.47.74.54.52,1.31.36,2.03.99.07.06.27.22.51.43.23.18.38.39.39.57.01.18-.09.35-.27.5.87-.17,1.62-.02,1.76.38.1.29-.13.65-.58.95,1-.38,1.96-.32,2.17.13.16.34-.16.82-.76,1.2.01,0,.03-.01.04-.02,1.02-.48,2.07-.47,2.34.03.23.42-.18,1.05-.93,1.53h0s.04-.02.06-.03c.87-.45,1.76-.53,2.28-.27.98-.63,1.86-1.3,2.29-1.83-.23.66-.97,1.7-2.06,2.77-.29.28-2.18,1.82-2.51,2.13-1.61,1.25-3.28,2.64-3.4,2.69-.39.17-.92.56-1.28.55-.31-.07-.5-.15-.89-.18-.31-.02-.56.18-.77.49-.21-.03-.53-.06-.63-.06-.46-.03-.88.5-1.16,1.12-.18.38-.15.96-.15.96,0,0,.14.06.6.05.03-.38.48-1.29,1.22-1.88-.36.66-.52,1.61-.47,1.89.26.02.66,0,.79-.02,0-.55.72-2.07,1.5-2.01.05,0,.11.01.17.02-.68.23-.82,2.01-.82,2.01,0,0,2.12.18,2.96-.06.84-.25.77-.46,1.04-.93.14-.26.28-.47.58-.69.47-.43,1.05-.64,1.38-.52.18.06.3.22.37.45.21-.8.67-1.37,1.13-1.31.33.04.58.39.68.9.06-1,.52-1.78,1.05-1.76.4.01.72.49.85,1.15,0-.01,0-.03,0-.04-.03-1.06.43-1.93,1.03-1.95.51-.01.96.61,1.09,1.45,0-.03,0-.05,0-.08-.08-1.16.42-2.13,1.13-2.17.49-.03.95.41,1.21,1.07.02-.59.83-1.14,1.87-1.25.13-.01.26-.02.38-.02.61-.02,1.17-.06,1.4-.21,1.16-.75,1.43-1.98,3.89-3.23.44-.23,2.38-.81,3.23-.96,1.74-.4,2.71-.5,3.1-.41.02,0,.05.02.07.02.24.07.49.2.74.39,0,0,0,0,0,0,.76.64,1.5,1.77,1.59,1.91.22.39.07.19.84.72.68.42,1.5.82,2.52,1.14,1.08.35,4.44.61,4.7.65.03.01.06.02.08.03.9.51,1.3,1.91.91,2.68-.19.37-.48.81-.92.8-.33-.07-.52-.14-.93-.17-.32-.02-.59.17-.8.46-.18-.03-.39-.05-.49-.06-.48-.03-.92.48-1.23,1.07-.19.37-.16.93-.16.93,0,0,.14.06.64.05.03-.35.37-1.19,1.09-1.76-.36.63-.52,1.51-.48,1.76.28.02.69,0,.83-.01,0-.47.76-1.99,1.59-1.93.05,0,.12.01.18.02-.71.22-.87,1.93-.87,1.93,0,0,2.43.17,3.26-.05.83-.23,1.11-1.5,1.19-1.93.03-.18.05-.34.06-.5-.05-.54-.07-1.21-.07-1.98,0-1.16.46-2.09,1.11-2.12.03,0,.06,0,.09,0-.8-.18-1.35-.55-1.33-.93Zm-27.11-10.99c.57-.05,1.27.1,1.26.12-.04.12-.09.19-.3.39-.31.29-.48.32-.85.36-.57.05-.88-.31-.91-.64,0-.04.23-.18.8-.23Zm-1.44,1.66c.24,0,.86-.08.86-.08.03,0,.06.02.07.05,0,.03,0,.06-.03.08l-.85.47s-.02.01-.04.01c-.01,0-.02,0-.03,0l-.89-.47s-.05-.05-.04-.08c0-.03.04-.05.07-.05,0,0,.63.08.88.08Zm-2.43-1.15c-.21-.2-.25-.27-.3-.39,0-.02.7-.17,1.26-.12.57.05.8.19.8.23-.03.33-.35.69-.91.64-.37-.04-.54-.07-.85-.36Zm2.44,4.37h-.04c-.88-.02-1.02-.76-1.31-1.29-.21-.38-.38-1.06-.26-.97.66.47,1.6-.03,1.6-.03,0,0,.92.5,1.6.03.12-.08-.05.59-.26.97-.3.54-.42,1.3-1.33,1.29Zm3.62,1.34c-.28.32.06,1.06.45,1.65-1.19-.11-2.46.27-2.56.95,0,.03,0,.07,0,.11-.1-.17-.23-.36-.21-.52.06-.6.92-1.06,1.97-.96-.33-.37-.37-1.15-.17-1.48.17-.29.49-.66,1.33-.49-.68-.42-.88-1.03-.81-1.44.05-.3.63-.37.69-.38-.11.09-.19.19-.21.31-.1.47.49,1.29,1.33,1.91-.94-.12-1.51,0-1.8.34Z"/>
          <path class="cls-2" d="m64.79,58.23c-.11-.03-.23-.06-.35-.1-1.03-.21-1.93-.69-1.93-1.11,0-.39.71-.81,1.61-1.03-.11-.18-.1-.18-.23-.37-.69-1.02-1.39-1.5-1.78-1.59-.12-.03-.37-.03-.9.05-1.14.25-2.37.47-2.65.98-.59,1.07-.39,2.05.39,3.05.72.93,1.05,1.29.63,1.75-.54.51-1.24,1.01-1.46,1.21-.39.36-.62.73-1,.73-.29-.07-.46-.14-.83-.17-.29-.02-.52.17-.71.45-.17-.03-.37-.05-.46-.05-.47-.03-.89.46-1.18,1.04-.18.35-.15.89-.15.89,0,0,.14.06.62.05.03-.34.36-1.14,1.04-1.69-.32.61-.46,1.45-.42,1.7.25.02.61,0,.74-.01,0-.41.68-1.92,1.41-1.86.05,0,.1.01.16.02-.64.22-.77,1.86-.77,1.86,0,0,1.99.17,2.78-.06.74-.21.82-.39.95-.78.02-.24.12-.47.3-.69.76-.93,1.73-1.41,2.27-1.07.04.03.09.06.15.09-.27-.46-.32-.87-.1-1.11.26-.28.85-.26,1.52.01,0,0,.01,0,.02,0-.82-.33-1.33-.87-1.22-1.37.1-.48.74-.78,1.58-.82Z"/>
        </g>
      </g>
    </g>
  </g>
</svg>