<?xml version="1.0" encoding="UTF-8"?>
<svg xmlns="http://www.w3.org/2000/svg" xmlns:xlink="http://www.w3.org/1999/xlink" width="337.14pt" height="155.92pt" viewBox="0 0 337.14 155.92" version="1.1">
<defs>
<clipPath id="clip1">
  <path d="M 0 0 L 129 0 L 129 155.921875 L 0 155.921875 Z M 0 0 "/>
</clipPath>
</defs>
<g id="surface1">
<g clip-path="url(#clip1)" clip-rule="nonzero">
<path style=" stroke:none;fill-rule:nonzero;fill:rgb(76.499939%,8.198547%,19.599915%);fill-opacity:1;" d="M 128.578125 73.703125 L 128.578125 6.878906 C 128.578125 3.089844 125.496094 0.00390625 121.703125 0.00390625 L 6.875 0.00390625 C 3.09375 0.00390625 0.015625 3.082031 0.015625 6.867188 L 0.015625 73.695313 C -0.00390625 74.296875 -0.0390625 76.15625 0.15625 78.984375 C 0.367188 81.957031 0.882813 86.644531 2.175781 92.113281 C 3.40625 97.332031 5.125 102.402344 7.285156 107.199219 C 7.675781 108.058594 8.074219 108.914063 8.488281 109.746094 C 9.667969 112.132813 10.992188 114.492188 12.429688 116.765625 C 15.097656 120.992188 18.179688 124.945313 21.578125 128.515625 C 22.253906 129.222656 22.921875 129.90625 23.589844 130.582031 C 25.738281 132.742188 27.925781 134.804688 30.105469 136.714844 C 32.03125 138.410156 34.019531 140.046875 36.015625 141.585938 C 37.507813 142.726563 39.003906 143.820313 40.472656 144.835938 C 51.621094 152.515625 60.132813 154.980469 62.476563 155.550781 L 64.316406 155.921875 L 66.113281 155.550781 C 67.773438 155.148438 72.316406 153.855469 78.574219 150.597656 C 82.867188 148.371094 87.222656 145.605469 91.523438 142.382813 C 96.800781 138.425781 102.015625 133.761719 107.011719 128.515625 C 112.261719 123.011719 116.664063 116.695313 120.105469 109.746094 C 122.84375 104.214844 124.964844 98.28125 126.421875 92.113281 C 127.710938 86.640625 128.230469 81.953125 128.4375 78.980469 C 128.636719 76.085938 128.597656 74.230469 128.578125 73.703125 "/>
</g>
<path style=" stroke:none;fill-rule:nonzero;fill:rgb(100%,100%,100%);fill-opacity:1;" d="M 43.09375 121.589844 C 41.875 117.363281 40.613281 112.988281 40.683594 108.339844 C 40.726563 105.269531 41.6875 102.371094 42.617188 99.570313 C 43.527344 96.828125 44.46875 93.996094 44.574219 90.96875 C 44.730469 86.40625 43.652344 83.15625 42.609375 80.007813 C 41.777344 77.492188 40.914063 74.894531 40.679688 71.613281 C 40.347656 67.023438 41.621094 62.570313 42.851563 58.265625 C 44.003906 54.230469 45.09375 50.417969 44.960938 46.515625 C 44.859375 43.597656 43.828125 40.796875 42.828125 38.089844 C 41.886719 35.527344 40.910156 32.878906 40.679688 30.078125 C 40.242188 24.8125 41.609375 20.613281 42.933594 16.550781 C 43.917969 13.527344 44.847656 10.671875 45.066406 7.457031 L 118.308594 7.457031 C 119.886719 7.457031 121.167969 8.738281 121.167969 10.316406 L 121.171875 73.898438 C 121.179688 74.183594 121.429688 81 119.207031 90.414063 C 117.882813 96.03125 115.953125 101.429688 113.46875 106.453125 C 110.371094 112.714844 106.398438 118.414063 101.660156 123.386719 C 96.953125 128.324219 92.058594 132.707031 87.117188 136.410156 C 83.144531 139.386719 79.140625 141.933594 75.210938 143.976563 C 69.574219 146.90625 65.753906 147.988281 64.292969 148.328125 C 62.824219 147.984375 58.976563 146.894531 53.320313 143.941406 C 50.40625 142.421875 47.425781 140.613281 44.472656 138.570313 C 45 137.070313 45.285156 135.707031 45.339844 134.421875 C 45.546875 130.09375 44.355469 125.964844 43.09375 121.589844 M 30.746094 101.125 C 31.613281 98.613281 32.507813 96.015625 32.703125 93.390625 C 33.125 87.808594 31.898438 84.058594 30.714844 80.429688 C 29.800781 77.640625 28.941406 75.007813 28.8125 71.625 C 28.652344 67.207031 29.871094 62.847656 31.050781 58.628906 C 32.316406 54.097656 33.511719 49.816406 33.101563 45.53125 C 32.835938 42.761719 31.84375 40.109375 30.882813 37.546875 C 29.859375 34.808594 28.890625 32.21875 28.8125 29.617188 C 28.726563 26.628906 29.742188 23.234375 30.820313 19.644531 C 31.992188 15.730469 33.203125 11.6875 33.289063 7.457031 L 38.8125 7.457031 C 38.683594 10.617188 37.726563 13.789063 36.714844 17.140625 C 35.375 21.589844 33.988281 26.1875 34.476563 31.113281 C 34.738281 33.765625 35.730469 36.410156 36.6875 38.972656 C 37.683594 41.632813 38.625 44.144531 38.753906 46.550781 C 38.964844 50.371094 37.867188 54.121094 36.707031 58.089844 C 35.332031 62.78125 33.914063 67.628906 34.476563 73.125 C 34.757813 75.894531 35.636719 78.414063 36.488281 80.855469 C 37.398438 83.464844 38.253906 85.933594 38.367188 88.554688 C 38.53125 92.355469 37.46875 95.683594 36.445313 98.902344 C 35.457031 101.988281 34.441406 105.183594 34.472656 108.816406 C 34.511719 113.246094 35.773438 117.632813 36.992188 121.875 C 38.292969 126.40625 39.523438 130.6875 39.167969 134.621094 C 37.359375 133.1875 35.558594 131.660156 33.800781 130.078125 L 33.136719 129.464844 C 32.652344 126.535156 31.824219 123.65625 31.027344 120.871094 C 29.855469 116.78125 28.75 112.914063 28.8125 109.3125 C 28.863281 106.585938 29.820313 103.808594 30.746094 101.125 M 10.363281 33.53125 C 10.628906 36.179688 11.621094 38.820313 12.578125 41.375 C 13.574219 44.035156 14.515625 46.550781 14.648438 48.964844 C 14.859375 52.785156 13.761719 56.535156 12.597656 60.507813 C 11.222656 65.195313 9.804688 70.042969 10.363281 75.539063 C 10.648438 78.304688 11.527344 80.824219 12.378906 83.261719 C 13.289063 85.875 14.148438 88.34375 14.261719 90.972656 C 14.414063 94.492188 13.515625 97.609375 12.566406 100.605469 C 11.265625 97.277344 10.203125 93.875 9.394531 90.464844 C 7.15625 80.996094 7.421875 73.914063 7.425781 73.828125 L 7.425781 10.316406 C 7.425781 8.738281 8.707031 7.457031 10.285156 7.457031 L 14.648438 7.457031 L 14.648438 7.460938 C 15.085938 11.402344 13.886719 15.367188 12.617188 19.5625 C 11.273438 24.007813 9.882813 28.605469 10.363281 33.53125 M 26.902344 46.082031 C 27.28125 49.949219 26.105469 54.261719 24.863281 58.832031 C 23.65625 63.257813 22.40625 67.835938 22.621094 72.140625 C 22.75 74.839844 23.625 77.453125 24.546875 80.226563 C 25.398438 82.773438 26.277344 85.40625 26.511719 88.085938 C 26.851563 91.976563 25.699219 95.882813 24.585938 99.660156 C 23.605469 102.980469 22.59375 106.410156 22.617188 109.785156 C 22.644531 113.410156 23.699219 117.261719 24.789063 121.015625 C 21.960938 117.75 19.433594 114.199219 17.261719 110.4375 C 17.097656 110.152344 16.9375 109.863281 16.78125 109.574219 L 16.660156 109.355469 C 16.914063 106.808594 17.726563 104.355469 18.511719 101.976563 C 19.417969 99.238281 20.355469 96.402344 20.46875 93.375 C 20.625 88.828125 19.546875 85.578125 18.503906 82.4375 C 17.667969 79.917969 16.804688 77.316406 16.574219 74.023438 C 16.242188 69.4375 17.511719 64.988281 18.742188 60.6875 C 19.894531 56.648438 20.984375 52.835938 20.851563 48.929688 C 20.75 46.011719 19.71875 43.207031 18.71875 40.496094 C 17.777344 37.9375 16.804688 35.289063 16.574219 32.492188 C 16.132813 27.226563 17.503906 23.03125 18.828125 18.96875 C 20.054688 15.21875 21.214844 11.671875 20.984375 7.457031 L 27.292969 7.457031 C 27.410156 11.136719 26.300781 14.253906 25.132813 17.550781 C 23.859375 21.132813 22.542969 24.835938 22.617188 29.632813 C 22.660156 32.40625 23.617188 34.984375 24.632813 37.714844 C 25.597656 40.308594 26.59375 42.988281 26.902344 46.082031 M 125.121094 73.789063 L 125.121094 7.117188 C 125.121094 5.125 123.503906 3.507813 121.511719 3.507813 L 7.070313 3.507813 C 5.085938 3.507813 3.472656 5.121094 3.472656 7.105469 L 3.472656 73.742188 C 3.46875 73.820313 3.390625 75.671875 3.605469 78.753906 C 3.800781 81.589844 4.296875 86.074219 5.535156 91.324219 C 6.714844 96.324219 8.363281 101.183594 10.429688 105.765625 C 10.800781 106.585938 11.183594 107.402344 11.582031 108.203125 C 12.707031 110.484375 13.972656 112.738281 15.34375 114.90625 C 17.890625 118.941406 20.828125 122.710938 24.070313 126.113281 C 24.726563 126.800781 25.378906 127.46875 26.027344 128.121094 C 28.117188 130.230469 30.25 132.234375 32.355469 134.085938 C 34.222656 135.726563 36.152344 137.3125 38.085938 138.800781 C 39.523438 139.90625 40.972656 140.960938 42.390625 141.941406 C 53.054688 149.289063 61.070313 151.613281 63.289063 152.152344 L 64.308594 152.355469 L 65.34375 152.140625 C 66.882813 151.769531 71.105469 150.566406 77.035156 147.480469 C 81.15625 145.339844 85.34375 142.679688 89.488281 139.574219 C 94.605469 135.738281 99.664063 131.210938 104.523438 126.113281 C 109.53125 120.859375 113.734375 114.832031 117.015625 108.203125 C 119.632813 102.910156 121.664063 97.230469 123.058594 91.324219 C 124.296875 86.074219 124.792969 81.589844 124.988281 78.753906 C 125.195313 75.816406 125.132813 74.019531 125.121094 73.789063 "/>
<path style=" stroke:none;fill-rule:nonzero;fill:rgb(100%,100%,100%);fill-opacity:1;" d="M 103.613281 84.136719 C 102.65625 84.296875 102.59375 85.625 101.914063 85.765625 C 101.429688 85.863281 100.648438 84.859375 100.285156 84.640625 C 99.496094 84.164063 98.8125 83.964844 98.210938 83.234375 C 97.191406 81.996094 95.765625 80.140625 95.613281 78.523438 C 95.53125 77.742188 95.519531 76.957031 95.464844 76.183594 C 95.40625 75.417969 97.539063 76.285156 97.835938 76.351563 C 99.992188 76.777344 101.605469 76.445313 103.359375 75.109375 C 105.472656 73.503906 105.277344 71.714844 104.8125 69.332031 C 104.109375 65.820313 104.734375 58.523438 110.160156 61.101563 C 110.121094 59.757813 108.929688 58.96875 107.683594 58.882813 C 106.339844 58.792969 105.238281 60.132813 104.578125 61.132813 C 104.359375 61.457031 104.359375 63.734375 103.5 63.378906 C 102.617188 63.011719 102.863281 60.683594 103.011719 59.9375 C 103.550781 57.152344 106.457031 56.035156 108.578125 54.605469 C 110.546875 53.273438 112.097656 50.269531 109.066406 48.964844 C 108.894531 50.710938 108.890625 51.480469 107.46875 52.660156 C 106.0625 53.816406 104.027344 53.773438 102.660156 55.066406 C 102.019531 55.675781 101.40625 56.75 101.78125 57.660156 C 101.910156 57.996094 102.570313 58.917969 102.328125 59.3125 C 101.699219 60.324219 99.859375 56.363281 99.804688 55.90625 C 99.230469 51.347656 105.175781 49.898438 107.9375 47.90625 C 109.515625 46.761719 110.882813 45.765625 111.039063 43.675781 C 111.152344 42.289063 110.214844 40.097656 108.625 39.917969 C 108.585938 39.914063 108.917969 42.039063 108.933594 42.277344 C 109 43.195313 108.84375 44.066406 108.277344 44.820313 C 107.3125 46.113281 105.589844 46.460938 104.15625 46.992188 C 102.5625 47.578125 100.855469 47.855469 99.636719 49.121094 C 98.898438 49.878906 98.554688 50.9375 98.304688 51.941406 C 98.183594 52.425781 98.070313 56.320313 97.089844 53.953125 C 96.902344 53.503906 97.042969 51.257813 97.5 49.996094 C 98.230469 48.050781 99.804688 46.664063 101.191406 45.222656 C 102.949219 43.414063 104.832031 41.867188 106.242188 39.738281 C 107.179688 38.320313 108.058594 36.597656 108.050781 34.859375 C 108.042969 31.941406 104.363281 29.046875 101.523438 29.492188 C 99.230469 29.851563 97.511719 30.445313 96.09375 32.355469 C 95.449219 33.222656 94.6875 34.558594 94.699219 35.675781 C 94.710938 36.894531 95.253906 37.757813 95.53125 38.914063 C 95.9375 40.613281 97.628906 43.828125 95.03125 44.78125 C 95.667969 45.808594 97.097656 45.121094 97.851563 44.5625 C 100.679688 42.46875 100.109375 39.816406 99.414063 36.800781 C 98.980469 34.90625 98.738281 33.019531 100.785156 32.019531 C 102.613281 31.132813 104.472656 31.726563 105.464844 33.449219 C 107.515625 37.015625 103.816406 40.957031 101.46875 43.246094 C 98.941406 45.703125 95.964844 48.019531 95.03125 51.539063 C 94.011719 55.394531 96.292969 59.183594 98.574219 62.066406 C 99.0625 62.6875 100.917969 64.90625 101.371094 65.617188 C 102.515625 67.421875 103.914063 69.71875 103.085938 71.898438 C 101.648438 75.648438 96.34375 75 94.296875 72.367188 C 94.167969 72.199219 94.054688 72.015625 93.929688 71.84375 C 93.925781 71.832031 93.917969 71.824219 93.910156 71.816406 C 93.894531 71.796875 93.882813 71.773438 93.871094 71.753906 C 93.589844 71.355469 93.320313 70.949219 93.0625 70.527344 C 92.933594 70.316406 92.8125 70.105469 92.683594 69.894531 C 92.609375 69.765625 92.53125 69.636719 92.460938 69.503906 C 91.90625 68.542969 91.402344 67.589844 90.96875 66.707031 C 90.082031 65.023438 89.359375 62.949219 88.265625 61.429688 C 87.738281 62.636719 87.246094 63.734375 86.269531 64.652344 C 84.53125 66.289063 87.585938 67.109375 86.847656 68.316406 C 86.179688 69.417969 83.449219 67.78125 82.972656 67.179688 C 82.515625 66.605469 82.070313 65.914063 81.9375 65.171875 C 81.894531 64.9375 82.023438 63.65625 81.84375 63.558594 C 81.039063 64.40625 80.042969 65.320313 79.359375 66.269531 C 78.164063 67.972656 79.65625 68.566406 81.039063 69.257813 C 83.996094 70.738281 86.691406 72.609375 86.40625 76.183594 C 86.292969 77.539063 85.832031 79.585938 86.257813 80.914063 C 86.507813 81.699219 86.882813 81.851563 87.296875 82.472656 C 87.847656 83.277344 86.410156 82.742188 86.328125 82.742188 C 84.660156 82.667969 84.972656 85.296875 84.957031 86.1875 C 84.929688 88.097656 83.859375 88.558594 82.445313 89.425781 C 82.472656 89.40625 82.507813 89.492188 82.507813 89.519531 C 83.621094 91.488281 86.265625 86.351563 86.503906 85.808594 C 86.800781 85.054688 87.421875 85.289063 87.734375 85.875 C 88.007813 86.398438 87.539063 86.457031 88.136719 87.074219 C 88.527344 87.488281 89.0625 87.839844 89.542969 88.15625 C 91.632813 89.511719 94.242188 90.296875 95.984375 92.179688 C 97.304688 93.625 97.097656 96.539063 95.816406 97.945313 C 94.140625 99.777344 92.164063 98.507813 90.105469 98.9375 C 89.34375 99.09375 89.199219 100.90625 89.601563 101.492188 C 90.21875 102.410156 91.292969 102.382813 91.042969 103.871094 C 90.519531 106.976563 92.96875 102.980469 93.789063 102.363281 C 94.386719 101.894531 95.375 101.308594 96.140625 101.753906 C 96.84375 102.164063 95.164063 103.800781 94.875 104.15625 C 95.390625 104.464844 95.867188 104.789063 96.359375 105.15625 C 96.480469 104.644531 96.578125 104.15625 96.96875 103.808594 C 96.984375 103.792969 96.996094 103.777344 97.019531 103.765625 C 97.074219 103.71875 97.117188 103.664063 97.1875 103.625 C 97.984375 103.175781 97.863281 103.761719 98.296875 104.117188 C 98.558594 104.335938 99.261719 104.453125 99.597656 104.652344 C 100.460938 105.140625 99.601563 103.277344 99.613281 103.195313 C 99.761719 101.683594 102.8125 100.972656 102.101563 99.320313 C 101.765625 98.53125 102.519531 98.125 102.710938 98.929688 C 102.863281 99.574219 103.863281 99.628906 104.34375 99.460938 C 103.796875 99.046875 103.257813 98.660156 102.882813 98.074219 C 102.472656 97.429688 102.613281 97.113281 102.898438 96.847656 C 102.910156 96.832031 102.929688 96.824219 102.941406 96.8125 C 103.214844 96.574219 103.585938 96.367188 103.75 95.992188 C 103.398438 95.445313 101.828125 95.300781 103.316406 94.707031 C 104.308594 94.3125 105.476563 94.738281 106.386719 93.824219 C 105.507813 93.609375 104.226563 94.738281 103.496094 93.421875 C 103.164063 92.832031 102.90625 92.148438 102.449219 91.648438 C 102.449219 91.636719 101.152344 90.515625 101.929688 90.546875 C 102.960938 90.605469 103.152344 91.753906 104.109375 91.574219 C 105.957031 91.234375 106.851563 89.730469 108.816406 90.65625 C 109.472656 87.195313 103.546875 91.222656 102.960938 87.695313 C 102.765625 86.605469 103.847656 86.582031 104.730469 86.445313 C 106.285156 86.207031 106.199219 84.789063 106.46875 83.582031 C 106.464844 83.566406 106.464844 83.546875 106.460938 83.53125 C 105.507813 83.796875 104.582031 83.96875 103.613281 84.136719 "/>
<path style=" stroke:none;fill-rule:nonzero;fill:rgb(100%,100%,100%);fill-opacity:1;" d="M 68.300781 101.726563 C 69.375 100.703125 68.769531 100.695313 67.785156 99.878906 C 67.136719 99.320313 66.949219 98.671875 67.6875 98.132813 C 68.335938 97.671875 69.71875 98.890625 70.523438 98.796875 C 71.203125 98.707031 72.3125 98.4375 72.542969 97.671875 C 72.625 97.390625 73.042969 94.769531 73.703125 95.792969 C 74.242188 96.621094 73.707031 97.40625 74.894531 98.078125 C 75.609375 98.476563 77.050781 98.984375 77.851563 98.648438 C 76.878906 97.945313 75.371094 97.164063 76.617188 95.957031 C 77.039063 95.558594 76.652344 94.609375 76.90625 94.066406 C 77.277344 93.324219 78.128906 93.234375 77.621094 92.539063 C 77.214844 91.984375 77.914063 91.4375 78.234375 91.066406 C 78.058594 90.371094 78.445313 89.988281 78.039063 89.320313 C 77.4375 88.3125 76.164063 87.292969 76.621094 85.921875 C 77.738281 82.570313 80.679688 80.59375 84.191406 80.0625 C 84.378906 80.03125 85.417969 80.09375 85.441406 79.804688 C 85.523438 78.84375 84.972656 79.476563 84.351563 79.054688 C 82.414063 77.734375 85.300781 76.972656 82.972656 71.621094 C 81.390625 71.703125 80.277344 73.054688 79.3125 74.199219 C 78.328125 75.371094 77.28125 76.011719 75.847656 76.457031 C 74.621094 76.828125 73.402344 76.816406 72.300781 77.566406 C 71.574219 78.050781 70.839844 78.539063 70.25 79.179688 C 69.730469 79.742188 69.511719 80.617188 68.878906 81.0625 C 68.082031 81.628906 68.203125 81.449219 67.949219 82.371094 C 67.78125 83.011719 67.832031 83.652344 67.6875 84.289063 C 67.390625 85.710938 66.332031 86.667969 65.160156 87.394531 C 66.449219 87.8125 67.410156 87.761719 68.273438 86.558594 C 68.589844 86.113281 68.820313 85.601563 69.070313 85.113281 C 69.289063 84.71875 69.75 84.996094 69.648438 85.382813 C 69.289063 86.777344 70.851563 87.214844 71.328125 88.476563 C 71.820313 89.773438 71.003906 91.285156 69.886719 91.976563 C 68.964844 92.539063 67.882813 92.390625 67.148438 93.253906 C 66.503906 94 65.296875 95.691406 64.144531 94.726563 C 63.941406 94.539063 63.390625 94.261719 63.328125 93.945313 C 63.242188 93.453125 63.472656 92.597656 62.90625 92.273438 C 62.402344 91.980469 60.636719 93.800781 60.34375 94.121094 C 60.960938 94.613281 62.082031 94.796875 62.289063 95.6875 C 62.386719 96.113281 60.003906 94.953125 59.460938 94.9375 C 59.304688 94.933594 58.78125 97.21875 58.785156 97.617188 C 58.800781 98.523438 60.945313 97.742188 61.511719 97.789063 C 61.550781 98.648438 60.765625 98.5 60.183594 98.75 C 59.261719 99.128906 60.648438 100.273438 60.875 100.691406 C 61.152344 101.234375 60.9375 102.242188 61.910156 101.820313 C 62.710938 101.480469 62.5625 100.402344 63.253906 99.902344 C 63.800781 99.492188 64.902344 98.917969 65.605469 98.964844 C 66.59375 99.023438 67.007813 99.710938 66.199219 100.410156 C 65.175781 101.277344 66.257813 101.40625 66.550781 101.988281 C 67.390625 101.753906 67.914063 102.613281 68.273438 103.171875 C 68.273438 103.171875 68.273438 103.171875 68.277344 103.171875 C 68.761719 102.679688 67.78125 102.222656 68.300781 101.726563 "/>
<path style=" stroke:none;fill-rule:nonzero;fill:rgb(100%,100%,100%);fill-opacity:1;" d="M 69.957031 71.683594 C 70.304688 71.601563 72.265625 70.714844 72.425781 71.355469 C 72.550781 71.804688 72.265625 72.371094 73.003906 72.417969 C 73.355469 72.441406 74.105469 72.242188 74.171875 71.800781 C 74.242188 71.257813 74.957031 72.082031 75.074219 72.128906 C 75.640625 72.367188 76.820313 72.097656 77.132813 71.523438 C 76.019531 71.285156 75.414063 70.425781 75.960938 69.28125 C 76.4375 68.289063 76.644531 68.597656 76.035156 67.542969 C 75.667969 66.910156 75.480469 66.214844 75.25 65.523438 C 73.984375 67.761719 72.65625 69.066406 69.980469 69.550781 C 68.199219 69.867188 64.125 68.320313 65.417969 65.863281 C 65.871094 64.996094 67.1875 64.296875 68.183594 64.058594 C 68.195313 64.054688 68.210938 64.054688 68.222656 64.050781 C 68.316406 64.027344 68.410156 64.007813 68.496094 63.992188 C 69.890625 63.796875 68.273438 65.25 68.226563 65.472656 C 67.949219 66.898438 70.269531 65.710938 70.640625 65.367188 C 71.0625 64.980469 70.910156 64.226563 70.824219 63.730469 C 70.695313 62.984375 70.648438 62.203125 70.472656 61.46875 C 70.152344 61.441406 69.875 61.679688 69.628906 61.851563 C 68.765625 62.4375 67.859375 62.957031 67 63.554688 C 65.863281 64.347656 64.773438 65.214844 63.734375 66.140625 C 62.941406 66.851563 62.175781 67.59375 61.445313 68.367188 C 60.542969 69.328125 58.328125 71.640625 56.734375 70.675781 C 56.308594 70.421875 55.664063 68.84375 55.371094 68.84375 C 54.1875 68.820313 54.828125 69.355469 54.335938 70.148438 C 54.089844 70.542969 53.605469 70.617188 53.238281 70.816406 C 53.394531 71.285156 54.402344 71.855469 53.730469 72.21875 C 53.105469 72.539063 52.117188 72.511719 51.429688 72.679688 C 51.675781 73.191406 51.96875 73.726563 51.675781 74.292969 C 51.472656 74.683594 52.265625 74.980469 52.460938 75.324219 C 52.660156 75.730469 52.511719 76.117188 52.90625 76.351563 C 53.488281 76.679688 53.785156 77.230469 53.691406 77.917969 C 53.480469 79.519531 55.8125 76.824219 55.890625 76.75 C 56.542969 76.082031 59.507813 75.378906 58.789063 77.175781 C 58.566406 77.757813 58.058594 78.175781 58.511719 78.832031 C 59.351563 78.765625 59.59375 78.726563 60.339844 79.136719 C 61.914063 78.195313 61.117188 77.730469 60.640625 76.316406 C 60.472656 75.8125 62.511719 75.835938 62.992188 75.210938 C 64.070313 73.796875 64.09375 75.617188 64.1875 76.566406 C 64.78125 76.519531 65.023438 75.8125 65.132813 75.34375 C 65.378906 74.367188 66.796875 76.097656 66.738281 75.15625 C 66.699219 74.597656 66.796875 74.039063 67.144531 73.574219 C 67.535156 73.039063 67.980469 74.09375 67.910156 74.40625 C 67.761719 75.160156 69.855469 75.105469 70.464844 75.3125 C 70.484375 75.316406 70.507813 75.320313 70.527344 75.324219 C 70.71875 74.707031 69.023438 71.90625 69.957031 71.683594 "/>
<path style=" stroke:none;fill-rule:nonzero;fill:rgb(100%,100%,100%);fill-opacity:1;" d="M 65.84375 57.367188 C 66.710938 56.410156 67.441406 55.707031 68.566406 55.027344 C 67.070313 53.996094 64.535156 52.558594 65.46875 50.265625 C 65.890625 49.21875 66.949219 50.65625 67.738281 50.734375 C 68.835938 50.835938 70.160156 50.859375 71.1875 50.410156 C 70.875 50.011719 69.859375 49.828125 69.40625 49.390625 C 68.550781 48.558594 68.273438 47.492188 68.625 46.351563 C 68.808594 45.773438 65.839844 43.960938 65.199219 43.332031 C 63.789063 41.949219 61.695313 39.953125 61.988281 37.773438 C 62.070313 37.210938 62.164063 36.28125 62.625 35.886719 C 62.859375 35.691406 63.046875 33.421875 62.933594 33.191406 C 62.28125 33.515625 61.457031 33.8125 60.871094 33.179688 C 60.15625 32.414063 60.292969 33.945313 60.363281 34.152344 C 60.667969 35.03125 61.097656 35.804688 61.175781 36.75 C 61.230469 37.582031 60.292969 38.519531 60.292969 37.355469 C 59.644531 36.644531 59.1875 35.933594 58.695313 35.105469 C 58.503906 34.789063 58.816406 32.476563 58.1875 32.929688 C 57.804688 33.210938 57.257813 32.902344 56.941406 33.226563 C 56.640625 33.523438 56.898438 34.117188 56.753906 34.496094 C 56.449219 35.398438 55.167969 34.617188 54.730469 34.378906 C 54.484375 35.492188 53.078125 35.871094 54.058594 37.042969 C 55.078125 38.257813 56.703125 37.847656 57.726563 39.117188 C 58.816406 40.5 57.4375 41.988281 56.085938 42.25 C 55.757813 42.316406 55.421875 42.957031 55.691406 43.253906 C 56.257813 43.890625 56.058594 44.871094 55.722656 45.539063 C 56.355469 45.796875 57.195313 45.589844 57.738281 45.242188 C 58.484375 44.777344 58.078125 44.144531 58.988281 44.140625 C 59.117188 44.132813 59.65625 45.761719 59.730469 45.921875 C 60.226563 46.964844 60.105469 47.789063 59.539063 48.777344 C 58.816406 50.011719 60.265625 51.902344 60.035156 53.273438 C 59.714844 55.152344 58.699219 54.941406 57.339844 54.015625 C 56.980469 54.300781 58.238281 55.089844 58.421875 55.136719 C 59.769531 55.515625 60.546875 54.722656 60.851563 53.613281 C 61.148438 52.554688 60.886719 51.476563 61.332031 50.402344 C 61.894531 49.082031 62.976563 50.027344 62.472656 50.519531 C 61.214844 51.769531 64.351563 53.914063 63.988281 55.457031 C 63.84375 56.015625 65.34375 57.335938 65.84375 57.367188 "/>
<path style=" stroke:none;fill-rule:nonzero;fill:rgb(100%,100%,100%);fill-opacity:1;" d="M 83.84375 71.980469 C 84.039063 73.105469 84.476563 76.019531 85.570313 76.339844 C 86.160156 74.949219 85.277344 72.523438 83.84375 71.980469 "/>
<path style=" stroke:none;fill-rule:nonzero;fill:rgb(100%,100%,100%);fill-opacity:1;" d="M 88.675781 105.523438 C 89.117188 105.160156 91.480469 103.644531 90.152344 102.8125 C 89.855469 103.234375 88.96875 103.082031 88.550781 103.582031 C 88.128906 104.078125 88.21875 105.078125 88.675781 105.523438 "/>
<path style=" stroke:none;fill-rule:nonzero;fill:rgb(100%,100%,100%);fill-opacity:1;" d="M 53.976563 68.964844 C 53.410156 68.039063 50.960938 69.128906 50.773438 70.003906 C 51.085938 70.003906 54.894531 70.496094 53.976563 68.964844 "/>
<path style=" stroke:none;fill-rule:nonzero;fill:rgb(100%,100%,100%);fill-opacity:1;" d="M 61.945313 32.957031 C 62.363281 32.855469 62.957031 32.316406 62.671875 31.847656 C 62.28125 31.199219 61.550781 31.144531 60.851563 31.042969 C 61.253906 31.644531 60.800781 33.226563 61.945313 32.957031 "/>
<path style=" stroke:none;fill-rule:nonzero;fill:rgb(100%,100%,100%);fill-opacity:1;" d="M 53.042969 77.316406 C 52.890625 76.570313 50.714844 78.066406 51.382813 79.296875 C 51.398438 79.300781 51.457031 79.367188 51.429688 79.390625 C 51.933594 78.90625 53.21875 78.195313 53.042969 77.316406 "/>
<path style=" stroke:none;fill-rule:nonzero;fill:rgb(100%,100%,100%);fill-opacity:1;" d="M 60.296875 93.265625 C 62.957031 91.894531 59.902344 91.234375 59.015625 92.601563 C 59.558594 92.59375 59.957031 92.878906 60.296875 93.265625 "/>
<path style=" stroke:none;fill-rule:nonzero;fill:rgb(100%,100%,100%);fill-opacity:1;" d="M 59.507813 79.488281 C 59.066406 80.472656 57.488281 80.199219 57.144531 80.863281 C 57.953125 82.59375 60.933594 79.476563 59.507813 79.488281 "/>
<path style=" stroke:none;fill-rule:nonzero;fill:rgb(100%,100%,100%);fill-opacity:1;" d="M 53.894531 34.683594 C 54.148438 33.019531 52.046875 34.144531 51.664063 34.910156 C 52.234375 34.871094 53.753906 35.5 53.894531 34.683594 "/>
<path style=" stroke:none;fill-rule:nonzero;fill:rgb(100%,100%,100%);fill-opacity:1;" d="M 95.207031 105.128906 C 94.175781 104.75 94.121094 106.734375 95.050781 107.144531 C 95.214844 106.40625 96.164063 105.484375 95.207031 105.128906 "/>
<path style=" stroke:none;fill-rule:nonzero;fill:rgb(100%,100%,100%);fill-opacity:1;" d="M 58.089844 32.046875 C 58.816406 30.65625 56.75 30.527344 56.058594 30.941406 C 56.355469 31.109375 57.832031 32.535156 58.089844 32.046875 "/>
<path style=" stroke:none;fill-rule:nonzero;fill:rgb(100%,100%,100%);fill-opacity:1;" d="M 88.914063 99.585938 C 88.101563 99.480469 87.445313 100.667969 87.636719 101.398438 C 87.605469 101.308594 87.691406 101.378906 87.636719 101.398438 C 88.625 101.011719 89.210938 100.824219 88.914063 99.585938 "/>
<path style=" stroke:none;fill-rule:nonzero;fill:rgb(100%,100%,100%);fill-opacity:1;" d="M 67.609375 103.445313 C 67.636719 101.707031 66.160156 103.414063 65.726563 103.75 C 66.089844 103.914063 67.589844 104.289063 67.609375 103.445313 "/>
<path style=" stroke:none;fill-rule:nonzero;fill:rgb(100%,100%,100%);fill-opacity:1;" d="M 56.867188 97.128906 C 57.265625 96.851563 59.371094 96.285156 58.472656 95.660156 C 57.503906 95 56.898438 96.417969 56.867188 97.128906 "/>
<path style=" stroke:none;fill-rule:nonzero;fill:rgb(100%,100%,100%);fill-opacity:1;" d="M 59.386719 102.121094 C 59.507813 101.636719 59.902344 101.398438 60.304688 101.191406 C 59.65625 99.179688 58.265625 101.515625 59.386719 102.121094 "/>
<path style=" stroke:none;fill-rule:nonzero;fill:rgb(100%,100%,100%);fill-opacity:1;" d="M 54.132813 43.847656 C 54.519531 46.328125 56.550781 43.796875 54.132813 43.847656 "/>
<path style=" stroke:none;fill-rule:nonzero;fill:rgb(100%,100%,100%);fill-opacity:1;" d="M 49.648438 74.363281 C 49.988281 74.183594 51.960938 74.316406 50.976563 73.257813 C 50.480469 73.425781 49.457031 73.585938 49.648438 74.363281 "/>
<path style=" stroke:none;fill-rule:nonzero;fill:rgb(100%,100%,100%);fill-opacity:1;" d="M 99.148438 105.1875 C 98.167969 104.335938 97.835938 105.351563 98.355469 106.144531 C 98.625 105.824219 98.878906 105.5 99.148438 105.1875 "/>
<path style=" stroke:none;fill-rule:nonzero;fill:rgb(100%,100%,100%);fill-opacity:1;" d="M 76.847656 39.367188 C 76.460938 39.441406 76.457031 39.367188 76.296875 39.464844 C 76.34375 39.4375 76.277344 39.628906 76.296875 39.464844 C 76.257813 39.753906 76.140625 40.390625 76.667969 40.324219 C 76.726563 40.003906 76.789063 39.683594 76.847656 39.367188 "/>
<path style=" stroke:none;fill-rule:nonzero;fill:rgb(100%,100%,100%);fill-opacity:1;" d="M 77.917969 43.101563 C 78.035156 43.230469 78.171875 43.234375 78.316406 43.105469 C 78.230469 43.015625 78.128906 42.929688 78.035156 42.839844 C 77.992188 42.929688 77.953125 43.007813 77.917969 43.101563 "/>
<path style=" stroke:none;fill-rule:nonzero;fill:rgb(100%,100%,100%);fill-opacity:1;" d="M 81.847656 39.792969 C 79.808594 39.566406 78.46875 40.738281 76.746094 41.355469 C 75.777344 41.699219 74.769531 42.132813 73.726563 41.722656 C 73.25 41.527344 71.960938 40.570313 71.527344 40.5625 C 71.746094 43.234375 73.894531 43.886719 76.0625 42.878906 C 77.050781 42.414063 77.835938 41.609375 78.867188 41.199219 C 79.726563 40.859375 81.769531 40.773438 81.847656 39.792969 "/>
<path style=" stroke:none;fill-rule:nonzero;fill:rgb(100%,100%,100%);fill-opacity:1;" d="M 80.46875 34.449219 C 80.113281 34.777344 78.628906 34.308594 78.550781 33.511719 C 78.503906 33.046875 81.03125 33.933594 80.46875 34.449219 M 91.828125 42.6875 C 91.53125 41.632813 91.984375 40.421875 91.625 39.367188 C 91.511719 39.042969 90.917969 38.71875 90.933594 38.378906 C 90.941406 37.921875 91.824219 37.617188 92.085938 37.296875 C 91.792969 37.273438 91.492188 37.28125 91.210938 37.207031 C 90.941406 37.132813 90.738281 36.957031 90.582031 36.726563 C 90.433594 36.507813 90.332031 36.257813 90.214844 36.023438 C 90.105469 35.804688 89.996094 35.582031 89.898438 35.359375 C 89.863281 35.285156 89.449219 34.207031 89.550781 34.195313 C 89.074219 34.246094 87.503906 34.949219 87.488281 34.078125 C 87.488281 33.679688 89.367188 33.589844 89.796875 33.300781 C 90.386719 32.898438 90.535156 32.382813 89.808594 32.035156 C 89.101563 31.691406 88.261719 31.636719 87.507813 31.84375 C 86.726563 32.058594 86.359375 32.542969 85.824219 33.105469 C 85.796875 33.136719 85.761719 33.167969 85.722656 33.179688 C 85.4375 33.273438 85.378906 32.640625 85.410156 32.476563 C 85.46875 32.164063 85.707031 31.960938 85.953125 31.785156 C 86.214844 31.601563 86.507813 31.476563 86.808594 31.375 C 87.101563 31.273438 87.425781 31.242188 87.695313 31.085938 C 87.109375 30.234375 85.816406 29.8125 84.824219 29.8125 C 83.695313 29.757813 82.570313 30.015625 81.496094 30.34375 C 80.558594 30.625 79.644531 30.976563 78.71875 31.292969 C 78.246094 31.453125 77.539063 32.011719 77.027344 31.941406 C 76.9375 31.929688 76.871094 32.433594 76.785156 32.867188 C 76.769531 32.972656 76.746094 33.070313 76.71875 33.160156 C 76.683594 33.296875 76.648438 33.410156 76.601563 33.460938 C 76.554688 33.515625 76.496094 33.570313 76.429688 33.621094 C 76.40625 33.644531 76.375 33.664063 76.34375 33.683594 C 75.332031 34.398438 72.757813 35.003906 74.148438 36.648438 C 74.628906 37.21875 74.367188 37.695313 74.621094 38.289063 C 74.957031 39.089844 76.457031 38.847656 77.058594 38.632813 C 77.929688 38.324219 81.183594 36.761719 81.84375 37.835938 C 82.6875 39.214844 82.953125 41.117188 82.117188 42.625 C 81.3125 44.046875 79.066406 43.496094 77.773438 43.964844 C 77.84375 44.722656 77.835938 46.296875 78.785156 46.558594 C 79.804688 46.84375 81.3125 45.597656 81.925781 44.914063 C 82.074219 44.742188 83.335938 42.941406 83.574219 43.742188 C 83.84375 44.683594 82.34375 46.378906 81.773438 47.003906 C 81.085938 47.734375 79.847656 48.140625 78.867188 48.121094 C 77.65625 48.097656 76.71875 47.464844 75.574219 47.644531 C 75.546875 47.648438 75.515625 47.664063 75.484375 47.667969 C 75.347656 47.695313 75.210938 47.726563 75.066406 47.777344 C 72.949219 48.546875 70.0625 48.328125 70.71875 45.347656 C 69.265625 45.605469 68.640625 47.265625 69.429688 48.476563 C 69.84375 49.105469 70.617188 49.558594 71.335938 49.699219 C 71.367188 49.703125 71.414063 49.703125 71.46875 49.707031 L 71.664063 49.707031 C 71.714844 49.703125 71.765625 49.707031 71.820313 49.707031 C 71.839844 49.707031 71.859375 49.707031 71.878906 49.707031 C 72.3125 49.71875 72.824219 49.792969 72.757813 50.222656 C 72.667969 50.84375 71.085938 51.359375 70.53125 51.441406 C 68.828125 51.699219 67.664063 51.535156 66.183594 50.773438 C 66.058594 52.386719 67.894531 54.9375 69.800781 54.660156 C 70.328125 54.589844 70.847656 54.445313 71.375 54.363281 C 71.703125 54.3125 72.078125 54.238281 72.363281 54.453125 C 72.605469 54.640625 72.925781 55.324219 72.578125 55.546875 C 72.488281 55.605469 72.375 55.601563 72.265625 55.59375 C 71.164063 55.542969 70.085938 55.457031 69.011719 55.804688 C 67.835938 56.183594 67.164063 56.953125 66.410156 57.875 C 65.71875 58.730469 65.21875 59.246094 64.140625 59.582031 C 63.523438 59.773438 63.042969 59.445313 62.722656 58.921875 C 62.640625 58.792969 61.933594 57.304688 62.023438 57.207031 C 60.675781 58.691406 61.945313 60.691406 63.234375 61.707031 C 63.878906 62.214844 64.707031 62.679688 65.546875 62.714844 C 66.765625 62.765625 67.992188 62.097656 69.035156 61.546875 C 69.738281 61.179688 70.40625 60.75 71.074219 60.328125 C 71.535156 60.039063 72.371094 59.296875 72.9375 59.328125 C 73.179688 59.339844 73.421875 59.519531 73.445313 59.761719 C 73.46875 59.953125 73.351563 60.140625 73.199219 60.261719 C 72.832031 60.542969 72.320313 60.585938 71.957031 60.882813 C 70.71875 61.886719 71.265625 63.105469 71.453125 64.457031 C 71.789063 66.945313 67.789063 68.085938 67.613281 65.019531 C 64.976563 66.480469 65.96875 68.085938 68.4375 68.84375 C 70.242188 69.410156 73.023438 67.933594 74 66.429688 C 74.386719 65.847656 74.585938 65.078125 74.867188 64.441406 C 74.980469 64.195313 75.953125 61.972656 76.351563 62.683594 C 76.789063 63.464844 75.65625 64.511719 75.894531 65.359375 C 76.253906 66.636719 76.976563 68.367188 78.214844 69.027344 C 77.953125 68.890625 78.347656 67.117188 78.4375 66.859375 C 78.710938 66.0625 79.265625 65.421875 79.871094 64.851563 C 81.207031 63.597656 82.046875 62.144531 82.710938 60.449219 C 83.066406 59.558594 83.476563 60.738281 83.257813 61.3125 C 82.90625 62.148438 82.691406 63.128906 82.621094 64.035156 C 82.484375 65.953125 83.796875 67.9375 85.914063 67.675781 C 85.535156 67.070313 85.054688 66.699219 84.953125 65.960938 C 84.777344 64.65625 85.769531 64.132813 86.433594 63.210938 C 86.972656 62.464844 87.488281 61.515625 87.441406 60.566406 C 87.414063 60.054688 87.199219 59.574219 87.15625 59.066406 C 87.125 58.652344 87.207031 56.355469 87.992188 56.609375 C 88.011719 56.621094 88.023438 56.636719 88.035156 56.65625 C 88.304688 56.949219 87.839844 58.519531 87.898438 58.996094 C 88.027344 59.878906 88.585938 61.015625 89.355469 61.644531 C 89.851563 62.046875 91.296875 62.433594 91.621094 61.609375 C 91.363281 61.46875 91.0625 61.4375 90.78125 61.339844 C 89.6875 60.953125 89.472656 59.617188 89.734375 58.617188 C 89.90625 57.894531 90.296875 57.222656 90.445313 56.503906 C 90.585938 55.878906 89.300781 54.996094 89.59375 54.566406 C 89.835938 54.203125 91.433594 55.871094 92.171875 55.527344 C 91.691406 54.496094 91.03125 53.425781 91.332031 52.234375 C 91.632813 51.054688 91.878906 49.859375 92.113281 48.664063 C 92.242188 47.933594 92.832031 46.1875 91.792969 45.785156 C 91.449219 45.652344 90.59375 45.511719 90.40625 45.121094 C 90.300781 44.890625 90.421875 44.488281 90.726563 44.628906 C 91.566406 45.027344 92.664063 45.417969 93.449219 44.648438 C 93.71875 44.375 92.007813 43.296875 91.828125 42.6875 "/>
<path style=" stroke:none;fill-rule:nonzero;fill:rgb(10.998535%,10.998535%,10.598755%);fill-opacity:1;" d="M 207.785156 29.492188 L 209.253906 29.492188 C 211.140625 29.492188 211.617188 28.238281 211.695313 27.589844 C 211.78125 26.902344 211.507813 25.714844 209.71875 25.714844 L 208.25 25.714844 Z M 206.21875 23.574219 L 210.015625 23.574219 C 211.4375 23.574219 212.289063 23.84375 212.921875 24.410156 C 213.554688 24.980469 214.183594 25.984375 214.011719 27.402344 C 213.90625 28.222656 213.449219 29.507813 212.457031 30.363281 C 211.636719 31.0625 210.914063 31.234375 210.273438 31.382813 L 213.078125 35.945313 L 210.300781 35.945313 L 207.605469 31.214844 L 207.574219 31.214844 L 206.992188 35.945313 L 204.703125 35.945313 "/>
<path style=" stroke:none;fill-rule:nonzero;fill:rgb(10.998535%,10.998535%,10.598755%);fill-opacity:1;" d="M 218.761719 21.136719 L 222.796875 18.910156 L 223.480469 20.664063 L 219.421875 22.675781 Z M 217.121094 23.574219 L 223.777344 23.574219 L 223.511719 25.714844 L 219.152344 25.714844 L 218.777344 28.738281 L 222.960938 28.738281 L 222.695313 30.882813 L 218.515625 30.882813 L 218.15625 33.804688 L 222.519531 33.804688 L 222.257813 35.945313 L 215.605469 35.945313 "/>
<path style=" stroke:none;fill-rule:nonzero;fill:rgb(10.998535%,10.998535%,10.598755%);fill-opacity:1;" d="M 230.886719 29.644531 L 238.957031 29.644531 L 238.925781 29.910156 C 238.488281 33.4375 235.0625 36.195313 231.601563 36.195313 C 228.0625 36.195313 225.289063 33.472656 225.742188 29.757813 C 226.191406 26.117188 229.625 23.328125 233.117188 23.328125 C 236.222656 23.328125 238.222656 25.429688 238.636719 27.203125 L 235.898438 27.203125 C 235.464844 26.382813 234.445313 25.464844 232.804688 25.464844 C 230.015625 25.464844 228.269531 27.835938 228.03125 29.777344 C 227.796875 31.664063 228.925781 34.058594 231.867188 34.058594 C 233.390625 34.058594 234.910156 33.222656 235.804688 31.78125 L 230.625 31.78125 "/>
<path style=" stroke:none;fill-rule:nonzero;fill:rgb(10.998535%,10.998535%,10.598755%);fill-opacity:1;" d="M 242.546875 23.574219 L 244.832031 23.574219 L 243.316406 35.945313 L 241.027344 35.945313 Z M 242.546875 23.574219 "/>
<path style=" stroke:none;fill-rule:nonzero;fill:rgb(10.998535%,10.998535%,10.598755%);fill-opacity:1;" d="M 253.007813 34.058594 C 255.367188 34.058594 257.433594 32.066406 257.714844 29.777344 C 258.003906 27.402344 256.386719 25.464844 254.0625 25.464844 C 251.738281 25.464844 249.648438 27.402344 249.355469 29.777344 C 249.074219 32.066406 250.652344 34.058594 253.007813 34.058594 M 254.328125 23.324219 C 257.835938 23.324219 260.453125 26.132813 260.003906 29.792969 C 259.570313 33.335938 256.308594 36.195313 252.746094 36.195313 C 249.1875 36.195313 246.628906 33.335938 247.0625 29.792969 C 247.515625 26.132813 250.816406 23.324219 254.328125 23.324219 "/>
<path style=" stroke:none;fill-rule:nonzero;fill:rgb(10.998535%,10.998535%,10.598755%);fill-opacity:1;" d="M 263.027344 23.535156 L 265.59375 23.535156 L 269.539063 32.386719 L 269.574219 32.386719 L 270.660156 23.535156 L 272.914063 23.535156 L 271.421875 35.703125 L 268.902344 35.703125 L 264.910156 26.859375 L 264.875 26.859375 L 263.789063 35.703125 L 261.535156 35.703125 "/>
<path style=" stroke:none;fill-rule:nonzero;fill:rgb(10.998535%,10.998535%,10.598755%);fill-opacity:1;" d="M 147.003906 37.128906 L 153.433594 37.128906 L 163.328125 59.316406 L 163.410156 59.316406 L 166.136719 37.128906 L 171.785156 37.128906 L 168.039063 67.644531 L 161.730469 67.644531 L 151.710938 45.460938 L 151.628906 45.460938 L 148.902344 67.644531 L 143.253906 67.644531 "/>
<path style=" stroke:none;fill-rule:nonzero;fill:rgb(10.998535%,10.998535%,10.598755%);fill-opacity:1;" d="M 192.90625 56.085938 C 193.425781 51.851563 190.546875 48.710938 187.066406 48.710938 C 184.175781 48.710938 179.9375 51.183594 179.339844 56.042969 C 178.800781 60.441406 181.761719 63.289063 185.277344 63.289063 C 189.339844 63.289063 192.453125 59.769531 192.90625 56.085938 M 173.765625 56.042969 C 174.628906 49.003906 181.03125 43.601563 187.695313 43.601563 C 194.269531 43.601563 199.367188 48.835938 198.492188 55.957031 C 197.558594 63.578125 191.101563 68.394531 184.652344 68.394531 C 177.738281 68.394531 172.949219 62.699219 173.765625 56.042969 "/>
<path style=" stroke:none;fill-rule:nonzero;fill:rgb(10.998535%,10.998535%,10.598755%);fill-opacity:1;" d="M 224.164063 44.394531 L 221.308594 67.644531 L 216.203125 67.644531 L 216.492188 65.296875 L 216.40625 65.296875 C 215.332031 66.554688 213.59375 68.394531 210.035156 68.394531 C 205.804688 68.394531 203.671875 66.300781 202.695313 64.710938 C 201.28125 62.238281 201.742188 58.46875 201.980469 56.542969 L 203.472656 44.394531 L 209.042969 44.394531 L 207.589844 56.25 C 207.355469 58.136719 206.722656 63.289063 211.585938 63.289063 C 215.101563 63.289063 216.683594 59.976563 217.132813 56.292969 L 218.597656 44.394531 "/>
<path style=" stroke:none;fill-rule:nonzero;fill:rgb(10.998535%,10.998535%,10.598755%);fill-opacity:1;" d="M 227.050781 44.394531 L 233.078125 44.394531 L 236.800781 59.8125 L 236.921875 59.8125 L 244.089844 44.394531 L 250.207031 44.394531 L 237.929688 67.644531 L 233.574219 67.644531 "/>
<path style=" stroke:none;fill-rule:nonzero;fill:rgb(10.998535%,10.998535%,10.598755%);fill-opacity:1;" d="M 268.636719 54.03125 C 268.464844 50.304688 265.789063 48.589844 263.019531 48.589844 C 260.96875 48.589844 257.355469 49.714844 255.777344 54.03125 Z M 255.394531 58.511719 C 255.460938 60.019531 257.238281 63.285156 261.21875 63.285156 C 263.6875 63.285156 265.660156 62.238281 266.945313 60.3125 L 272.8125 60.3125 C 270.953125 64.5 266.035156 68.394531 260.589844 68.394531 C 253.675781 68.394531 248.996094 62.867188 249.828125 56.085938 C 250.636719 49.507813 256.445313 43.472656 263.609375 43.472656 C 270.980469 43.472656 274.851563 49.84375 274.132813 55.707031 C 273.996094 56.796875 273.710938 57.757813 273.449219 58.511719 "/>
<path style=" stroke:none;fill-rule:nonzero;fill:rgb(10.998535%,10.998535%,10.598755%);fill-opacity:1;" d="M 280.40625 36.644531 L 285.976563 36.644531 L 282.171875 67.644531 L 276.601563 67.644531 Z M 280.40625 36.644531 "/>
<path style=" stroke:none;fill-rule:nonzero;fill:rgb(10.998535%,10.998535%,10.598755%);fill-opacity:1;" d="M 290.878906 36.644531 L 296.449219 36.644531 L 292.644531 67.644531 L 287.070313 67.644531 Z M 290.878906 36.644531 "/>
<path style=" stroke:none;fill-rule:nonzero;fill:rgb(10.998535%,10.998535%,10.598755%);fill-opacity:1;" d="M 316.808594 54.03125 C 316.640625 50.304688 313.953125 48.589844 311.195313 48.589844 C 309.144531 48.589844 305.523438 49.714844 303.949219 54.03125 Z M 303.5625 58.511719 C 303.632813 60.019531 305.410156 63.285156 309.390625 63.285156 C 311.859375 63.285156 313.832031 62.238281 315.117188 60.3125 L 320.980469 60.3125 C 319.125 64.5 314.207031 68.394531 308.761719 68.394531 C 301.851563 68.394531 297.164063 62.867188 297.996094 56.085938 C 298.804688 49.507813 304.617188 43.472656 311.78125 43.472656 C 319.152344 43.472656 323.019531 49.84375 322.300781 55.707031 C 322.164063 56.796875 321.878906 57.757813 321.621094 58.511719 "/>
<path style=" stroke:none;fill-rule:nonzero;fill:rgb(10.998535%,10.998535%,10.598755%);fill-opacity:1;" d="M 286.023438 78.648438 C 285.800781 80.496094 284.121094 81.992188 282.273438 81.992188 C 280.425781 81.992188 279.113281 80.496094 279.339844 78.648438 C 279.566406 76.804688 281.246094 75.308594 283.09375 75.308594 C 284.9375 75.308594 286.253906 76.804688 286.023438 78.648438 "/>
<path style=" stroke:none;fill-rule:nonzero;fill:rgb(10.998535%,10.998535%,10.598755%);fill-opacity:1;" d="M 156.300781 95.007813 L 163.132813 95.007813 L 160.96875 85.128906 L 160.886719 85.128906 Z M 159.828125 76.730469 L 164.132813 76.730469 L 172.644531 108.929688 L 166.570313 108.929688 L 164.417969 100.621094 L 153.757813 100.621094 L 149.5625 108.929688 L 143.488281 108.929688 "/>
<path style=" stroke:none;fill-rule:nonzero;fill:rgb(10.998535%,10.998535%,10.598755%);fill-opacity:1;" d="M 187.070313 104.40625 C 190.851563 104.40625 193.953125 100.75 194.429688 96.882813 C 194.894531 93.09375 192.835938 89.261719 188.890625 89.261719 C 185.070313 89.261719 181.941406 92.785156 181.457031 96.75 C 180.859375 101.621094 183.734375 104.40625 187.070313 104.40625 M 200.984375 84.78125 L 196.539063 120.46875 L 191.191406 120.46875 L 192.953125 106.625 C 189.960938 109.710938 186.421875 109.710938 185.777344 109.710938 C 179.019531 109.710938 175.304688 103.273438 176.125 96.621094 C 176.972656 89.695313 182.867188 83.953125 188.980469 83.953125 C 193.523438 83.953125 195.007813 86.609375 195.621094 87.828125 L 195.699219 87.828125 L 196.074219 84.78125 "/>
<path style=" stroke:none;fill-rule:nonzero;fill:rgb(10.998535%,10.998535%,10.598755%);fill-opacity:1;" d="M 225.144531 84.78125 L 222.179688 108.929688 L 217.277344 108.929688 L 217.578125 106.492188 L 217.496094 106.492188 C 216.453125 107.796875 214.765625 109.710938 211.351563 109.710938 C 207.289063 109.710938 205.265625 107.539063 204.339844 105.882813 C 203.007813 103.320313 203.488281 99.402344 203.734375 97.402344 L 205.285156 84.78125 L 210.632813 84.78125 L 209.121094 97.097656 C 208.878906 99.054688 208.222656 104.40625 212.890625 104.40625 C 216.265625 104.40625 217.8125 100.96875 218.285156 97.140625 L 219.800781 84.78125 "/>
<path style=" stroke:none;fill-rule:nonzero;fill:rgb(10.998535%,10.998535%,10.598755%);fill-opacity:1;" d="M 240.671875 89.917969 L 238.058594 89.917969 L 238.6875 84.78125 L 241.304688 84.78125 L 242.289063 76.730469 L 247.636719 76.730469 L 246.648438 84.78125 L 249.863281 84.78125 L 249.234375 89.917969 L 246.019531 89.917969 L 243.683594 108.929688 L 238.339844 108.929688 "/>
<path style=" stroke:none;fill-rule:nonzero;fill:rgb(10.998535%,10.998535%,10.598755%);fill-opacity:1;" d="M 262.824219 89.265625 C 258.441406 89.265625 255.6875 93.355469 255.242188 96.96875 C 254.742188 101.058594 257.144531 104.40625 260.964844 104.40625 C 264.664063 104.40625 267.867188 101.273438 268.414063 96.792969 C 269.027344 91.785156 266.007813 89.265625 262.824219 89.265625 M 271.992188 108.929688 L 267.085938 108.929688 L 267.453125 105.925781 C 265.496094 108.101563 262.003906 109.710938 259.1875 109.710938 C 253.4375 109.710938 248.9375 104.753906 249.921875 96.703125 C 250.832031 89.308594 256.476563 83.953125 262.671875 83.953125 C 267.21875 83.953125 269.476563 87.480469 269.59375 87.828125 L 269.679688 87.828125 L 270.050781 84.78125 L 274.960938 84.78125 "/>
<path style=" stroke:none;fill-rule:nonzero;fill:rgb(10.998535%,10.998535%,10.598755%);fill-opacity:1;" d="M 289.472656 84.78125 L 294.417969 84.78125 L 294.164063 86.871094 C 295.160156 85.953125 297.253906 83.953125 300.632813 83.953125 C 302.5625 83.953125 305.386719 84.867188 306.9375 87.304688 C 308.660156 89.957031 308.164063 94.007813 307.933594 95.878906 L 306.332031 108.929688 L 300.984375 108.929688 L 302.445313 97.007813 C 302.695313 95.007813 303.398438 89.261719 298.894531 89.261719 C 297.933594 89.261719 296.136719 89.785156 294.976563 91.394531 C 293.824219 92.875 293.515625 95.394531 293.265625 97.445313 L 291.855469 108.929688 L 286.507813 108.929688 "/>
<path style=" stroke:none;fill-rule:nonzero;fill:rgb(10.998535%,10.998535%,10.598755%);fill-opacity:1;" d="M 329.660156 94.789063 C 329.535156 90.917969 326.980469 89.132813 324.328125 89.132813 C 322.355469 89.132813 318.871094 90.308594 317.316406 94.789063 Z M 316.902344 99.445313 C 316.953125 101.011719 318.628906 104.40625 322.449219 104.40625 C 324.824219 104.40625 326.726563 103.320313 327.976563 101.316406 L 333.605469 101.316406 C 331.789063 105.667969 327.023438 109.710938 321.800781 109.710938 C 315.164063 109.710938 310.722656 103.96875 311.585938 96.921875 C 312.425781 90.089844 318.058594 83.820313 324.933594 83.820313 C 332.015625 83.820313 335.667969 90.4375 334.917969 96.53125 C 334.78125 97.660156 334.496094 98.660156 334.238281 99.445313 "/>
<path style=" stroke:none;fill-rule:nonzero;fill:rgb(10.998535%,10.998535%,10.598755%);fill-opacity:1;" d="M 226.960938 108.917969 L 232.304688 108.917969 L 235.269531 84.769531 L 229.921875 84.769531 Z M 226.960938 108.917969 "/>
<path style=" stroke:none;fill-rule:nonzero;fill:rgb(10.998535%,10.998535%,10.598755%);fill-opacity:1;" d="M 237.039063 78.316406 C 236.800781 80.273438 235.019531 81.851563 233.070313 81.851563 C 231.117188 81.851563 229.730469 80.273438 229.96875 78.316406 C 230.210938 76.363281 231.988281 74.785156 233.9375 74.785156 C 235.890625 74.785156 237.28125 76.363281 237.039063 78.316406 "/>
<path style=" stroke:none;fill-rule:nonzero;fill:rgb(10.998535%,10.998535%,10.598755%);fill-opacity:1;" d="M 276.320313 108.917969 L 281.671875 108.917969 L 284.632813 84.769531 L 279.285156 84.769531 Z M 276.320313 108.917969 "/>
<path style=" stroke:none;fill-rule:nonzero;fill:rgb(10.998535%,10.998535%,10.598755%);fill-opacity:1;" d="M 325.796875 55.964844 C 325.941406 54.789063 327.027344 53.828125 328.210938 53.828125 L 334.988281 53.828125 C 336.171875 53.828125 337.023438 54.789063 336.878906 55.964844 L 336.824219 56.390625 C 336.679688 57.566406 335.59375 58.527344 334.410156 58.527344 L 327.632813 58.527344 C 326.449219 58.527344 325.601563 57.566406 325.742188 56.390625 "/>
<path style=" stroke:none;fill-rule:nonzero;fill:rgb(100%,100%,100%);fill-opacity:1;" d="M 85.550781 77.167969 C 85.542969 77.152344 85.539063 77.144531 85.535156 77.132813 C 85.453125 76.984375 85.371094 76.910156 85.328125 76.890625 C 84.878906 76.5625 84.027344 76.792969 83.945313 77.515625 C 83.875 78.210938 84.421875 78.671875 85.074219 78.726563 C 85.429688 78.765625 85.539063 78.4375 85.578125 78.09375 L 85.578125 78.097656 C 85.621094 77.835938 85.628906 77.640625 85.617188 77.488281 C 85.617188 77.480469 85.582031 77.238281 85.550781 77.167969 "/>
</g>
</svg>
