<?xml version="1.0" encoding="UTF-8"?>
<svg id="Calque_1" data-name="Calque 1" xmlns="http://www.w3.org/2000/svg" xmlns:xlink="http://www.w3.org/1999/xlink" viewBox="0 0 473.25 109.02">
  <defs>
    <style>
      .cls-1, .cls-2, .cls-3, .cls-4 {
        fill: none;
      }

      .cls-2 {
        stroke-linecap: round;
        stroke-width: .36px;
      }

      .cls-2, .cls-5, .cls-6, .cls-7, .cls-8, .cls-3 {
        stroke: #1d1d1b;
      }

      .cls-2, .cls-5, .cls-6, .cls-3 {
        stroke-linejoin: round;
      }

      .cls-9 {
        clip-path: url(#clippath);
      }

      .cls-5, .cls-6, .cls-3 {
        stroke-width: .07px;
      }

      .cls-5, .cls-10, .cls-8 {
        fill: #e30613;
      }

      .cls-6, .cls-7 {
        fill: #004982;
      }

      .cls-11 {
        fill: #f9b000;
      }

      .cls-12 {
        fill: #fff;
      }

      .cls-13, .cls-14, .cls-15 {
        fill: #1d1d1b;
      }

      .cls-14 {
        stroke-width: .06px;
      }

      .cls-14, .cls-15, .cls-4 {
        stroke: #fff;
      }

      .cls-7 {
        stroke-width: .16px;
      }

      .cls-8 {
        stroke-width: .08px;
      }

      .cls-15 {
        stroke-width: .02px;
      }

      .cls-4 {
        stroke-width: .18px;
      }
    </style>
    <clipPath id="clippath">
      <path class="cls-1" d="m239.98,108.02h0l2.69-.99,2.89-1.2c6.57-2.76,7.65-3.13,15.2-6.33,4.35-1.84,17.98-7.44,17.98-7.44V10.02h-77.52s-.11,68.85-.11,82.04c0,0,24.56,10.35,29,11.81"/>
    </clipPath>
  </defs>
  <g class="cls-9">
    <polygon class="cls-11" points="281.4 109.02 281.15 0 198.38 0 198.63 109.02 281.4 109.02"/>
    <polygon class="cls-12" points="278.51 98.06 281.17 51.19 240.3 51.18 240.35 108.56 278.51 98.06"/>
    <rect class="cls-10" x="205.46" y=".01" width="4.25" height="96.38"/>
    <rect class="cls-10" x="214.08" y=".01" width="4.25" height="99.94"/>
    <rect class="cls-10" x="222.7" width="4.25" height="103.77"/>
    <rect class="cls-10" x="231.32" width="4.25" height="106.89"/>
  </g>
  <path class="cls-2" d="m278.63,92.06V10.02h-77.52v82.04l39.2,15.96,38.32-15.96Z"/>
  <g>
    <g>
      <path class="cls-15" d="m271.22,84.65c-.66-5.06-2.79-8.2-5.2-8.2s-4.56,3.67-5.17,9"/>
      <path class="cls-15" d="m258.06,85.49c-.53-5.52-2.76-8.98-5.29-8.98-2.34,0-4.37,3.36-5.08,8.32"/>
      <path class="cls-14" d="m264.1,85c-.93-3.62-2.74-5.77-4.73-5.77s-3.73,2.39-4.65,6.11"/>
    </g>
    <polygon class="cls-8" points="257.78 60.54 257.56 60.46 257.35 60.46 257.19 60.46 256.98 60.46 256.8 60.51 256.65 60.59 256.48 60.67 256.3 60.7 256.11 60.67 255.91 60.64 255.72 60.57 255.57 60.46 255.41 60.31 255.33 60.05 255.31 59.86 255.29 59.7 255.2 59.65 255.09 59.73 255.09 59.94 255.11 60.18 255.2 60.46 255.29 60.67 255.41 60.8 255.55 60.93 255.72 61.01 255.93 61.03 256.13 61.01 256.3 61.01 256.48 60.93 256.69 60.88 256.98 60.8 257.24 60.8 257.43 60.83 257.63 60.9 257.78 60.98 257.97 61.11 258.13 61.22 258.3 61.24 258.34 61.06 258.28 60.83 258.17 60.67 258.06 60.59 257.95 60.49 257.78 60.54"/>
    <polyline class="cls-8" points="258.15 61.36 257.89 61.32 257.57 61.18 257.14 61.11 256.82 61.15 256.47 61.29 256.18 61.49 256.35 61.46 256.59 61.42 256.88 61.42 257.22 61.49 257.54 61.63 257.77 61.77 257.97 61.88 259.33 61.69 259.26 60.62 258.5 59.84 257.99 59.79 257.85 58.96 257.48 59.07 257.28 58.82 257.02 58.68 256.79 58.65 256.46 58.72 256.2 58.87 255.95 59.1 255.8 59.31 255.69 59.69 255.75 60.11 255.86 60.42 255.98 60.21 256.12 60.07 256.35 60 256.64 60.04 256.99 60.11 257.34 60.24 257.69 60.46 257.92 60.66 258.12 60.87 258.21 61.15 258.15 61.36"/>
    <path class="cls-8" d="m261.73,57.29l-.8,1.02.21-1.5-.68,1.26.15-1.52-.62,1.35.05-1.54-.51,1.33-.02-1.49-.47,1.36-.04-1.45-.43,1.39-.03.04-.2-1.43-.27,1.37-.36-1.37-.15,1.45-.41-1.36.09,1.48h0s0,.53,0,.53v.29s0,0-.01,0h0s0,.22,0,.22c-.02.04.59.01.56.02l2.5.67c.13.11.64.11.62.2l.1-.37s0,0,0,.01l.14-.55h0s0,0,0-.01l.02-.09.57-1.32Z"/>
    <path class="cls-7" d="m271.98,84.95v-.31c-.74-.16-1.02-.6-1.05-1.12-.03.51-.53.93-1.24,1.1h-1.3c-.74-.16-1.27-.61-1.27-1.14v.02c-.01.53-.53.97-1.26,1.15h-1.28c-.75-.16-1.28-.61-1.28-1.15h-.03c0,.55-.57,1.02-1.35,1.17h-1.08c-.77-.14-1.35-.58-1.38-1.12-.02.54-.58.99-1.34,1.14h-1.09c-.76-.13-1.32-.56-1.37-1.08-.04.51-.57.94-1.29,1.09h-1.23c-.72-.16-1.26-.59-1.29-1.1-.06.54-.68.98-1.48,1.1h-.84c-.82-.12-1.43-.57-1.49-1.12-.05.52-.47.95-1.23,1.09v2.46h25.18v-2.18Z"/>
    <polygon class="cls-8" points="257.27 68.46 256.42 67.62 256.42 67.61 256.41 67.61 256.2 67.4 256.23 67.56 255.72 67.43 256.11 66.42 254.03 65.88 251.86 65.04 250.77 63.38 249.22 63.44 248.86 64.99 248.72 65.45 248.29 65.5 248.3 66.7 247.94 67.82 247.94 68.75 247.87 69.48 247.87 70.27 247.99 70.87 247.87 71.6 247.94 72.46 247.87 73.25 247.94 74.05 248.05 74.78 248.29 75.24 248.29 75.84 248.41 76.63 248.47 77.3 248.65 77.96 248.77 78.62 249.01 78.42 249.07 77.83 249.07 76.9 249.07 75.77 249.13 74.58 249.49 74.72 249.67 74.12 249.67 73.65 249.91 73.79 250.15 73.39 250.21 72.93 250.39 73.12 250.69 72.86 250.86 72.19 251.04 72.33 251.4 72.06 251.58 71.47 251.59 71.43 251.67 71.49 251.99 71.44 251.94 71.93 252.18 72.26 252.48 72.19 252.72 72.53 253.08 72.66 253.14 72.44 253.26 72.79 253.56 72.99 253.97 72.92 254.45 73.06 254.63 72.53 254.63 71.73 254.57 70.94 254.54 70.74 254.64 70.74 254.61 71.12 254.85 71.52 255.15 71.43 255.39 71.84 255.75 71.99 255.87 71.52 255.93 70.56 255.93 70.02 256.05 70.59 256.34 70.86 256.52 70.26 256.52 69.33 256.49 68.87 256.86 70.65 257.16 70.91 257.33 70.32 257.33 69.39 257.27 68.46"/>
    <path class="cls-8" d="m271.79,69.76l-.06-.73v-.93l-.33-1.01c-.01-.11-.03-.22-.04-.32v-.99s-.18-.02-.18-.02c-.18-.76-.4-1.35-.56-1.57-.35-.5-2.24.38-2.9.47-.65.09-1.63.26-1.63.26,0,0-.21.89-1.13,1.24-.92.35-2.1.24-2.1.24l-.37,1.41-.79.77-.06.93v.93l.18.6.3-.27.2-.99v.81l.18.6.3-.26.37-1.8-.03.49v.93l.18.6.3-.27.11-.6v.57l.06.95.12.48.36-.15.24-.4.3.08.24-.39-.03-.38h.11l-.04.2-.06.79v.8l.18.53.48-.13.42.07.3-.2.12-.35.06.22.36-.13.24-.33.3.07.24-.33-.04-.49.31.05.09-.06v.04s.18.6.18.6l.36.26.18-.13.18.67.3.26.17-.19.07.45.24.4.24-.13v.46l.18.6.36-.13.06,1.19v2.05l.06.6.24.2.12-.67.18-.66.06-.66.12-.79v-.6l.24-.46.12-.73.06-.8-.06-.8.06-.86-.12-.73.12-.6v-.79Z"/>
    <g>
      <path class="cls-4" d="m265.99,85.91c-.54-.22-.9-.6-.9-1.04v.02c-.01.68-.87,1.22-1.92,1.22s-1.91-.54-1.91-1.22h-.04c0,.68-.85,1.22-1.91,1.22s-1.91-.54-1.91-1.22v.02c0,.67-.85,1.22-1.9,1.22s-1.91-.55-1.91-1.22v.02c.01.68-.84,1.22-1.9,1.22s-1.91-.54-1.91-1.22v-.03c.01.67-.84,1.22-1.89,1.22s-1.91-.54-1.91-1.22h.01c0,.41-.25.73-.77.95"/>
      <path class="cls-4" d="m273.62,85.93c-.54-.22-.9-.6-.9-1.04v.02c-.01.67-.87,1.22-1.92,1.22s-1.91-.55-1.91-1.22h-.03c0,.67-.85,1.22-1.91,1.22s-1.91-.55-1.91-1.22v.02c0,.67-.85,1.22-1.9,1.22s-1.91-.55-1.91-1.22v.03c.01.68-.84,1.22-1.89,1.22s-1.91-.55-1.91-1.22v-.03c.01.67-.84,1.22-1.9,1.22s-1.91-.55-1.91-1.22v-.02c.01.43-.24.75-.76.97"/>
    </g>
    <path class="cls-8" d="m268.9,77.03l-.13-.18-.15-.13-.2-.18-.21-.1-.22-.05h-.4s.03-.03.03-.03l.24-.13.26-.05s.05,0,.07,0h.02s.26-.1.26-.1l.2.03.13.11.15.13.06.24.07-.18-.03-.29-.04-.23-.09-.21-.17-.18-.17-.13h0l-.02-.08-.22-.21-.24-.02-.28.13-.24.1-.24.21-.26.21-.3.18-.28.21-.33.16-.23.09-.36-.12-.35-.11-.35-.16-.37-.21-.3-.16-.3-.18-.32-.29-.26-.26-.18-.21-.25-.29-.24-.28-.28-.36-.93-.24.65,1.64.28.26.3.18.35.31.46.29.39.18.35.1.39.1.28.05.41.21.17.08-.37.08-.26.03-.26.02-.28.03-.24.05-.22.13-.17.18-.09.31.03.18h0s-.07.27-.07.27l-.02.23.02.26.11.16.13.18.18.05.21.03h.17l.15-.05-.13-.03-.18-.02-.11-.16-.09-.16v-.21l.04-.09.07.02.15-.05.11-.16.09-.16.06-.18.09-.18.2.05.3.02.3-.02.24-.08.17-.08.17-.16.13.05.17.11.22.13.24.16.22.15.17.13.04.1-.04.15v.21l.06.18.2.1h.04s.02.16.02.16l.11.21.07.21-.04.21-.13.13-.15.11-.26.03.13.11.22.02.13-.05.13-.1.17-.13.13-.21.07-.26.02-.29-.02-.23-.05-.1.03-.03.02-.24-.05-.18-.15-.13v-.18l-.09-.15-.13-.13-.17-.21-.22-.16h.11l.15-.03.17-.03.17-.02h.32l.07.08-.11.08.04.21.11.23.17.1.02.08.06.18v.21l-.02.21-.09.16h.09l.15-.13.15-.19.04-.18.05-.21.02-.23-.03-.1.08-.08.07-.21-.04-.21-.08-.13Z"/>
    <path class="cls-8" d="m256.96,73.71l-.28.36-.24.29-.25.28-.18.21-.26.26-.33.29-.3.18-.3.16-.37.21-.35.16-.35.11-.36.12-.23-.09-.33-.16-.28-.21-.3-.18-.26-.2-.24-.21-.24-.1-.28-.13-.24.02-.22.21-.02.08h0l-.17.13-.17.18-.09.21-.04.24-.02.29.07.18.06-.23.15-.13.13-.11.2-.03.26.1h.01s.07.01.13.02l.21.04.24.13.03.04h-.1s-.3,0-.3,0l-.22.05-.22.1-.19.18-.15.13-.13.18-.09.13-.05.21.07.21.07.08-.03.1.02.23.04.21.05.18.15.18.15.13h.09l-.09-.16-.02-.21v-.21l.07-.18.02-.08.18-.11.11-.23.04-.21-.11-.08.07-.08h.33l.17.03.17.02.15.03h.11l-.22.16-.17.21-.13.13-.09.16v.18l-.15.13-.04.18.02.23.03.03-.05.1-.02.24.02.29.06.26.13.21.17.13.13.1.13.05.22-.03.13-.1-.26-.02-.15-.1-.13-.13-.04-.21.07-.21.11-.21.03-.14.04-.02.19-.11.07-.18v-.21l-.05-.15.05-.1.17-.13.21-.16.24-.16.22-.13.17-.1.13-.05.17.16.17.08.24.08.3.02.31-.02.19-.05.09.18.07.18.09.16.11.15.15.05h.07s.04.08.04.08v.21l-.09.16-.11.16-.17.03-.13.02.15.05h.17l.22-.03.17-.05.13-.18.11-.16.02-.26-.02-.23-.07-.26h0s.03-.18.03-.18l-.09-.31-.17-.18-.22-.13-.24-.05-.28-.03-.26-.02-.26-.03-.37-.08.17-.08.41-.21.28-.05.39-.1.34-.11.39-.18.46-.29.35-.31.3-.18.28-.26.65-1.64-.93.23Z"/>
    <path class="cls-8" d="m271.85,66.05l-.06-.66-.18-.53-.24-.4-.3-.46c-.19-.33-.3-.65-.48-.8-.18-.15-.84-.67-1.5-.65-.66,0-.94.45-1.01.66-.07.21-.17,1.18-.4,1.28-.23.1-.61-.09-.86-.29-.26-.2-.53-.45-.88-.23-.34.22-.1,1.67-.73,1.95-.18.08-.5-.2-.68-.19-.17,0-.91.51-1.23.41-.32-.1-.73-.61-.91-.83-.18-.22-.44-.39-.52-.45l-.29-.28-.17-.28-.03-.08c-.24-.47-.26-.85-.28-1.15-.01-.32.09-1.22.04-1.7-.04-.47-.15-1.11-.18-1.29-.02-.11-.09-.25-.07-.46v-.02l-.27-.34-.07-.07s-.05-.04-.07-.06c-.02-.02-.06-.05-.09-.07l-.14-.11-.1-.07c-.32-.17-.74-.29-1.06-.4l-.14-.03-.35-.04-.35-.07h-.58l-.2.07-.11.17-.09.21.2.24.15.24.17.28.19.34.2.46.16.32.13.19.16.35v.35l-.27.19-.31.03-.18-.03.3.34.23.21.14.17v.31l-.09.31-.12.24-.12.31-.03.24c-.05.09-.22.18-.53.47-.31.29-.34.58-.45.71-.11.13-.36.16-.45.27-.1.1-.22.44-.37.48-.14.03-.73-.2-1.02-.31-.29-.11-.33-.05-.57.1-.23.15-.65-.33-.79-.55-.13-.22,0-1.07-.2-1.31-.19-.25-.59-.15-.79,0-.2.16-.71.5-1.06.42-.36-.08-.36-1.3-.61-1.56-.26-.27-.53-.51-1.32-.29-.79.22-1.14.77-1.21.91l-.24.46-.3.46-.24.39-.18.53-.06.66-.06.73.06.79.12.53.24.13.12-.26.18-.46.18-.46.18-.53.12-.53.12.46.12.33.3.13.3-.13.24-.4.12-.4.06-.53.18.6.18.46.24.27.36.06.3-.26v-.46l.36.39.3.2.36.33.3.26h.42l.24.4.24-.06.24.26h.3l.24-.2.18-.4.36.33.3-.07.23.35.59.3.46.52.72.15.02.02-.03.13.03.31.06.39.06.19.02.08-.03.17.03.31.04.16.02.05-.06.24v.31l-.03.28-.14.24-.15.17-.2.21-.2.28-.15.35-.09.28-.03.35h-.37l-.38.14-.17.21v.28l.09-.24.2-.14.2-.07.35.04-.32.17-.14.28.17-.14.17-.1h.2l.23-.04-.26.21-.23.35-.12.38.09.21.06-.24.11-.28.14-.11.23-.07h.2l.26-.07-.12.24-.15.24-.17.17-.26.14.2.04.2-.04.2-.1.23-.21-.12.28-.06.25-.12.28-.2.21.23.03.23-.14.21-.28.23-.28-.15.31-.08.28-.15.31-.32.27-.26.11.12.07h.26l.26-.03.26-.07.29-.11.17-.17.26-.2-.06.24-.12.24-.09.24.17-.21.12-.17.17-.38.03.21-.06.31-.06.24-.12.24-.2.21-.15.14-.23.14-.32.1-.35.04-.38.04-.46-.04-.29-.17-.29-.1.14.17.14.21.2.21.23.18.26.1.32.04.29-.04.32-.03.26-.1.2-.14.23-.28.03.38-.09.28-.09.24-.12.21-.2.24-.26.24-.23.21-.26.1-.26.1-.32.11-.32.03-.4.04-.35.03h-.35l-.32.07-.26.07-.29.17-.23.17-.14.21-.11.21-.03.31.03.24.11.28.14.14.17.07.2.04.2-.07.17-.24-.14.14-.15.1h-.17l-.17-.1-.08-.21v-.21l.03-.24.12-.24.23-.21.29-.1.32-.07.26.04h.35l-.23.14-.18.24-.09.35.03.28.14.21.23.17h.35l-.15-.07-.17-.21-.06-.24.06-.28.17-.21.23-.1.32-.03.34-.11.29-.14.4-.1.29-.21.29-.21.29-.28.2-.28.26-.42-.03.42v.35l-.15.31-.14.28-.23.24-.26.28-.23.21-.2.21-.23.17-.29.07h-.29l-.26-.03-.23-.07-.32-.28.23.28.2.21.29.14.2.1.32-.03.38-.1.26-.14.26-.21.26-.17.26-.31.23-.24-.08.17.03.28-.03.32-.03.35-.11.31-.15.17-.2.1-.32-.04.23.14h.26l.2-.03.26-.14v.24l.03.35.12.38.12.28.06-.24.09-.31.09-.38.06-.31.03-.21.17.21.2.14.2.1.32-.07-.23-.1-.11-.17-.15-.24-.08-.21-.06-.28-.03-.21.06-.35.21.28.17.24.32.17.23.1.23.1.35.04.29-.1.29-.07.23-.21.2-.17.17-.31-.11.14-.18.1-.17.07-.2.07-.2.03-.29-.1-.29-.14-.29-.14-.23-.17-.2-.17-.14-.28-.14-.35-.17-.45-.11-.52-.06-.63-.06-.8.12.42.14.35.2.38.23.28.32.35.26.28.29.17.34.21.35.17.35.07.2.1.2.14.12.17.09.31v.31l-.12.21-.38.21.29-.04.23-.14.17-.21.12-.28v-.28l-.09-.31-.17-.31-.26-.2-.41-.14.29.04h.96l.38.11.38.17.26.17.23.24.17.28.08.42v.56l.12-.42v-.38l-.09-.38-.17-.31-.26-.28-.32-.24-.43-.17-.35-.14-.4-.03h-.93l-.44-.11-.34-.14-.35-.24-.29-.28-.2-.24-.14-.38-.15-.35-.29-.42.29.24.23.24.29.21.43.18.41.03.49-.03.32-.11.29-.21.32-.38.23-.45-.17.28-.23.21-.26.14-.32.1-.35.04-.43-.07-.4-.07-.32-.17-.35-.28-.23-.38-.2-.35-.14-.45.14.35.2.28.29.28.26.07-.32-.24-.15-.25-.14-.28-.2-.62.2.38.23.31.23.17.26.14h.29l.2-.11.09-.1-.23.03h-.23l-.26-.14-.17-.24-.14-.35v-.45l.06-.35.03-.42.09.45.2.31.26.31.32.35.17.45.12.24.11-.35-.06-.31-.17-.42.26.31.14.35.14.56.03-.49v-.35l-.12-.35-.09-.35.17.17.23.28.17.24.12.24.11.35.09.25.09-.35v-.42l-.09-.35-.14-.28-.23-.42.26.14.15.17.17.28.17.42.12-.04-.06-.45-.09-.35-.17-.31-.09-.21.2.07.2.11.29.28-.2-.42-.32-.45-.2-.38-.17-.42-.17-.42-.35-.42-.26-.31-.23-.1.12-.45.08-.42v-.61s.12-.29.12-.29l.06-.45.03-.42,1.19-.18.46-.51.59-.3.23-.34.3.06.36-.33.18.4.24.2h.3l.24-.26.24.06.24-.4h.42l.29-.26.36-.33.3-.2.36-.39v.46l.29.27.36-.07.24-.27.18-.46.18-.6.06.53.12.4.24.4.3.13.3-.13.12-.33.12-.46.12.53.18.53.18.46.18.46.12.27.24-.13.12-.53.06-.8-.06-.73Z"/>
    <path class="cls-13" d="m258.28,59.6c.09,0,.11.05.11-.05s-.07-.18-.16-.18-.15.08-.15.18.12.05.2.05Z"/>
  </g>
  <g>
    <path class="cls-5" d="m258.43,24.08c.14.88.16,1.87.12,2.28-.05.42.12,1.64-1.29,1.48.41-.55.35-.81.28-1.43-.07-.62-.39-1.8-.69-2.15-.3-.35-.46-.49-.46-.49,0,0,.07.35.16.76.09.41.05,1.13-.09,1.34-.14.21-.51.48-1.18.44.44-.39.56-.6.51-1.18-.06-.74-.65-1.78-1.13-2.33.53-.23,2.52.44,2.52.44l1.27.83Z"/>
    <path class="cls-5" d="m265.74,32.98c.41-.17.95-.45,1.28-.46.33-.01.82.37.89.8.24-.43.33-1.28.73-1.61.39-.32,1.16-.24,1.67-.13-.69-.34-1.25-.85-1.84-1.9-.59-1.05-1.14-1.75-1.31-2.12-.16-.38-.08.64-.08.64l-.49,1.68-.76,2.53-.1.57Z"/>
    <path class="cls-5" d="m260.92,29.14c-.53,1.04-1.18,3.6-2.29,4.39-1.11.79-1.39,1.04-2.33,1.13.76.18,1.96.32,1.76.72-.21.39-.14.27-.14.27,0,0,.44-.07.53.02.09.09.23.55.23.79s-.16.65.23.28c.39-.37,2.15-3.7,2.17-4.21.02-.51-.16-3.39-.16-3.39Z"/>
    <path class="cls-5" d="m265.66,33.41c-.19,1.71-.92,3.85-.83,5.8.09,1.94.12,3.14.88,4.76.21.44-.28.42-.46.09-.18-.32-.69-2.54-1.25-3.05-.56-.51-1.16-.58-1.16.02s-.48.53-.58-.07c-.09-.6-.11-1.29-1.92-1.06-.92.12-1.5.56-1.5.56l6.81-7.05Z"/>
    <g>
      <path class="cls-6" d="m254.31,38.68c1.97-.59,6.65-2.09,6.44-7.27-.22-5.18-1.79-6.84-4.16-8.13-.95-.46-1.97-.43-1.97-.43l-.31-.4s-.52-.21-1.48-.52c-.95-.31-2.59-.23-2.99-.17-.4.06-.49-.25-.09-.43.4-.18,3.54-.2,3.91-.01.03-.43-.86-.95-1.97-1.14-1.11-.19-2.77-.19-3.14-.68-.37-.49-.61-.8-.31-.92.31-.12,1.57.62,2,.43.43-.18.9-.28,1.26-.59-.53-.49-.61-1.05-.34-1.63.28-.58,1.42-1.76,4.44-1.23,3.02.53,7.61,3.6,9.05,5.42,1.45,1.81,3.2,3.82,2.59,7.79-.62,3.97-2.46,6.8-4.65,8.62-2.19,1.82-4.87,4.74-4.87,4.74l-.43-2.71-2.99-.74Z"/>
      <line class="cls-3" x1="251.52" y1="18.4" x2="252.01" y2="18.39"/>
    </g>
    <path class="cls-13" d="m253.92,18.81c0,.12.11.21.23.21.12,0,.22-.1.22-.22,0-.12-.11-.21-.23-.2-.12,0-.22.1-.22.21Z"/>
    <path class="cls-5" d="m260.88,36.53c-2.87,1.84-6.37,3.37-9.98-.09-2.28-2.19-1.79-2.25-2.53-2.31-.74-.06-1.26.18-1.39.46.59-.03,1.36-.22,1.97.68.62.89.83,1.85.49,2.12-.34.28-.09-.19-.4.03-.31.21-.09.56.43.98.53.44.62.25.8.37.19.12.68,1.23.99,1.45.31.21,3.48,1.23,5.85-.37-2.4,1.79-3.64,2.03-5.7,2.25,1.54.49,2.34.62,3.02,1.39.68.77.09,1.36.71,1.36s.12-.56.4-.56,1.2.37,1.48.99c.28.61.61,2,1.97,2.31,1.36.31,1.69-.28,1.76-.56-.65-.03-.71.68-1.69-.12-.98-.8-2-2.93-.46-5.57,1.54-2.65,2.8-3.66,2.9-4.56-.52.34-.86.43-.86.43l.25-.68Z"/>
    <path class="cls-5" d="m253.71,15.41c.56-.04,3.18.15,4.24-1.28-.02.46-.31.84-.8,1.14.63.08,1.5.07,2.18-.04.68-.12,1.74-.57,2.05-1.17-.09.76-.62.99-.95,1.28-.34.29-.39.58-1.17.59.79.17,1.76.56,2.45.66.69.1,2.17.2,3.23-.84-.25.88-.6,1.29-1.48,1.53-.88.23-.96.29-1.42.31.59.6,1.26,1.35,2.15,2.2.89.84,2.25,2.22,4.2.99-.28.82-1.06,1.06-1.94.94-.88-.13-1.71-.32-2.38-.72s-.77-.71-1.05-1.34c.17.79.44,1.74.66,1.9-.31-.14-1.1-.98-1.27-1.41-.26.22-.46.48-.74.56.08-.36.36-.75-.02-1.29-.38-.53-1.06-1.12-1.27-1.35.16.66.35,1.24.24,1.48-.1.24-.5.81-.7,1,.08-.39.17-.81.17-.81,0,0-.37.7-.55.87-.18.16-.58.42-1.62.38.88-.38,1.52-.7,1.43-1.68-.09-.97-.31-1.68-1.16-2.36-.84-.68-1.7-1.06-2.31-1.18-.61-.12-1.4-.12-1.7-.21-.3-.09-.49-.15-.49-.15Z"/>
  </g>
  <g>
    <path class="cls-13" d="m15.51,38.88l-2.57-4.6h-3.71v11.56H0V10.77h10.62c9.78,0,16.25,3.8,16.25,11.76,0,3.61-1.58,6.77-5.09,8.6l2.42,3.85c2.42,3.95,3.51,4.5,5.98,4.79l-.69,6.42c-8.7-.1-10.47-.69-13.98-7.31Zm-4.59-20.9h-1.68v9.88s1.68.1,3.46.1c2.77,0,4.64-1.58,4.64-4.69,0-3.75-2.62-5.29-6.42-5.29Z"/>
    <path class="cls-13" d="m34.64,45.85V10.77h20.95v7.56h-11.71v6.13h10.82v7.41h-10.82v6.32h13.19l-.54,7.66h-21.89Z"/>
    <path class="cls-13" d="m80.69,46.34c-12.35,0-20.01-5.93-20.01-18.18,0-11.46,8.1-17.89,20.06-17.89,2.96,0,7.11.49,10.57,1.53l-.79,7.51c-4.3-1.14-7.36-1.38-9.78-1.38-6.67,0-10.52,3.16-10.52,9.73,0,7.21,4.1,11.07,9.93,11.07.94,0,2.12-.1,3.41-.44v-9.34h9.24v10.77c0,2.47.1,4.5.1,4.5-4.5,1.38-8.55,2.12-12.2,2.12Z"/>
    <path class="cls-13" d="m98.78,10.77h9.24v35.08h-9.24V10.77Z"/>
    <path class="cls-13" d="m130.9,46.34c-10.97,0-18.43-7.31-18.43-18.38s7.66-17.69,18.97-17.69,18.38,6.77,18.38,17.24c0,11.22-7.46,18.82-18.92,18.82Zm-.1-28.46c-5.58,0-8.84,4.1-8.84,9.63,0,6.08,3.46,11.27,9.09,11.27h.3c5.88,0,8.99-4.79,8.99-10.72s-3.51-10.18-9.54-10.18Z"/>
    <path class="cls-13" d="m154.27,10.77h10.23l14.72,21.49V10.77h8.79v35.08h-10.43l-14.53-21.44v21.44h-8.79V10.77Z"/>
  </g>
  <g>
    <path class="cls-13" d="m98.87,93.68c-2.69,0-7.08-.49-10.21-1.63l-.15-7.61c4.4,1.28,7.57,1.78,9.92,1.78,3.47,0,4.4-1.53,4.4-2.96,0-1.19-.44-2.17-3.32-3.36l-2.05-.84c-7.28-2.62-8.75-6.37-8.7-10.38.05-5.53,4.06-11.07,13.53-11.07,2.44,0,6.01.3,8.99,1.28l-.73,7.11c-3.27-.89-5.72-1.14-7.38-1.14-3.62,0-4.64,1.33-4.64,2.87,0,1.28.59,2.27,4.3,3.71l2.05.79c6.69,2.42,8.11,6.13,8.11,10.03,0,4.79-3.08,11.41-14.12,11.41Z"/>
    <path class="cls-13" d="m133.37,93.73c-11.14,0-15.73-5.58-15.73-16.9v-18.73h9.14v19.07c0,5.58,1.95,8.65,7.48,8.65,4.64,0,6.4-2.92,6.4-8.25v-19.47h8.75v18.58c0,10.97-5.23,17.05-16.03,17.05Z"/>
    <path class="cls-13" d="m168.6,93.23c-4.45,0-7.48,0-13.34-.05v-35.08h11.92c11.73,0,20.72,5.83,20.72,17.19,0,11.96-7.57,17.94-19.3,17.94Zm-.83-27.62c-1.51,0-2.25,0-3.37.05v19.91c1.27.1,2.54.1,4.06.1,6.35,0,10.06-3.36,10.06-9.63,0-7.11-4.74-10.43-10.75-10.43Z"/>
  </g>
  <g>
    <path class="cls-13" d="m293.3,10.15h4.39c4.45,0,8.04,2.3,8.04,6.54s-3.21,6.66-7.1,6.66c-.74,0-.91,0-1.53-.06v-1.91c.53.06.71.06,1.21.06,2.77,0,4.98-1.74,4.98-4.59,0-3.18-2.42-4.62-5.95-4.62h-1.71v18.85h-2.33V10.15Z"/>
    <path class="cls-13" d="m318.33,26.61l-2.33-3.92h-4.39v8.36h-2.33V10.15h4.54c4.65,0,8.04,2.06,8.04,6.18,0,2.27-.94,4.36-3.56,5.6l2.09,3.5c1.94,3.18,3,3.71,4.71,3.95l-.26,1.77c-3.09-.09-4.21-.59-6.51-4.54Zm-4.95-14.46h-1.77v8.63s1.74.06,3.45.06c2.5,0,4.33-1.68,4.33-4.3,0-3.15-2.53-4.39-6.01-4.39Z"/>
    <path class="cls-13" d="m336.82,31.38c-6.21,0-10.63-4.68-10.63-11.04s4.62-10.51,10.98-10.51,10.9,4.27,10.9,10.51c0,6.6-4.51,11.04-11.25,11.04Zm.12-19.47c-4.89,0-8.28,3.5-8.28,8.13,0,5.21,3.33,9.25,8.13,9.25h.26c5.33,0,8.54-3.56,8.54-8.69s-3.36-8.69-8.66-8.69Z"/>
    <path class="cls-13" d="m356.91,31.09l-7.89-20.94h2.56l6.74,18.46,6.57-18.46h2.39l-7.66,20.88-2.71.06Z"/>
    <path class="cls-13" d="m369.57,31.06V10.15h11.01v2.03h-8.69v7.24h8.01v1.97h-8.01v7.63h9.36l-.21,2.03h-11.49Z"/>
    <path class="cls-13" d="m385.53,10.15h2.5l12.78,17.29V10.15h2.21v20.91h-2.44l-12.84-17.43v17.43h-2.21V10.15Z"/>
    <path class="cls-13" d="m417.95,31.36c-6.89,0-11.37-4.12-11.37-10.66s4.42-10.84,11.37-10.84c2.09,0,4.21.32,6.57,1.3l-.21,2.12c-2.5-.94-4.42-1.33-6.48-1.33-5.65,0-8.8,3.24-8.8,8.6,0,4.74,3.15,8.69,9.13,8.69,1.71,0,4.27-.35,7.07-1.68l-.18,2.18c-2.44,1.18-4.89,1.62-7.1,1.62Z"/>
    <path class="cls-13" d="m429.37,31.06V10.15h11.01v2.03h-8.69v7.24h8.01v1.97h-8.01v7.63h9.36l-.21,2.03h-11.49Z"/>
    <path class="cls-13" d="m304.96,55.32h-8.69l-2.18,6.24h-2.41l7.57-20.88,2.56-.06,8.1,20.94h-2.56l-2.39-6.24Zm-8.04-1.94h7.33l-3.8-10.22-3.53,10.22Z"/>
    <path class="cls-13" d="m312.91,61.56v-20.91h2.33v18.88h9.33l-.18,2.03h-11.49Z"/>
    <path class="cls-13" d="m328.02,40.65h4.39c4.45,0,8.04,2.3,8.04,6.54s-3.21,6.66-7.1,6.66c-.74,0-.91,0-1.53-.06v-1.91c.53.06.71.06,1.21.06,2.77,0,4.98-1.74,4.98-4.59,0-3.18-2.42-4.62-5.95-4.62h-1.71v18.85h-2.33v-20.91Z"/>
    <path class="cls-13" d="m344.01,61.56v-20.91h11.01v2.03h-8.69v7.24h8.01v1.97h-8.01v7.63h9.36l-.21,2.03h-11.49Z"/>
    <path class="cls-13" d="m364.24,61.85c-1.74,0-3.59-.27-5.48-1l-.06-2.21c2.44.85,3.92,1.06,5.57,1.06,3.56,0,4.65-1.83,4.65-3.59,0-1.47-.53-2.65-3.42-3.98l-1.74-.77c-3.42-1.5-4.48-3.18-4.48-5.6,0-2.97,2.27-5.42,6.95-5.42,1.27,0,2.89.15,4.57.74l-.18,2.09c-1.83-.59-3.24-.77-4.36-.77-3.24,0-4.48,1.35-4.48,3.18,0,1.47.62,2.53,3.5,3.8l1.71.77c3.47,1.47,4.54,3.36,4.54,5.74,0,2.86-2.03,5.95-7.3,5.95Z"/>
    <path class="cls-13" d="m303.64,93.37c-6.89,0-11.37-4.12-11.37-10.66s4.42-10.84,11.37-10.84c2.09,0,4.21.32,6.57,1.3l-.21,2.12c-2.5-.94-4.42-1.33-6.48-1.33-5.65,0-8.8,3.24-8.8,8.6,0,4.74,3.15,8.69,9.13,8.69,1.71,0,4.27-.35,7.07-1.68l-.18,2.18c-2.44,1.18-4.89,1.62-7.1,1.62Z"/>
    <path class="cls-13" d="m323.84,93.4c-6.21,0-10.63-4.68-10.63-11.04s4.62-10.51,10.98-10.51,10.9,4.27,10.9,10.51c0,6.6-4.51,11.04-11.25,11.04Zm.12-19.47c-4.89,0-8.28,3.5-8.28,8.13,0,5.21,3.33,9.25,8.13,9.25h.26c5.33,0,8.54-3.56,8.54-8.69s-3.36-8.69-8.66-8.69Zm-.18-6.66l-4.09,3.18-1.21-1.3,5.48-4.21,5.21,4.15-1.44,1.35-3.95-3.18Z"/>
    <path class="cls-13" d="m345.01,74.19v18.88h-2.36v-18.88h-6.8v-2.03h16.14l-.15,2.03h-6.83Z"/>
    <path class="cls-13" d="m354.73,93.07v-20.91h11.01v2.03h-8.69v7.24h8.01v1.97h-8.01v7.63h9.36l-.21,2.03h-11.49Z"/>
    <path class="cls-13" d="m382.29,93.13c-2.33,0-4.59,0-6.98-.06v-20.91c2.12-.03,3.56-.03,6.66-.03,6.66,0,12.13,3.21,12.13,10.07s-4.71,10.93-11.81,10.93Zm-.56-18.97c-2,0-2.97,0-4.09.03v16.84c1.65.03,2.89.06,4.8.06,5.65,0,9.22-3.15,9.22-8.6,0-5.89-4.45-8.33-9.92-8.33Z"/>
    <path class="cls-13" d="m396.81,78.88l-1.41-.88c1.59-1.68,2.06-2.97,2.06-3.95,0-.68-.24-1.35-1.06-2.15.32-.62.91-.91,1.41-.91,1.3,0,1.97,1.24,1.97,2.53,0,.94-.24,2.62-2.97,5.36Z"/>
    <path class="cls-13" d="m411.41,86.83h-8.69l-2.18,6.24h-2.41l7.57-20.88,2.56-.06,8.1,20.94h-2.56l-2.39-6.24Zm-8.04-1.94h7.33l-3.8-10.22-3.53,10.22Z"/>
    <path class="cls-13" d="m417.65,93.07v-1.88l11.43-16.96h-11.34v-2.06h14.4v1.68l-11.6,17.14h12.66l-.21,2.09h-15.34Z"/>
    <path class="cls-13" d="m444.63,93.4c-5.83,0-8.28-3.09-8.28-9.39v-11.84h2.36v11.46c0,4.83,1.44,7.69,6.12,7.69,4.3,0,5.95-2.77,5.95-7.39v-11.75h2.21v12.22c0,5.54-2.71,9.01-8.36,9.01Z"/>
    <path class="cls-13" d="m466.48,88.62l-2.33-3.92h-4.39v8.36h-2.33v-20.91h4.54c4.65,0,8.04,2.06,8.04,6.18,0,2.27-.94,4.36-3.56,5.6l2.09,3.5c1.94,3.18,3,3.71,4.71,3.95l-.26,1.77c-3.09-.09-4.21-.59-6.51-4.54Zm-4.95-14.46h-1.77v8.63s1.74.06,3.45.06c2.5,0,4.33-1.68,4.33-4.3,0-3.15-2.53-4.39-6.01-4.39Z"/>
  </g>
  <polygon class="cls-11" points="55.55 8.27 34.68 8.27 55.55 2.08 55.55 8.27"/>
  <path class="cls-5" d="m251.83,17.95c.5.2.54.24.67.26.12.01,1.63-.45,2.29-.46.66-.01,1.59.57,2.06,1.92.16-1.12-.09-1.32-.39-1.66-.3-.33-.84-.55-1.19-.56.21-.18.73-.16.89-.17-.51-.15-1.21-.26-2.18,0-.97.28-1.28.7-1.4.7-.12,0-.75-.04-.75-.04Z"/>
</svg>