<?xml version="1.0" encoding="UTF-8"?>
<svg id="Calque_1" data-name="Calque 1" xmlns="http://www.w3.org/2000/svg" viewBox="0 0 283.96 135.85">
  <defs>
    <style>
      .cls-1 {
        fill: #000f9f;
      }
    </style>
  </defs>
  <g>
    <path class="cls-1" d="m41.84,0h25.39S91.42,0,91.42,67.33s-24.2,68.02-24.2,68.02h-25.25s24.56-2.09,24.56-67.69S41.84,0,41.84,0"/>
    <path class="cls-1" d="m0,0h25.39S49.59,0,49.59,67.33s-24.2,68.02-24.2,68.02H.14s24.56-2.09,24.56-67.69S0,0,0,0"/>
    <path class="cls-1" d="m266.9,118.74h16.85v-3.99h-16.85v-12.18h16.85v-3.99h-20.89v36.74h20.89v-3.99h-16.85v-12.6Zm-17.02-10.08c0,3.52-2.36,6.14-6.51,6.14h-8.45v-12.23h8.45c4.15,0,6.51,2.57,6.51,6.09m-9.13,10.03l9.76,16.64h4.67l-9.82-16.74c6.3-.84,8.61-5.46,8.61-9.92,0-4.88-2.78-10.08-10.6-10.08h-12.49v36.74h4.04v-16.64h5.83Zm-24.41,16.64h4.04v-36.74h-4.04v36.74Zm-9.22-24.82c0-7.72-4.83-12.44-11.86-12.44s-11.86,4.72-11.86,12.44v12.91c0,7.71,4.83,12.44,11.86,12.44s11.86-4.72,11.86-12.44v-12.91Zm-4.04,12.91c0,5.56-3.46,8.45-7.82,8.45s-7.82-2.89-7.82-8.45v-12.91c0-5.56,3.46-8.45,7.82-8.45s7.82,2.89,7.82,8.45v12.91Zm-44.63,11.91h20.89v-3.99h-16.85v-32.75h-4.04v36.74Z"/>
    <path class="cls-1" d="m216.29,89.78c7.35,0,11.13-3.94,11.13-9.81s-3.36-9.03-8.55-10.5l-4.3-1.21c-3.78-1.05-5.46-3.15-5.46-6.51s2.36-5.77,6.77-5.77c3.94,0,6.14,2.31,6.93,5.83h4.15c-.79-6.25-4.72-9.81-11.07-9.81-5.88,0-10.86,3.46-10.86,9.76,0,4.46,2.26,8.92,7.72,10.44l4.67,1.31c4.15,1.15,5.93,3.15,5.93,6.46,0,3.88-2.89,5.82-7.03,5.82s-7.14-2.68-7.77-7.4h-4.15c.52,7.03,5.25,11.39,11.91,11.39m-28.75-15.11l12.12-22.15h-4.41l-9.71,17.79-9.76-17.79h-4.41l12.12,22.1v14.64h4.04v-14.59Zm-24.96.52h-10.92l5.46-17.06,5.46,17.06Zm4.57,14.07h4.09l-11.81-36.74h-4.62l-11.81,36.74h4.09l3.36-10.34h13.33l3.36,10.34Zm-31.37-25.51c0,3.99-2.05,7.24-7.71,7.24h-7.82v-14.49h7.82c5.67,0,7.71,3.25,7.71,7.24m4.15,0c0-6.51-3.36-11.23-11.86-11.23h-11.86v36.74h4.04v-14.27h7.82c8.5,0,11.86-4.72,11.86-11.23"/>
    <path class="cls-1" d="m283.96,7.76h-6.76v22.74l-13.11-22.74h-6.76v35.29h6.76v-22.74l13.11,22.74h6.76V7.76Zm-39.89,22.74c0,4.08-2.87,6.35-6.55,6.35s-6.55-2.27-6.55-6.35v-10.18c0-4.08,2.87-6.35,6.55-6.35s6.55,2.27,6.55,6.35v10.18Zm6.76,0v-10.18c0-7.81-4.84-13.06-13.31-13.06s-13.31,5.24-13.31,13.06v10.18c0,7.82,4.84,13.06,13.31,13.06s13.31-5.24,13.31-13.06m-33.31-22.74h-6.76v35.29h6.76V7.76Zm-27.29,21.83h6.55v.91c0,4.08-2.87,6.35-6.55,6.35s-6.55-2.27-6.55-6.35v-10.18c0-4.08,2.87-6.35,6.55-6.35,3.23,0,5.85,1.76,6.45,4.94h6.81c-.55-7.01-5.29-11.65-13.26-11.65-8.47,0-13.31,5.24-13.31,13.06v10.18c0,7.82,4.84,13.06,13.31,13.06s13.31-5.24,13.31-13.06v-7.61h-13.31v6.71ZM159.49,0l-3.78,5.5h6.1l6.45-5.5h-8.77Zm-3.58,14.47h14.72v-6.71h-21.48v35.29h21.48v-6.71h-14.72v-7.76h14.72v-6.71h-14.72v-7.41Zm-20.45,3.78c0,2.42-1.66,3.73-4.24,3.73h-8.27v-7.51h8.27c2.57,0,4.24,1.31,4.24,3.78m-8.37,10.28l8.52,14.52h7.76l-8.77-14.87c4.94-1.16,7.61-4.79,7.61-10.03,0-6.35-3.98-10.39-11.14-10.39h-14.87v35.29h6.76v-14.52h4.13Z"/>
  </g>
  <path class="cls-1" d="m138.22,132.29l1.14,3.06h3.19l-5.69-15.17h-2.91l-5.69,15.17h3.19l1.14-3.06h5.65Zm-1.05-2.75h-3.55l1.78-4.92,1.77,4.92Zm-17.93-9.37h-3.05v15.17h9.69v-2.88h-6.65v-12.29Z"/>
  <path class="cls-1" d="m135.06,101.5h6.65v-2.88h-9.69v15.17h9.69v-2.88h-6.65v-3.34h6.65v-2.88h-6.65v-3.19Zm-9.9,6.68c0,1.76-1.3,2.73-2.96,2.73h-2.96v-9.41h2.96c1.66,0,2.96.98,2.96,2.73v3.95Zm-2.96,5.61c3.82,0,6.01-2.25,6.01-5.61v-3.95c0-3.36-2.18-5.61-6.01-5.61h-6.01v15.17h6.01Z"/>
</svg>